<?xml version="1.0" encoding="UTF-8" standalone="no"?>
<!DOCTYPE svg PUBLIC "-//W3C//DTD SVG 1.1//EN"
 "http://www.w3.org/Graphics/SVG/1.1/DTD/svg11.dtd">
<!-- Generated by graphviz version 2.40.1 (20161225.0304)
 -->
<!-- Title: dependencies Pages: 1 -->
<svg width="668pt" height="284pt"
 viewBox="0.00 0.00 668.00 284.00" xmlns="http://www.w3.org/2000/svg" xmlns:xlink="http://www.w3.org/1999/xlink">
<g id="graph0" class="graph" transform="scale(1 1) rotate(0) translate(4 280)">
<title>dependencies</title>
<polygon fill="#ffffff" stroke="transparent" points="-4,4 -4,-280 664,-280 664,4 -4,4"/>
<text text-anchor="start" x="309.0091" y="-42.4" font-family="sans-serif" font-weight="bold" font-size="14.00" fill="#000000">Legend</text>
<polygon fill="#ffffb3" stroke="transparent" points="96,-10 96,-30 116,-30 116,-10 96,-10"/>
<text text-anchor="start" x="119.629" y="-15.4" font-family="sans-serif" font-size="14.00" fill="#000000"> &#160;Declarations</text>
<polygon fill="#8dd3c7" stroke="transparent" points="209,-10 209,-30 229,-30 229,-10 209,-10"/>
<text text-anchor="start" x="232.7251" y="-15.4" font-family="sans-serif" font-size="14.00" fill="#000000"> &#160;Module</text>
<polygon fill="#80b1d3" stroke="transparent" points="295,-10 295,-30 315,-30 315,-10 295,-10"/>
<text text-anchor="start" x="318.7812" y="-15.4" font-family="sans-serif" font-size="14.00" fill="#000000"> &#160;Bootstrap</text>
<polygon fill="#fdb462" stroke="transparent" points="392,-10 392,-30 412,-30 412,-10 392,-10"/>
<text text-anchor="start" x="415.6732" y="-15.4" font-family="sans-serif" font-size="14.00" fill="#000000"> &#160;Providers</text>
<polygon fill="#fb8072" stroke="transparent" points="488,-10 488,-30 508,-30 508,-10 488,-10"/>
<text text-anchor="start" x="511.7258" y="-15.4" font-family="sans-serif" font-size="14.00" fill="#000000"> &#160;Exports</text>
<g id="clust1" class="cluster">
<title>cluster_AuthModule</title>
<polygon fill="none" stroke="#000000" stroke-dasharray="1,5" points="8,-70 8,-268 652,-268 652,-70 8,-70"/>
</g>
<g id="clust3" class="cluster">
<title>cluster_AuthModule_imports</title>
<polygon fill="none" stroke="#000000" points="438,-78 438,-130 644,-130 644,-78 438,-78"/>
</g>
<g id="clust4" class="cluster">
<title>cluster_AuthModule_exports</title>
<polygon fill="none" stroke="#000000" points="310,-208 310,-260 416,-260 416,-208 310,-208"/>
</g>
<g id="clust6" class="cluster">
<title>cluster_AuthModule_providers</title>
<polygon fill="none" stroke="#000000" points="16,-78 16,-130 430,-130 430,-78 16,-78"/>
</g>
<!-- RoleModule -->
<g id="node1" class="node">
<title>RoleModule</title>
<polygon fill="#8dd3c7" stroke="#000000" points="635.9916,-122 632.9916,-126 611.9916,-126 608.9916,-122 550.0084,-122 550.0084,-86 635.9916,-86 635.9916,-122"/>
<text text-anchor="middle" x="593" y="-99.8" font-family="Times,serif" font-size="14.00" fill="#000000">RoleModule</text>
</g>
<!-- AuthModule -->
<g id="node3" class="node">
<title>AuthModule</title>
<polygon fill="#8dd3c7" stroke="#000000" points="406.5482,-187 403.5482,-191 382.5482,-191 379.5482,-187 319.4518,-187 319.4518,-151 406.5482,-151 406.5482,-187"/>
<text text-anchor="middle" x="363" y="-164.8" font-family="Times,serif" font-size="14.00" fill="#000000">AuthModule</text>
</g>
<!-- RoleModule&#45;&gt;AuthModule -->
<g id="edge1" class="edge">
<title>RoleModule&#45;&gt;AuthModule</title>
<path fill="none" stroke="#000000" d="M593,-122.2843C593,-143.3211 593,-175 593,-175 593,-175 416.8026,-175 416.8026,-175"/>
<polygon fill="#000000" stroke="#000000" points="416.8027,-171.5001 406.8026,-175 416.8026,-178.5001 416.8027,-171.5001"/>
</g>
<!-- UserModule -->
<g id="node2" class="node">
<title>UserModule</title>
<polygon fill="#8dd3c7" stroke="#000000" points="531.9762,-122 528.9762,-126 507.9762,-126 504.9762,-122 446.0238,-122 446.0238,-86 531.9762,-86 531.9762,-122"/>
<text text-anchor="middle" x="489" y="-99.8" font-family="Times,serif" font-size="14.00" fill="#000000">UserModule</text>
</g>
<!-- UserModule&#45;&gt;AuthModule -->
<g id="edge2" class="edge">
<title>UserModule&#45;&gt;AuthModule</title>
<path fill="none" stroke="#000000" d="M489,-122.0225C489,-139.3734 489,-163 489,-163 489,-163 416.7151,-163 416.7151,-163"/>
<polygon fill="#000000" stroke="#000000" points="416.7151,-159.5001 406.7151,-163 416.715,-166.5001 416.7151,-159.5001"/>
</g>
<!-- AuthService  -->
<g id="node4" class="node">
<title>AuthService </title>
<polygon fill="#fb8072" stroke="#000000" points="407.9761,-252 318.0239,-252 318.0239,-216 407.9761,-216 407.9761,-252"/>
<text text-anchor="middle" x="363" y="-229.8" font-family="Times,serif" font-size="14.00" fill="#000000">AuthService </text>
</g>
<!-- AuthModule&#45;&gt;AuthService  -->
<g id="edge3" class="edge">
<title>AuthModule&#45;&gt;AuthService </title>
<path fill="none" stroke="#000000" stroke-dasharray="5,2" d="M363,-187.1061C363,-187.1061 363,-205.991 363,-205.991"/>
<polygon fill="#000000" stroke="#000000" points="359.5001,-205.9909 363,-215.991 366.5001,-205.991 359.5001,-205.9909"/>
</g>
<!-- AuthService -->
<g id="node5" class="node">
<title>AuthService</title>
<ellipse fill="#fdb462" stroke="#000000" cx="363" cy="-104" rx="59.1083" ry="18"/>
<text text-anchor="middle" x="363" y="-99.8" font-family="Times,serif" font-size="14.00" fill="#000000">AuthService</text>
</g>
<!-- AuthService&#45;&gt;AuthModule -->
<g id="edge4" class="edge">
<title>AuthService&#45;&gt;AuthModule</title>
<path fill="none" stroke="#000000" d="M363,-122.1061C363,-122.1061 363,-140.991 363,-140.991"/>
<polygon fill="#000000" stroke="#000000" points="359.5001,-140.9909 363,-150.991 366.5001,-140.991 359.5001,-140.9909"/>
</g>
<!-- JwtStrategy -->
<g id="node6" class="node">
<title>JwtStrategy</title>
<ellipse fill="#fdb462" stroke="#000000" cx="229" cy="-104" rx="56.7561" ry="18"/>
<text text-anchor="middle" x="229" y="-99.8" font-family="Times,serif" font-size="14.00" fill="#000000">JwtStrategy</text>
</g>
<!-- JwtStrategy&#45;&gt;AuthModule -->
<g id="edge5" class="edge">
<title>JwtStrategy&#45;&gt;AuthModule</title>
<path fill="none" stroke="#000000" d="M229,-122.0225C229,-139.3734 229,-163 229,-163 229,-163 309.1234,-163 309.1234,-163"/>
<polygon fill="#000000" stroke="#000000" points="309.1234,-166.5001 319.1234,-163 309.1234,-159.5001 309.1234,-166.5001"/>
</g>
<!-- LocalStrategy -->
<g id="node7" class="node">
<title>LocalStrategy</title>
<ellipse fill="#fdb462" stroke="#000000" cx="89" cy="-104" rx="65.4053" ry="18"/>
<text text-anchor="middle" x="89" y="-99.8" font-family="Times,serif" font-size="14.00" fill="#000000">LocalStrategy</text>
</g>
<!-- LocalStrategy&#45;&gt;AuthModule -->
<g id="edge6" class="edge">
<title>LocalStrategy&#45;&gt;AuthModule</title>
<path fill="none" stroke="#000000" d="M89,-122.2843C89,-143.3211 89,-175 89,-175 89,-175 309.2809,-175 309.2809,-175"/>
<polygon fill="#000000" stroke="#000000" points="309.2809,-178.5001 319.2809,-175 309.2809,-171.5001 309.2809,-178.5001"/>
</g>
</g>
</svg>
