<?xml version="1.0" encoding="UTF-8" standalone="no"?>
<!DOCTYPE svg PUBLIC "-//W3C//DTD SVG 1.1//EN"
 "http://www.w3.org/Graphics/SVG/1.1/DTD/svg11.dtd">
<!-- Generated by graphviz version 2.40.1 (20161225.0304)
 -->
<!-- Title: dependencies Pages: 1 -->
<svg width="1018pt" height="211pt"
 viewBox="0.00 0.00 1018.00 211.00" xmlns="http://www.w3.org/2000/svg" xmlns:xlink="http://www.w3.org/1999/xlink">
<g id="graph0" class="graph" transform="scale(1 1) rotate(0) translate(4 207)">
<title>dependencies</title>
<polygon fill="#ffffff" stroke="transparent" points="-4,4 -4,-207 1014,-207 1014,4 -4,4"/>
<text text-anchor="start" x="484.0091" y="-42.4" font-family="sans-serif" font-weight="bold" font-size="14.00" fill="#000000">Legend</text>
<polygon fill="#ffffb3" stroke="transparent" points="271,-10 271,-30 291,-30 291,-10 271,-10"/>
<text text-anchor="start" x="294.629" y="-15.4" font-family="sans-serif" font-size="14.00" fill="#000000"> &#160;Declarations</text>
<polygon fill="#8dd3c7" stroke="transparent" points="384,-10 384,-30 404,-30 404,-10 384,-10"/>
<text text-anchor="start" x="407.7251" y="-15.4" font-family="sans-serif" font-size="14.00" fill="#000000"> &#160;Module</text>
<polygon fill="#80b1d3" stroke="transparent" points="470,-10 470,-30 490,-30 490,-10 470,-10"/>
<text text-anchor="start" x="493.7812" y="-15.4" font-family="sans-serif" font-size="14.00" fill="#000000"> &#160;Bootstrap</text>
<polygon fill="#fdb462" stroke="transparent" points="567,-10 567,-30 587,-30 587,-10 567,-10"/>
<text text-anchor="start" x="590.6732" y="-15.4" font-family="sans-serif" font-size="14.00" fill="#000000"> &#160;Providers</text>
<polygon fill="#fb8072" stroke="transparent" points="663,-10 663,-30 683,-30 683,-10 663,-10"/>
<text text-anchor="start" x="686.7258" y="-15.4" font-family="sans-serif" font-size="14.00" fill="#000000"> &#160;Exports</text>
<g id="clust1" class="cluster">
<title>cluster_StatsModule</title>
<polygon fill="none" stroke="#000000" stroke-dasharray="1,5" points="8,-70 8,-195 1002,-195 1002,-70 8,-70"/>
</g>
<g id="clust3" class="cluster">
<title>cluster_StatsModule_imports</title>
<polygon fill="none" stroke="#000000" points="158,-78 158,-130 994,-130 994,-78 158,-78"/>
</g>
<g id="clust6" class="cluster">
<title>cluster_StatsModule_providers</title>
<polygon fill="none" stroke="#000000" points="16,-78 16,-130 150,-130 150,-78 16,-78"/>
</g>
<!-- CompanyModule -->
<g id="node1" class="node">
<title>CompanyModule</title>
<polygon fill="#8dd3c7" stroke="#000000" points="985.9916,-122 982.9916,-126 961.9916,-126 958.9916,-122 872.0084,-122 872.0084,-86 985.9916,-86 985.9916,-122"/>
<text text-anchor="middle" x="929" y="-99.8" font-family="Times,serif" font-size="14.00" fill="#000000">CompanyModule</text>
</g>
<!-- StatsModule -->
<g id="node7" class="node">
<title>StatsModule</title>
<polygon fill="#8dd3c7" stroke="#000000" points="459.2731,-187 456.2731,-191 435.2731,-191 432.2731,-187 372.7269,-187 372.7269,-151 459.2731,-151 459.2731,-187"/>
<text text-anchor="middle" x="416" y="-164.8" font-family="Times,serif" font-size="14.00" fill="#000000">StatsModule</text>
</g>
<!-- CompanyModule&#45;&gt;StatsModule -->
<g id="edge1" class="edge">
<title>CompanyModule&#45;&gt;StatsModule</title>
<path fill="none" stroke="#000000" d="M929,-122.2921C929,-144.2057 929,-178 929,-178 929,-178 469.296,-178 469.296,-178"/>
<polygon fill="#000000" stroke="#000000" points="469.296,-174.5001 459.296,-178 469.2959,-181.5001 469.296,-174.5001"/>
</g>
<!-- JoinTagPoiModule -->
<g id="node2" class="node">
<title>JoinTagPoiModule</title>
<polygon fill="#8dd3c7" stroke="#000000" points="853.8258,-122 850.8258,-126 829.8258,-126 826.8258,-122 730.1742,-122 730.1742,-86 853.8258,-86 853.8258,-122"/>
<text text-anchor="middle" x="792" y="-99.8" font-family="Times,serif" font-size="14.00" fill="#000000">JoinTagPoiModule</text>
</g>
<!-- JoinTagPoiModule&#45;&gt;StatsModule -->
<g id="edge2" class="edge">
<title>JoinTagPoiModule&#45;&gt;StatsModule</title>
<path fill="none" stroke="#000000" d="M792,-122.1061C792,-141.3391 792,-169 792,-169 792,-169 469.4993,-169 469.4993,-169"/>
<polygon fill="#000000" stroke="#000000" points="469.4993,-165.5001 459.4993,-169 469.4993,-172.5001 469.4993,-165.5001"/>
</g>
<!-- PercentTypeGreenScoreAndPoiModule -->
<g id="node3" class="node">
<title>PercentTypeGreenScoreAndPoiModule</title>
<polygon fill="#8dd3c7" stroke="#000000" points="712.6432,-122 709.6432,-126 688.6432,-126 685.6432,-122 473.3568,-122 473.3568,-86 712.6432,-86 712.6432,-122"/>
<text text-anchor="middle" x="593" y="-99.8" font-family="Times,serif" font-size="14.00" fill="#000000">PercentTypeGreenScoreAndPoiModule</text>
</g>
<!-- PercentTypeGreenScoreAndPoiModule&#45;&gt;StatsModule -->
<g id="edge3" class="edge">
<title>PercentTypeGreenScoreAndPoiModule&#45;&gt;StatsModule</title>
<path fill="none" stroke="#000000" d="M593,-122.027C593,-138.3976 593,-160 593,-160 593,-160 469.2991,-160 469.2991,-160"/>
<polygon fill="#000000" stroke="#000000" points="469.2991,-156.5001 459.2991,-160 469.299,-163.5001 469.2991,-156.5001"/>
</g>
<!-- PoiModule -->
<g id="node4" class="node">
<title>PoiModule</title>
<polygon fill="#8dd3c7" stroke="#000000" points="455.2233,-122 452.2233,-126 431.2233,-126 428.2233,-122 376.7767,-122 376.7767,-86 455.2233,-86 455.2233,-122"/>
<text text-anchor="middle" x="416" y="-99.8" font-family="Times,serif" font-size="14.00" fill="#000000">PoiModule</text>
</g>
<!-- PoiModule&#45;&gt;StatsModule -->
<g id="edge4" class="edge">
<title>PoiModule&#45;&gt;StatsModule</title>
<path fill="none" stroke="#000000" d="M416,-122.1061C416,-122.1061 416,-140.991 416,-140.991"/>
<polygon fill="#000000" stroke="#000000" points="412.5001,-140.9909 416,-150.991 419.5001,-140.991 412.5001,-140.9909"/>
</g>
<!-- TagsModule -->
<g id="node5" class="node">
<title>TagsModule</title>
<polygon fill="#8dd3c7" stroke="#000000" points="359.2619,-122 356.2619,-126 335.2619,-126 332.2619,-122 272.7381,-122 272.7381,-86 359.2619,-86 359.2619,-122"/>
<text text-anchor="middle" x="316" y="-99.8" font-family="Times,serif" font-size="14.00" fill="#000000">TagsModule</text>
</g>
<!-- TagsModule&#45;&gt;StatsModule -->
<g id="edge5" class="edge">
<title>TagsModule&#45;&gt;StatsModule</title>
<path fill="none" stroke="#000000" d="M316,-122.027C316,-138.3976 316,-160 316,-160 316,-160 362.7202,-160 362.7202,-160"/>
<polygon fill="#000000" stroke="#000000" points="362.7202,-163.5001 372.7202,-160 362.7201,-156.5001 362.7202,-163.5001"/>
</g>
<!-- TypeModule -->
<g id="node6" class="node">
<title>TypeModule</title>
<polygon fill="#8dd3c7" stroke="#000000" points="254.3176,-122 251.3176,-126 230.3176,-126 227.3176,-122 165.6824,-122 165.6824,-86 254.3176,-86 254.3176,-122"/>
<text text-anchor="middle" x="210" y="-99.8" font-family="Times,serif" font-size="14.00" fill="#000000">TypeModule</text>
</g>
<!-- TypeModule&#45;&gt;StatsModule -->
<g id="edge6" class="edge">
<title>TypeModule&#45;&gt;StatsModule</title>
<path fill="none" stroke="#000000" d="M210,-122.1061C210,-141.3391 210,-169 210,-169 210,-169 362.5644,-169 362.5644,-169"/>
<polygon fill="#000000" stroke="#000000" points="362.5644,-172.5001 372.5644,-169 362.5644,-165.5001 362.5644,-172.5001"/>
</g>
<!-- StatsService -->
<g id="node8" class="node">
<title>StatsService</title>
<ellipse fill="#fdb462" stroke="#000000" cx="83" cy="-104" rx="58.5405" ry="18"/>
<text text-anchor="middle" x="83" y="-99.8" font-family="Times,serif" font-size="14.00" fill="#000000">StatsService</text>
</g>
<!-- StatsService&#45;&gt;StatsModule -->
<g id="edge7" class="edge">
<title>StatsService&#45;&gt;StatsModule</title>
<path fill="none" stroke="#000000" d="M83,-122.2921C83,-144.2057 83,-178 83,-178 83,-178 362.4661,-178 362.4661,-178"/>
<polygon fill="#000000" stroke="#000000" points="362.4661,-181.5001 372.4661,-178 362.466,-174.5001 362.4661,-181.5001"/>
</g>
</g>
</svg>
