<?xml version="1.0" encoding="UTF-8" standalone="no"?>
<!DOCTYPE svg PUBLIC "-//W3C//DTD SVG 1.1//EN"
 "http://www.w3.org/Graphics/SVG/1.1/DTD/svg11.dtd">
<!-- Generated by graphviz version 2.40.1 (20161225.0304)
 -->
<!-- Title: dependencies Pages: 1 -->
<svg width="818pt" height="211pt"
 viewBox="0.00 0.00 818.00 211.00" xmlns="http://www.w3.org/2000/svg" xmlns:xlink="http://www.w3.org/1999/xlink">
<g id="graph0" class="graph" transform="scale(1 1) rotate(0) translate(4 207)">
<title>dependencies</title>
<polygon fill="#ffffff" stroke="transparent" points="-4,4 -4,-207 814,-207 814,4 -4,4"/>
<text text-anchor="start" x="384.0091" y="-42.4" font-family="sans-serif" font-weight="bold" font-size="14.00" fill="#000000">Legend</text>
<polygon fill="#ffffb3" stroke="transparent" points="171,-10 171,-30 191,-30 191,-10 171,-10"/>
<text text-anchor="start" x="194.629" y="-15.4" font-family="sans-serif" font-size="14.00" fill="#000000"> &#160;Declarations</text>
<polygon fill="#8dd3c7" stroke="transparent" points="284,-10 284,-30 304,-30 304,-10 284,-10"/>
<text text-anchor="start" x="307.7251" y="-15.4" font-family="sans-serif" font-size="14.00" fill="#000000"> &#160;Module</text>
<polygon fill="#80b1d3" stroke="transparent" points="370,-10 370,-30 390,-30 390,-10 370,-10"/>
<text text-anchor="start" x="393.7812" y="-15.4" font-family="sans-serif" font-size="14.00" fill="#000000"> &#160;Bootstrap</text>
<polygon fill="#fdb462" stroke="transparent" points="467,-10 467,-30 487,-30 487,-10 467,-10"/>
<text text-anchor="start" x="490.6732" y="-15.4" font-family="sans-serif" font-size="14.00" fill="#000000"> &#160;Providers</text>
<polygon fill="#fb8072" stroke="transparent" points="563,-10 563,-30 583,-30 583,-10 563,-10"/>
<text text-anchor="start" x="586.7258" y="-15.4" font-family="sans-serif" font-size="14.00" fill="#000000"> &#160;Exports</text>
<g id="clust1" class="cluster">
<title>cluster_ThemeQuizzModule</title>
<polygon fill="none" stroke="#000000" stroke-dasharray="1,5" points="8,-70 8,-195 802,-195 802,-70 8,-70"/>
</g>
<g id="clust3" class="cluster">
<title>cluster_ThemeQuizzModule_imports</title>
<polygon fill="none" stroke="#000000" points="220,-78 220,-130 794,-130 794,-78 220,-78"/>
</g>
<g id="clust6" class="cluster">
<title>cluster_ThemeQuizzModule_providers</title>
<polygon fill="none" stroke="#000000" points="16,-78 16,-130 212,-130 212,-78 16,-78"/>
</g>
<!-- JoinUserThemeQuizzModule -->
<g id="node1" class="node">
<title>JoinUserThemeQuizzModule</title>
<polygon fill="#8dd3c7" stroke="#000000" points="785.6106,-122 782.6106,-126 761.6106,-126 758.6106,-122 604.3894,-122 604.3894,-86 785.6106,-86 785.6106,-122"/>
<text text-anchor="middle" x="695" y="-99.8" font-family="Times,serif" font-size="14.00" fill="#000000">JoinUserThemeQuizzModule</text>
</g>
<!-- ThemeQuizzModule -->
<g id="node5" class="node">
<title>ThemeQuizzModule</title>
<polygon fill="#8dd3c7" stroke="#000000" points="443.8487,-187 440.8487,-191 419.8487,-191 416.8487,-187 312.1513,-187 312.1513,-151 443.8487,-151 443.8487,-187"/>
<text text-anchor="middle" x="378" y="-164.8" font-family="Times,serif" font-size="14.00" fill="#000000">ThemeQuizzModule</text>
</g>
<!-- JoinUserThemeQuizzModule&#45;&gt;ThemeQuizzModule -->
<g id="edge1" class="edge">
<title>JoinUserThemeQuizzModule&#45;&gt;ThemeQuizzModule</title>
<path fill="none" stroke="#000000" d="M695,-122.1061C695,-141.3391 695,-169 695,-169 695,-169 454.0677,-169 454.0677,-169"/>
<polygon fill="#000000" stroke="#000000" points="454.0678,-165.5001 444.0677,-169 454.0677,-172.5001 454.0678,-165.5001"/>
</g>
<!-- QuestionQuizzModule -->
<g id="node2" class="node">
<title>QuestionQuizzModule</title>
<polygon fill="#8dd3c7" stroke="#000000" points="585.524,-122 582.524,-126 561.524,-126 558.524,-122 442.476,-122 442.476,-86 585.524,-86 585.524,-122"/>
<text text-anchor="middle" x="514" y="-99.8" font-family="Times,serif" font-size="14.00" fill="#000000">QuestionQuizzModule</text>
</g>
<!-- QuestionQuizzModule&#45;&gt;ThemeQuizzModule -->
<g id="edge2" class="edge">
<title>QuestionQuizzModule&#45;&gt;ThemeQuizzModule</title>
<path fill="none" stroke="#000000" d="M442.3009,-104C436.8195,-104 433.3633,-104 433.3633,-104 433.3633,-104 433.3633,-140.8939 433.3633,-140.8939"/>
<polygon fill="#000000" stroke="#000000" points="429.8633,-140.8938 433.3633,-150.8939 436.8633,-140.8939 429.8633,-140.8938"/>
</g>
<!-- QuizzModule -->
<g id="node3" class="node">
<title>QuizzModule</title>
<polygon fill="#8dd3c7" stroke="#000000" points="424.4762,-122 421.4762,-126 400.4762,-126 397.4762,-122 331.5238,-122 331.5238,-86 424.4762,-86 424.4762,-122"/>
<text text-anchor="middle" x="378" y="-99.8" font-family="Times,serif" font-size="14.00" fill="#000000">QuizzModule</text>
</g>
<!-- QuizzModule&#45;&gt;ThemeQuizzModule -->
<g id="edge3" class="edge">
<title>QuizzModule&#45;&gt;ThemeQuizzModule</title>
<path fill="none" stroke="#000000" d="M378,-122.1061C378,-122.1061 378,-140.991 378,-140.991"/>
<polygon fill="#000000" stroke="#000000" points="374.5001,-140.9909 378,-150.991 381.5001,-140.991 374.5001,-140.9909"/>
</g>
<!-- UserModule -->
<g id="node4" class="node">
<title>UserModule</title>
<polygon fill="#8dd3c7" stroke="#000000" points="313.9762,-122 310.9762,-126 289.9762,-126 286.9762,-122 228.0238,-122 228.0238,-86 313.9762,-86 313.9762,-122"/>
<text text-anchor="middle" x="271" y="-99.8" font-family="Times,serif" font-size="14.00" fill="#000000">UserModule</text>
</g>
<!-- UserModule&#45;&gt;ThemeQuizzModule -->
<g id="edge4" class="edge">
<title>UserModule&#45;&gt;ThemeQuizzModule</title>
<path fill="none" stroke="#000000" d="M314.2045,-104C319.3103,-104 322.75,-104 322.75,-104 322.75,-104 322.75,-140.8939 322.75,-140.8939"/>
<polygon fill="#000000" stroke="#000000" points="319.2501,-140.8938 322.75,-150.8939 326.2501,-140.8939 319.2501,-140.8938"/>
</g>
<!-- ThemeQuizzService -->
<g id="node6" class="node">
<title>ThemeQuizzService</title>
<ellipse fill="#fdb462" stroke="#000000" cx="114" cy="-104" rx="89.7248" ry="18"/>
<text text-anchor="middle" x="114" y="-99.8" font-family="Times,serif" font-size="14.00" fill="#000000">ThemeQuizzService</text>
</g>
<!-- ThemeQuizzService&#45;&gt;ThemeQuizzModule -->
<g id="edge5" class="edge">
<title>ThemeQuizzService&#45;&gt;ThemeQuizzModule</title>
<path fill="none" stroke="#000000" d="M114,-122.1061C114,-141.3391 114,-169 114,-169 114,-169 302.0627,-169 302.0627,-169"/>
<polygon fill="#000000" stroke="#000000" points="302.0627,-172.5001 312.0627,-169 302.0626,-165.5001 302.0627,-172.5001"/>
</g>
</g>
</svg>
