<?xml version="1.0" encoding="UTF-8" standalone="no"?>
<!DOCTYPE svg PUBLIC "-//W3C//DTD SVG 1.1//EN"
 "http://www.w3.org/Graphics/SVG/1.1/DTD/svg11.dtd">
<!-- Generated by graphviz version 2.40.1 (20161225.0304)
 -->
<!-- Title: dependencies Pages: 1 -->
<svg width="504pt" height="284pt"
 viewBox="0.00 0.00 504.00 284.00" xmlns="http://www.w3.org/2000/svg" xmlns:xlink="http://www.w3.org/1999/xlink">
<g id="graph0" class="graph" transform="scale(1 1) rotate(0) translate(4 280)">
<title>dependencies</title>
<polygon fill="#ffffff" stroke="transparent" points="-4,4 -4,-280 500,-280 500,4 -4,4"/>
<text text-anchor="start" x="227.0091" y="-42.4" font-family="sans-serif" font-weight="bold" font-size="14.00" fill="#000000">Legend</text>
<polygon fill="#ffffb3" stroke="transparent" points="14,-10 14,-30 34,-30 34,-10 14,-10"/>
<text text-anchor="start" x="37.629" y="-15.4" font-family="sans-serif" font-size="14.00" fill="#000000"> &#160;Declarations</text>
<polygon fill="#8dd3c7" stroke="transparent" points="127,-10 127,-30 147,-30 147,-10 127,-10"/>
<text text-anchor="start" x="150.7251" y="-15.4" font-family="sans-serif" font-size="14.00" fill="#000000"> &#160;Module</text>
<polygon fill="#80b1d3" stroke="transparent" points="213,-10 213,-30 233,-30 233,-10 213,-10"/>
<text text-anchor="start" x="236.7812" y="-15.4" font-family="sans-serif" font-size="14.00" fill="#000000"> &#160;Bootstrap</text>
<polygon fill="#fdb462" stroke="transparent" points="310,-10 310,-30 330,-30 330,-10 310,-10"/>
<text text-anchor="start" x="333.6732" y="-15.4" font-family="sans-serif" font-size="14.00" fill="#000000"> &#160;Providers</text>
<polygon fill="#fb8072" stroke="transparent" points="406,-10 406,-30 426,-30 426,-10 406,-10"/>
<text text-anchor="start" x="429.7258" y="-15.4" font-family="sans-serif" font-size="14.00" fill="#000000"> &#160;Exports</text>
<g id="clust1" class="cluster">
<title>cluster_QuizzModule</title>
<polygon fill="none" stroke="#000000" stroke-dasharray="1,5" points="85,-70 85,-268 411,-268 411,-70 85,-70"/>
</g>
<g id="clust3" class="cluster">
<title>cluster_QuizzModule_imports</title>
<polygon fill="none" stroke="#000000" points="243,-78 243,-130 403,-130 403,-78 243,-78"/>
</g>
<g id="clust4" class="cluster">
<title>cluster_QuizzModule_exports</title>
<polygon fill="none" stroke="#000000" points="188,-208 188,-260 298,-260 298,-208 188,-208"/>
</g>
<g id="clust6" class="cluster">
<title>cluster_QuizzModule_providers</title>
<polygon fill="none" stroke="#000000" points="93,-78 93,-130 235,-130 235,-78 93,-78"/>
</g>
<!-- QuestionQuizzModule -->
<g id="node1" class="node">
<title>QuestionQuizzModule</title>
<polygon fill="#8dd3c7" stroke="#000000" points="394.524,-122 391.524,-126 370.524,-126 367.524,-122 251.476,-122 251.476,-86 394.524,-86 394.524,-122"/>
<text text-anchor="middle" x="323" y="-99.8" font-family="Times,serif" font-size="14.00" fill="#000000">QuestionQuizzModule</text>
</g>
<!-- QuizzModule -->
<g id="node2" class="node">
<title>QuizzModule</title>
<polygon fill="#8dd3c7" stroke="#000000" points="289.4762,-187 286.4762,-191 265.4762,-191 262.4762,-187 196.5238,-187 196.5238,-151 289.4762,-151 289.4762,-187"/>
<text text-anchor="middle" x="243" y="-164.8" font-family="Times,serif" font-size="14.00" fill="#000000">QuizzModule</text>
</g>
<!-- QuestionQuizzModule&#45;&gt;QuizzModule -->
<g id="edge1" class="edge">
<title>QuestionQuizzModule&#45;&gt;QuizzModule</title>
<path fill="none" stroke="#000000" d="M270.3633,-122.1061C270.3633,-122.1061 270.3633,-140.991 270.3633,-140.991"/>
<polygon fill="#000000" stroke="#000000" points="266.8633,-140.9909 270.3633,-150.991 273.8633,-140.991 266.8633,-140.9909"/>
</g>
<!-- QuizzService  -->
<g id="node3" class="node">
<title>QuizzService </title>
<polygon fill="#fb8072" stroke="#000000" points="290.404,-252 195.596,-252 195.596,-216 290.404,-216 290.404,-252"/>
<text text-anchor="middle" x="243" y="-229.8" font-family="Times,serif" font-size="14.00" fill="#000000">QuizzService </text>
</g>
<!-- QuizzModule&#45;&gt;QuizzService  -->
<g id="edge2" class="edge">
<title>QuizzModule&#45;&gt;QuizzService </title>
<path fill="none" stroke="#000000" stroke-dasharray="5,2" d="M243,-187.1061C243,-187.1061 243,-205.991 243,-205.991"/>
<polygon fill="#000000" stroke="#000000" points="239.5001,-205.9909 243,-215.991 246.5001,-205.991 239.5001,-205.9909"/>
</g>
<!-- QuizzService -->
<g id="node4" class="node">
<title>QuizzService</title>
<ellipse fill="#fdb462" stroke="#000000" cx="164" cy="-104" rx="63.0977" ry="18"/>
<text text-anchor="middle" x="164" y="-99.8" font-family="Times,serif" font-size="14.00" fill="#000000">QuizzService</text>
</g>
<!-- QuizzService&#45;&gt;QuizzModule -->
<g id="edge3" class="edge">
<title>QuizzService&#45;&gt;QuizzModule</title>
<path fill="none" stroke="#000000" d="M211.7804,-115.922C211.7804,-115.922 211.7804,-140.7669 211.7804,-140.7669"/>
<polygon fill="#000000" stroke="#000000" points="208.2805,-140.7669 211.7804,-150.7669 215.2805,-140.7669 208.2805,-140.7669"/>
</g>
</g>
</svg>
