<?xml version="1.0" encoding="UTF-8" standalone="no"?>
<!DOCTYPE svg PUBLIC "-//W3C//DTD SVG 1.1//EN"
 "http://www.w3.org/Graphics/SVG/1.1/DTD/svg11.dtd">
<!-- Generated by graphviz version 2.40.1 (20161225.0304)
 -->
<!-- Title: dependencies Pages: 1 -->
<svg width="1920pt" height="211pt"
 viewBox="0.00 0.00 1920.00 211.00" xmlns="http://www.w3.org/2000/svg" xmlns:xlink="http://www.w3.org/1999/xlink">
<g id="graph0" class="graph" transform="scale(1 1) rotate(0) translate(4 207)">
<title>dependencies</title>
<polygon fill="#ffffff" stroke="transparent" points="-4,4 -4,-207 1916,-207 1916,4 -4,4"/>
<text text-anchor="start" x="935.0091" y="-42.4" font-family="sans-serif" font-weight="bold" font-size="14.00" fill="#000000">Legend</text>
<polygon fill="#ffffb3" stroke="transparent" points="722,-10 722,-30 742,-30 742,-10 722,-10"/>
<text text-anchor="start" x="745.629" y="-15.4" font-family="sans-serif" font-size="14.00" fill="#000000"> &#160;Declarations</text>
<polygon fill="#8dd3c7" stroke="transparent" points="835,-10 835,-30 855,-30 855,-10 835,-10"/>
<text text-anchor="start" x="858.7251" y="-15.4" font-family="sans-serif" font-size="14.00" fill="#000000"> &#160;Module</text>
<polygon fill="#80b1d3" stroke="transparent" points="921,-10 921,-30 941,-30 941,-10 921,-10"/>
<text text-anchor="start" x="944.7812" y="-15.4" font-family="sans-serif" font-size="14.00" fill="#000000"> &#160;Bootstrap</text>
<polygon fill="#fdb462" stroke="transparent" points="1018,-10 1018,-30 1038,-30 1038,-10 1018,-10"/>
<text text-anchor="start" x="1041.6732" y="-15.4" font-family="sans-serif" font-size="14.00" fill="#000000"> &#160;Providers</text>
<polygon fill="#fb8072" stroke="transparent" points="1114,-10 1114,-30 1134,-30 1134,-10 1114,-10"/>
<text text-anchor="start" x="1137.7258" y="-15.4" font-family="sans-serif" font-size="14.00" fill="#000000"> &#160;Exports</text>
<g id="clust1" class="cluster">
<title>cluster_AppModule</title>
<polygon fill="none" stroke="#000000" stroke-dasharray="1,5" points="8,-70 8,-195 1904,-195 1904,-70 8,-70"/>
</g>
<g id="clust3" class="cluster">
<title>cluster_AppModule_imports</title>
<polygon fill="none" stroke="#000000" points="154,-78 154,-130 1896,-130 1896,-78 154,-78"/>
</g>
<g id="clust6" class="cluster">
<title>cluster_AppModule_providers</title>
<polygon fill="none" stroke="#000000" points="16,-78 16,-130 146,-130 146,-78 16,-78"/>
</g>
<!-- AuthModule -->
<g id="node1" class="node">
<title>AuthModule</title>
<polygon fill="#8dd3c7" stroke="#000000" points="1887.5482,-122 1884.5482,-126 1863.5482,-126 1860.5482,-122 1800.4518,-122 1800.4518,-86 1887.5482,-86 1887.5482,-122"/>
<text text-anchor="middle" x="1844" y="-99.8" font-family="Times,serif" font-size="14.00" fill="#000000">AuthModule</text>
</g>
<!-- AppModule -->
<g id="node14" class="node">
<title>AppModule</title>
<polygon fill="#8dd3c7" stroke="#000000" points="911.6571,-187 908.6571,-191 887.6571,-191 884.6571,-187 828.3429,-187 828.3429,-151 911.6571,-151 911.6571,-187"/>
<text text-anchor="middle" x="870" y="-164.8" font-family="Times,serif" font-size="14.00" fill="#000000">AppModule</text>
</g>
<!-- AuthModule&#45;&gt;AppModule -->
<g id="edge1" class="edge">
<title>AuthModule&#45;&gt;AppModule</title>
<path fill="none" stroke="#000000" d="M1844,-122.0908C1844,-145.1328 1844,-182 1844,-182 1844,-182 921.8516,-182 921.8516,-182"/>
<polygon fill="#000000" stroke="#000000" points="921.8516,-178.5001 911.8516,-182 921.8515,-185.5001 921.8516,-178.5001"/>
</g>
<!-- CompanyModule -->
<g id="node2" class="node">
<title>CompanyModule</title>
<polygon fill="#8dd3c7" stroke="#000000" points="1781.9916,-122 1778.9916,-126 1757.9916,-126 1754.9916,-122 1668.0084,-122 1668.0084,-86 1781.9916,-86 1781.9916,-122"/>
<text text-anchor="middle" x="1725" y="-99.8" font-family="Times,serif" font-size="14.00" fill="#000000">CompanyModule</text>
</g>
<!-- CompanyModule&#45;&gt;AppModule -->
<g id="edge2" class="edge">
<title>CompanyModule&#45;&gt;AppModule</title>
<path fill="none" stroke="#000000" d="M1725,-122.0449C1725,-143.6623 1725,-177 1725,-177 1725,-177 921.8172,-177 921.8172,-177"/>
<polygon fill="#000000" stroke="#000000" points="921.8172,-173.5001 911.8172,-177 921.8172,-180.5001 921.8172,-173.5001"/>
</g>
<!-- GreenScoreModule -->
<g id="node3" class="node">
<title>GreenScoreModule</title>
<polygon fill="#8dd3c7" stroke="#000000" points="1649.6192,-122 1646.6192,-126 1625.6192,-126 1622.6192,-122 1524.3808,-122 1524.3808,-86 1649.6192,-86 1649.6192,-122"/>
<text text-anchor="middle" x="1587" y="-99.8" font-family="Times,serif" font-size="14.00" fill="#000000">GreenScoreModule</text>
</g>
<!-- GreenScoreModule&#45;&gt;AppModule -->
<g id="edge3" class="edge">
<title>GreenScoreModule&#45;&gt;AppModule</title>
<path fill="none" stroke="#000000" d="M1587,-122.2228C1587,-142.3652 1587,-172 1587,-172 1587,-172 921.9111,-172 921.9111,-172"/>
<polygon fill="#000000" stroke="#000000" points="921.9111,-168.5001 911.9111,-172 921.911,-175.5001 921.9111,-168.5001"/>
</g>
<!-- JoinTagPoiModule -->
<g id="node4" class="node">
<title>JoinTagPoiModule</title>
<polygon fill="#8dd3c7" stroke="#000000" points="1506.8258,-122 1503.8258,-126 1482.8258,-126 1479.8258,-122 1383.1742,-122 1383.1742,-86 1506.8258,-86 1506.8258,-122"/>
<text text-anchor="middle" x="1445" y="-99.8" font-family="Times,serif" font-size="14.00" fill="#000000">JoinTagPoiModule</text>
</g>
<!-- JoinTagPoiModule&#45;&gt;AppModule -->
<g id="edge4" class="edge">
<title>JoinTagPoiModule&#45;&gt;AppModule</title>
<path fill="none" stroke="#000000" d="M1445,-122.2222C1445,-140.8285 1445,-167 1445,-167 1445,-167 921.8158,-167 921.8158,-167"/>
<polygon fill="#000000" stroke="#000000" points="921.8158,-163.5001 911.8158,-167 921.8157,-170.5001 921.8158,-163.5001"/>
</g>
<!-- JoinTypePoiModule -->
<g id="node5" class="node">
<title>JoinTypePoiModule</title>
<polygon fill="#8dd3c7" stroke="#000000" points="1365.3258,-122 1362.3258,-126 1341.3258,-126 1338.3258,-122 1234.6742,-122 1234.6742,-86 1365.3258,-86 1365.3258,-122"/>
<text text-anchor="middle" x="1300" y="-99.8" font-family="Times,serif" font-size="14.00" fill="#000000">JoinTypePoiModule</text>
</g>
<!-- JoinTypePoiModule&#45;&gt;AppModule -->
<g id="edge5" class="edge">
<title>JoinTypePoiModule&#45;&gt;AppModule</title>
<path fill="none" stroke="#000000" d="M1300,-122.0336C1300,-139.0597 1300,-162 1300,-162 1300,-162 922.0131,-162 922.0131,-162"/>
<polygon fill="#000000" stroke="#000000" points="922.0132,-158.5001 912.0131,-162 922.0131,-165.5001 922.0132,-158.5001"/>
</g>
<!-- PercentTypeGreenScoreAndPoiModule -->
<g id="node6" class="node">
<title>PercentTypeGreenScoreAndPoiModule</title>
<polygon fill="#8dd3c7" stroke="#000000" points="1216.6432,-122 1213.6432,-126 1192.6432,-126 1189.6432,-122 977.3568,-122 977.3568,-86 1216.6432,-86 1216.6432,-122"/>
<text text-anchor="middle" x="1097" y="-99.8" font-family="Times,serif" font-size="14.00" fill="#000000">PercentTypeGreenScoreAndPoiModule</text>
</g>
<!-- PercentTypeGreenScoreAndPoiModule&#45;&gt;AppModule -->
<g id="edge6" class="edge">
<title>PercentTypeGreenScoreAndPoiModule&#45;&gt;AppModule</title>
<path fill="none" stroke="#000000" d="M1097,-122.2396C1097,-137.5706 1097,-157 1097,-157 1097,-157 921.8998,-157 921.8998,-157"/>
<polygon fill="#000000" stroke="#000000" points="921.8999,-153.5001 911.8998,-157 921.8998,-160.5001 921.8999,-153.5001"/>
</g>
<!-- PoiModule -->
<g id="node7" class="node">
<title>PoiModule</title>
<polygon fill="#8dd3c7" stroke="#000000" points="959.2233,-122 956.2233,-126 935.2233,-126 932.2233,-122 880.7767,-122 880.7767,-86 959.2233,-86 959.2233,-122"/>
<text text-anchor="middle" x="920" y="-99.8" font-family="Times,serif" font-size="14.00" fill="#000000">PoiModule</text>
</g>
<!-- PoiModule&#45;&gt;AppModule -->
<g id="edge7" class="edge">
<title>PoiModule&#45;&gt;AppModule</title>
<path fill="none" stroke="#000000" d="M896.3584,-122.1061C896.3584,-122.1061 896.3584,-140.991 896.3584,-140.991"/>
<polygon fill="#000000" stroke="#000000" points="892.8584,-140.9909 896.3584,-150.991 899.8584,-140.991 892.8584,-140.9909"/>
</g>
<!-- RoleModule -->
<g id="node8" class="node">
<title>RoleModule</title>
<polygon fill="#8dd3c7" stroke="#000000" points="862.9916,-122 859.9916,-126 838.9916,-126 835.9916,-122 777.0084,-122 777.0084,-86 862.9916,-86 862.9916,-122"/>
<text text-anchor="middle" x="820" y="-99.8" font-family="Times,serif" font-size="14.00" fill="#000000">RoleModule</text>
</g>
<!-- RoleModule&#45;&gt;AppModule -->
<g id="edge8" class="edge">
<title>RoleModule&#45;&gt;AppModule</title>
<path fill="none" stroke="#000000" d="M845.5838,-122.1061C845.5838,-122.1061 845.5838,-140.991 845.5838,-140.991"/>
<polygon fill="#000000" stroke="#000000" points="842.0839,-140.9909 845.5838,-150.991 849.0839,-140.991 842.0839,-140.9909"/>
</g>
<!-- TagsModule -->
<g id="node9" class="node">
<title>TagsModule</title>
<polygon fill="#8dd3c7" stroke="#000000" points="759.2619,-122 756.2619,-126 735.2619,-126 732.2619,-122 672.7381,-122 672.7381,-86 759.2619,-86 759.2619,-122"/>
<text text-anchor="middle" x="716" y="-99.8" font-family="Times,serif" font-size="14.00" fill="#000000">TagsModule</text>
</g>
<!-- TagsModule&#45;&gt;AppModule -->
<g id="edge9" class="edge">
<title>TagsModule&#45;&gt;AppModule</title>
<path fill="none" stroke="#000000" d="M716,-122.2396C716,-137.5706 716,-157 716,-157 716,-157 818.3254,-157 818.3254,-157"/>
<polygon fill="#000000" stroke="#000000" points="818.3254,-160.5001 828.3254,-157 818.3253,-153.5001 818.3254,-160.5001"/>
</g>
<!-- TypeGreenScoreModule -->
<g id="node10" class="node">
<title>TypeGreenScoreModule</title>
<polygon fill="#8dd3c7" stroke="#000000" points="654.3863,-122 651.3863,-126 630.3863,-126 627.3863,-122 499.6137,-122 499.6137,-86 654.3863,-86 654.3863,-122"/>
<text text-anchor="middle" x="577" y="-99.8" font-family="Times,serif" font-size="14.00" fill="#000000">TypeGreenScoreModule</text>
</g>
<!-- TypeGreenScoreModule&#45;&gt;AppModule -->
<g id="edge10" class="edge">
<title>TypeGreenScoreModule&#45;&gt;AppModule</title>
<path fill="none" stroke="#000000" d="M577,-122.0336C577,-139.0597 577,-162 577,-162 577,-162 818.3314,-162 818.3314,-162"/>
<polygon fill="#000000" stroke="#000000" points="818.3314,-165.5001 828.3314,-162 818.3314,-158.5001 818.3314,-165.5001"/>
</g>
<!-- TypeModule -->
<g id="node11" class="node">
<title>TypeModule</title>
<polygon fill="#8dd3c7" stroke="#000000" points="482.3176,-122 479.3176,-126 458.3176,-126 455.3176,-122 393.6824,-122 393.6824,-86 482.3176,-86 482.3176,-122"/>
<text text-anchor="middle" x="438" y="-99.8" font-family="Times,serif" font-size="14.00" fill="#000000">TypeModule</text>
</g>
<!-- TypeModule&#45;&gt;AppModule -->
<g id="edge11" class="edge">
<title>TypeModule&#45;&gt;AppModule</title>
<path fill="none" stroke="#000000" d="M438,-122.2222C438,-140.8285 438,-167 438,-167 438,-167 818.1855,-167 818.1855,-167"/>
<polygon fill="#000000" stroke="#000000" points="818.1855,-170.5001 828.1855,-167 818.1855,-163.5001 818.1855,-170.5001"/>
</g>
<!-- UserAppModule -->
<g id="node12" class="node">
<title>UserAppModule</title>
<polygon fill="#8dd3c7" stroke="#000000" points="376.0828,-122 373.0828,-126 352.0828,-126 349.0828,-122 265.9172,-122 265.9172,-86 376.0828,-86 376.0828,-122"/>
<text text-anchor="middle" x="321" y="-99.8" font-family="Times,serif" font-size="14.00" fill="#000000">UserAppModule</text>
</g>
<!-- UserAppModule&#45;&gt;AppModule -->
<g id="edge12" class="edge">
<title>UserAppModule&#45;&gt;AppModule</title>
<path fill="none" stroke="#000000" d="M321,-122.2228C321,-142.3652 321,-172 321,-172 321,-172 818.2852,-172 818.2852,-172"/>
<polygon fill="#000000" stroke="#000000" points="818.2852,-175.5001 828.2852,-172 818.2851,-168.5001 818.2852,-175.5001"/>
</g>
<!-- UserModule -->
<g id="node13" class="node">
<title>UserModule</title>
<polygon fill="#8dd3c7" stroke="#000000" points="247.9762,-122 244.9762,-126 223.9762,-126 220.9762,-122 162.0238,-122 162.0238,-86 247.9762,-86 247.9762,-122"/>
<text text-anchor="middle" x="205" y="-99.8" font-family="Times,serif" font-size="14.00" fill="#000000">UserModule</text>
</g>
<!-- UserModule&#45;&gt;AppModule -->
<g id="edge13" class="edge">
<title>UserModule&#45;&gt;AppModule</title>
<path fill="none" stroke="#000000" d="M205,-122.0449C205,-143.6623 205,-177 205,-177 205,-177 818.1494,-177 818.1494,-177"/>
<polygon fill="#000000" stroke="#000000" points="818.1494,-180.5001 828.1494,-177 818.1493,-173.5001 818.1494,-180.5001"/>
</g>
<!-- AppService -->
<g id="node15" class="node">
<title>AppService</title>
<ellipse fill="#fdb462" stroke="#000000" cx="81" cy="-104" rx="56.7406" ry="18"/>
<text text-anchor="middle" x="81" y="-99.8" font-family="Times,serif" font-size="14.00" fill="#000000">AppService</text>
</g>
<!-- AppService&#45;&gt;AppModule -->
<g id="edge14" class="edge">
<title>AppService&#45;&gt;AppModule</title>
<path fill="none" stroke="#000000" d="M81,-122.0908C81,-145.1328 81,-182 81,-182 81,-182 818.137,-182 818.137,-182"/>
<polygon fill="#000000" stroke="#000000" points="818.137,-185.5001 828.137,-182 818.137,-178.5001 818.137,-185.5001"/>
</g>
</g>
</svg>
