<?xml version="1.0" encoding="UTF-8" standalone="no"?>
<!DOCTYPE svg PUBLIC "-//W3C//DTD SVG 1.1//EN"
 "http://www.w3.org/Graphics/SVG/1.1/DTD/svg11.dtd">
<!-- Generated by graphviz version 2.40.1 (20161225.0304)
 -->
<!-- Title: dependencies Pages: 1 -->
<svg width="3361pt" height="211pt"
 viewBox="0.00 0.00 3361.00 211.00" xmlns="http://www.w3.org/2000/svg" xmlns:xlink="http://www.w3.org/1999/xlink">
<g id="graph0" class="graph" transform="scale(1 1) rotate(0) translate(4 207)">
<title>dependencies</title>
<polygon fill="#ffffff" stroke="transparent" points="-4,4 -4,-207 3357,-207 3357,4 -4,4"/>
<text text-anchor="start" x="1655.5091" y="-42.4" font-family="sans-serif" font-weight="bold" font-size="14.00" fill="#000000">Legend</text>
<polygon fill="#ffffb3" stroke="transparent" points="1442.5,-10 1442.5,-30 1462.5,-30 1462.5,-10 1442.5,-10"/>
<text text-anchor="start" x="1466.129" y="-15.4" font-family="sans-serif" font-size="14.00" fill="#000000"> &#160;Declarations</text>
<polygon fill="#8dd3c7" stroke="transparent" points="1555.5,-10 1555.5,-30 1575.5,-30 1575.5,-10 1555.5,-10"/>
<text text-anchor="start" x="1579.2251" y="-15.4" font-family="sans-serif" font-size="14.00" fill="#000000"> &#160;Module</text>
<polygon fill="#80b1d3" stroke="transparent" points="1641.5,-10 1641.5,-30 1661.5,-30 1661.5,-10 1641.5,-10"/>
<text text-anchor="start" x="1665.2812" y="-15.4" font-family="sans-serif" font-size="14.00" fill="#000000"> &#160;Bootstrap</text>
<polygon fill="#fdb462" stroke="transparent" points="1738.5,-10 1738.5,-30 1758.5,-30 1758.5,-10 1738.5,-10"/>
<text text-anchor="start" x="1762.1732" y="-15.4" font-family="sans-serif" font-size="14.00" fill="#000000"> &#160;Providers</text>
<polygon fill="#fb8072" stroke="transparent" points="1834.5,-10 1834.5,-30 1854.5,-30 1854.5,-10 1834.5,-10"/>
<text text-anchor="start" x="1858.2258" y="-15.4" font-family="sans-serif" font-size="14.00" fill="#000000"> &#160;Exports</text>
<g id="clust1" class="cluster">
<title>cluster_AppModule</title>
<polygon fill="none" stroke="#000000" stroke-dasharray="1,5" points="8,-70 8,-195 3345,-195 3345,-70 8,-70"/>
</g>
<g id="clust3" class="cluster">
<title>cluster_AppModule_imports</title>
<polygon fill="none" stroke="#000000" points="154,-78 154,-130 3337,-130 3337,-78 154,-78"/>
</g>
<g id="clust6" class="cluster">
<title>cluster_AppModule_providers</title>
<polygon fill="none" stroke="#000000" points="16,-78 16,-130 146,-130 146,-78 16,-78"/>
</g>
<!-- AuthModule -->
<g id="node1" class="node">
<title>AuthModule</title>
<polygon fill="#8dd3c7" stroke="#000000" points="3328.5482,-122 3325.5482,-126 3304.5482,-126 3301.5482,-122 3241.4518,-122 3241.4518,-86 3328.5482,-86 3328.5482,-122"/>
<text text-anchor="middle" x="3285" y="-99.8" font-family="Times,serif" font-size="14.00" fill="#000000">AuthModule</text>
</g>
<!-- AppModule -->
<g id="node24" class="node">
<title>AppModule</title>
<polygon fill="#8dd3c7" stroke="#000000" points="1575.6571,-187 1572.6571,-191 1551.6571,-191 1548.6571,-187 1492.3429,-187 1492.3429,-151 1575.6571,-151 1575.6571,-187"/>
<text text-anchor="middle" x="1534" y="-164.8" font-family="Times,serif" font-size="14.00" fill="#000000">AppModule</text>
</g>
<!-- AuthModule&#45;&gt;AppModule -->
<g id="edge1" class="edge">
<title>AuthModule&#45;&gt;AppModule</title>
<path fill="none" stroke="#000000" d="M3285,-122.1532C3285,-145.7566 3285,-184 3285,-184 3285,-184 1585.985,-184 1585.985,-184"/>
<polygon fill="#000000" stroke="#000000" points="1585.9851,-180.5001 1575.985,-184 1585.985,-187.5001 1585.9851,-180.5001"/>
</g>
<!-- ChallengeModule -->
<g id="node2" class="node">
<title>ChallengeModule</title>
<polygon fill="#8dd3c7" stroke="#000000" points="3223.3118,-122 3220.3118,-126 3199.3118,-126 3196.3118,-122 3106.6882,-122 3106.6882,-86 3223.3118,-86 3223.3118,-122"/>
<text text-anchor="middle" x="3165" y="-99.8" font-family="Times,serif" font-size="14.00" fill="#000000">ChallengeModule</text>
</g>
<!-- ChallengeModule&#45;&gt;AppModule -->
<g id="edge2" class="edge">
<title>ChallengeModule&#45;&gt;AppModule</title>
<path fill="none" stroke="#000000" d="M3165,-122.0908C3165,-145.1328 3165,-182 3165,-182 3165,-182 1585.9561,-182 1585.9561,-182"/>
<polygon fill="#000000" stroke="#000000" points="1585.9561,-178.5001 1575.9561,-182 1585.9561,-185.5001 1585.9561,-178.5001"/>
</g>
<!-- CompanyModule -->
<g id="node3" class="node">
<title>CompanyModule</title>
<polygon fill="#8dd3c7" stroke="#000000" points="3088.9916,-122 3085.9916,-126 3064.9916,-126 3061.9916,-122 2975.0084,-122 2975.0084,-86 3088.9916,-86 3088.9916,-122"/>
<text text-anchor="middle" x="3032" y="-99.8" font-family="Times,serif" font-size="14.00" fill="#000000">CompanyModule</text>
</g>
<!-- CompanyModule&#45;&gt;AppModule -->
<g id="edge3" class="edge">
<title>CompanyModule&#45;&gt;AppModule</title>
<path fill="none" stroke="#000000" d="M3032,-122.2921C3032,-144.2057 3032,-178 3032,-178 3032,-178 1586.023,-178 1586.023,-178"/>
<polygon fill="#000000" stroke="#000000" points="1586.0231,-174.5001 1576.023,-178 1586.023,-181.5001 1586.0231,-174.5001"/>
</g>
<!-- GreenScoreModule -->
<g id="node4" class="node">
<title>GreenScoreModule</title>
<polygon fill="#8dd3c7" stroke="#000000" points="2956.6192,-122 2953.6192,-126 2932.6192,-126 2929.6192,-122 2831.3808,-122 2831.3808,-86 2956.6192,-86 2956.6192,-122"/>
<text text-anchor="middle" x="2894" y="-99.8" font-family="Times,serif" font-size="14.00" fill="#000000">GreenScoreModule</text>
</g>
<!-- GreenScoreModule&#45;&gt;AppModule -->
<g id="edge4" class="edge">
<title>GreenScoreModule&#45;&gt;AppModule</title>
<path fill="none" stroke="#000000" d="M2894,-122.2843C2894,-143.3211 2894,-175 2894,-175 2894,-175 1585.8183,-175 1585.8183,-175"/>
<polygon fill="#000000" stroke="#000000" points="1585.8183,-171.5001 1575.8183,-175 1585.8182,-178.5001 1585.8183,-171.5001"/>
</g>
<!-- ImgPoiModule -->
<g id="node5" class="node">
<title>ImgPoiModule</title>
<polygon fill="#8dd3c7" stroke="#000000" points="2813.2745,-122 2810.2745,-126 2789.2745,-126 2786.2745,-122 2712.7255,-122 2712.7255,-86 2813.2745,-86 2813.2745,-122"/>
<text text-anchor="middle" x="2763" y="-99.8" font-family="Times,serif" font-size="14.00" fill="#000000">ImgPoiModule</text>
</g>
<!-- ImgPoiModule&#45;&gt;AppModule -->
<g id="edge5" class="edge">
<title>ImgPoiModule&#45;&gt;AppModule</title>
<path fill="none" stroke="#000000" d="M2763,-122.2228C2763,-142.3652 2763,-172 2763,-172 2763,-172 1585.9494,-172 1585.9494,-172"/>
<polygon fill="#000000" stroke="#000000" points="1585.9495,-168.5001 1575.9494,-172 1585.9494,-175.5001 1585.9495,-168.5001"/>
</g>
<!-- JoinTagPoiModule -->
<g id="node6" class="node">
<title>JoinTagPoiModule</title>
<polygon fill="#8dd3c7" stroke="#000000" points="2694.8258,-122 2691.8258,-126 2670.8258,-126 2667.8258,-122 2571.1742,-122 2571.1742,-86 2694.8258,-86 2694.8258,-122"/>
<text text-anchor="middle" x="2633" y="-99.8" font-family="Times,serif" font-size="14.00" fill="#000000">JoinTagPoiModule</text>
</g>
<!-- JoinTagPoiModule&#45;&gt;AppModule -->
<g id="edge6" class="edge">
<title>JoinTagPoiModule&#45;&gt;AppModule</title>
<path fill="none" stroke="#000000" d="M2633,-122.1061C2633,-141.3391 2633,-169 2633,-169 2633,-169 1585.7401,-169 1585.7401,-169"/>
<polygon fill="#000000" stroke="#000000" points="1585.7401,-165.5001 1575.7401,-169 1585.7401,-172.5001 1585.7401,-165.5001"/>
</g>
<!-- JoinUserChallengeModule -->
<g id="node7" class="node">
<title>JoinUserChallengeModule</title>
<polygon fill="#8dd3c7" stroke="#000000" points="2553.073,-122 2550.073,-126 2529.073,-126 2526.073,-122 2386.927,-122 2386.927,-86 2553.073,-86 2553.073,-122"/>
<text text-anchor="middle" x="2470" y="-99.8" font-family="Times,serif" font-size="14.00" fill="#000000">JoinUserChallengeModule</text>
</g>
<!-- JoinUserChallengeModule&#45;&gt;AppModule -->
<g id="edge7" class="edge">
<title>JoinUserChallengeModule&#45;&gt;AppModule</title>
<path fill="none" stroke="#000000" d="M2470,-122.2222C2470,-140.8285 2470,-167 2470,-167 2470,-167 1585.7309,-167 1585.7309,-167"/>
<polygon fill="#000000" stroke="#000000" points="1585.7309,-163.5001 1575.7309,-167 1585.7309,-170.5001 1585.7309,-163.5001"/>
</g>
<!-- JoinUserPoiModule -->
<g id="node8" class="node">
<title>JoinUserPoiModule</title>
<polygon fill="#8dd3c7" stroke="#000000" points="2368.9846,-122 2365.9846,-126 2344.9846,-126 2341.9846,-122 2241.0154,-122 2241.0154,-86 2368.9846,-86 2368.9846,-122"/>
<text text-anchor="middle" x="2305" y="-99.8" font-family="Times,serif" font-size="14.00" fill="#000000">JoinUserPoiModule</text>
</g>
<!-- JoinUserPoiModule&#45;&gt;AppModule -->
<g id="edge8" class="edge">
<title>JoinUserPoiModule&#45;&gt;AppModule</title>
<path fill="none" stroke="#000000" d="M2305,-122.0225C2305,-139.3734 2305,-163 2305,-163 2305,-163 1585.7257,-163 1585.7257,-163"/>
<polygon fill="#000000" stroke="#000000" points="1585.7257,-159.5001 1575.7257,-163 1585.7256,-166.5001 1585.7257,-159.5001"/>
</g>
<!-- JoinUserQuizzModule -->
<g id="node9" class="node">
<title>JoinUserQuizzModule</title>
<polygon fill="#8dd3c7" stroke="#000000" points="2223.238,-122 2220.238,-126 2199.238,-126 2196.238,-122 2080.762,-122 2080.762,-86 2223.238,-86 2223.238,-122"/>
<text text-anchor="middle" x="2152" y="-99.8" font-family="Times,serif" font-size="14.00" fill="#000000">JoinUserQuizzModule</text>
</g>
<!-- JoinUserQuizzModule&#45;&gt;AppModule -->
<g id="edge9" class="edge">
<title>JoinUserQuizzModule&#45;&gt;AppModule</title>
<path fill="none" stroke="#000000" d="M2152,-122.027C2152,-138.3976 2152,-160 2152,-160 2152,-160 1585.9918,-160 1585.9918,-160"/>
<polygon fill="#000000" stroke="#000000" points="1585.9918,-156.5001 1575.9918,-160 1585.9918,-163.5001 1585.9918,-156.5001"/>
</g>
<!-- JoinUserThemeQuizzModule -->
<g id="node10" class="node">
<title>JoinUserThemeQuizzModule</title>
<polygon fill="#8dd3c7" stroke="#000000" points="2062.6106,-122 2059.6106,-126 2038.6106,-126 2035.6106,-122 1881.3894,-122 1881.3894,-86 2062.6106,-86 2062.6106,-122"/>
<text text-anchor="middle" x="1972" y="-99.8" font-family="Times,serif" font-size="14.00" fill="#000000">JoinUserThemeQuizzModule</text>
</g>
<!-- JoinUserThemeQuizzModule&#45;&gt;AppModule -->
<g id="edge10" class="edge">
<title>JoinUserThemeQuizzModule&#45;&gt;AppModule</title>
<path fill="none" stroke="#000000" d="M1972,-122.2396C1972,-137.5706 1972,-157 1972,-157 1972,-157 1585.9973,-157 1585.9973,-157"/>
<polygon fill="#000000" stroke="#000000" points="1585.9973,-153.5001 1575.9973,-157 1585.9972,-160.5001 1585.9973,-153.5001"/>
</g>
<!-- KnowItModule -->
<g id="node11" class="node">
<title>KnowItModule</title>
<polygon fill="#8dd3c7" stroke="#000000" points="1863.3147,-122 1860.3147,-126 1839.3147,-126 1836.3147,-122 1760.6853,-122 1760.6853,-86 1863.3147,-86 1863.3147,-122"/>
<text text-anchor="middle" x="1812" y="-99.8" font-family="Times,serif" font-size="14.00" fill="#000000">KnowItModule</text>
</g>
<!-- KnowItModule&#45;&gt;AppModule -->
<g id="edge11" class="edge">
<title>KnowItModule&#45;&gt;AppModule</title>
<path fill="none" stroke="#000000" d="M1812,-122.0511C1812,-136.373 1812,-154 1812,-154 1812,-154 1585.9204,-154 1585.9204,-154"/>
<polygon fill="#000000" stroke="#000000" points="1585.9204,-150.5001 1575.9204,-154 1585.9204,-157.5001 1585.9204,-150.5001"/>
</g>
<!-- PercentTypeGreenScoreAndPoiModule -->
<g id="node12" class="node">
<title>PercentTypeGreenScoreAndPoiModule</title>
<polygon fill="#8dd3c7" stroke="#000000" points="1742.6432,-122 1739.6432,-126 1718.6432,-126 1715.6432,-122 1503.3568,-122 1503.3568,-86 1742.6432,-86 1742.6432,-122"/>
<text text-anchor="middle" x="1623" y="-99.8" font-family="Times,serif" font-size="14.00" fill="#000000">PercentTypeGreenScoreAndPoiModule</text>
</g>
<!-- PercentTypeGreenScoreAndPoiModule&#45;&gt;AppModule -->
<g id="edge12" class="edge">
<title>PercentTypeGreenScoreAndPoiModule&#45;&gt;AppModule</title>
<path fill="none" stroke="#000000" d="M1539.6283,-122.1061C1539.6283,-122.1061 1539.6283,-140.991 1539.6283,-140.991"/>
<polygon fill="#000000" stroke="#000000" points="1536.1284,-140.9909 1539.6283,-150.991 1543.1284,-140.991 1536.1284,-140.9909"/>
</g>
<!-- PoiModule -->
<g id="node13" class="node">
<title>PoiModule</title>
<polygon fill="#8dd3c7" stroke="#000000" points="1485.2233,-122 1482.2233,-126 1461.2233,-126 1458.2233,-122 1406.7767,-122 1406.7767,-86 1485.2233,-86 1485.2233,-122"/>
<text text-anchor="middle" x="1446" y="-99.8" font-family="Times,serif" font-size="14.00" fill="#000000">PoiModule</text>
</g>
<!-- PoiModule&#45;&gt;AppModule -->
<g id="edge13" class="edge">
<title>PoiModule&#45;&gt;AppModule</title>
<path fill="none" stroke="#000000" d="M1485.2607,-104C1492.4854,-104 1497.8001,-104 1497.8001,-104 1497.8001,-104 1497.8001,-140.8939 1497.8001,-140.8939"/>
<polygon fill="#000000" stroke="#000000" points="1494.3002,-140.8938 1497.8001,-150.8939 1501.3002,-140.8939 1494.3002,-140.8938"/>
</g>
<!-- QuestionQuizzModule -->
<g id="node14" class="node">
<title>QuestionQuizzModule</title>
<polygon fill="#8dd3c7" stroke="#000000" points="1388.524,-122 1385.524,-126 1364.524,-126 1361.524,-122 1245.476,-122 1245.476,-86 1388.524,-86 1388.524,-122"/>
<text text-anchor="middle" x="1317" y="-99.8" font-family="Times,serif" font-size="14.00" fill="#000000">QuestionQuizzModule</text>
</g>
<!-- QuestionQuizzModule&#45;&gt;AppModule -->
<g id="edge14" class="edge">
<title>QuestionQuizzModule&#45;&gt;AppModule</title>
<path fill="none" stroke="#000000" d="M1317,-122.0511C1317,-136.373 1317,-154 1317,-154 1317,-154 1482.1602,-154 1482.1602,-154"/>
<polygon fill="#000000" stroke="#000000" points="1482.1603,-157.5001 1492.1602,-154 1482.1602,-150.5001 1482.1603,-157.5001"/>
</g>
<!-- QuizzModule -->
<g id="node15" class="node">
<title>QuizzModule</title>
<polygon fill="#8dd3c7" stroke="#000000" points="1227.4762,-122 1224.4762,-126 1203.4762,-126 1200.4762,-122 1134.5238,-122 1134.5238,-86 1227.4762,-86 1227.4762,-122"/>
<text text-anchor="middle" x="1181" y="-99.8" font-family="Times,serif" font-size="14.00" fill="#000000">QuizzModule</text>
</g>
<!-- QuizzModule&#45;&gt;AppModule -->
<g id="edge15" class="edge">
<title>QuizzModule&#45;&gt;AppModule</title>
<path fill="none" stroke="#000000" d="M1181,-122.2396C1181,-137.5706 1181,-157 1181,-157 1181,-157 1482.1201,-157 1482.1201,-157"/>
<polygon fill="#000000" stroke="#000000" points="1482.1201,-160.5001 1492.1201,-157 1482.12,-153.5001 1482.1201,-160.5001"/>
</g>
<!-- RoleModule -->
<g id="node16" class="node">
<title>RoleModule</title>
<polygon fill="#8dd3c7" stroke="#000000" points="1116.9916,-122 1113.9916,-126 1092.9916,-126 1089.9916,-122 1031.0084,-122 1031.0084,-86 1116.9916,-86 1116.9916,-122"/>
<text text-anchor="middle" x="1074" y="-99.8" font-family="Times,serif" font-size="14.00" fill="#000000">RoleModule</text>
</g>
<!-- RoleModule&#45;&gt;AppModule -->
<g id="edge16" class="edge">
<title>RoleModule&#45;&gt;AppModule</title>
<path fill="none" stroke="#000000" d="M1074,-122.027C1074,-138.3976 1074,-160 1074,-160 1074,-160 1481.9586,-160 1481.9586,-160"/>
<polygon fill="#000000" stroke="#000000" points="1481.9587,-163.5001 1491.9586,-160 1481.9586,-156.5001 1481.9587,-163.5001"/>
</g>
<!-- StatsModule -->
<g id="node17" class="node">
<title>StatsModule</title>
<polygon fill="#8dd3c7" stroke="#000000" points="1013.2731,-122 1010.2731,-126 989.2731,-126 986.2731,-122 926.7269,-122 926.7269,-86 1013.2731,-86 1013.2731,-122"/>
<text text-anchor="middle" x="970" y="-99.8" font-family="Times,serif" font-size="14.00" fill="#000000">StatsModule</text>
</g>
<!-- StatsModule&#45;&gt;AppModule -->
<g id="edge17" class="edge">
<title>StatsModule&#45;&gt;AppModule</title>
<path fill="none" stroke="#000000" d="M970,-122.0225C970,-139.3734 970,-163 970,-163 970,-163 1482.0691,-163 1482.0691,-163"/>
<polygon fill="#000000" stroke="#000000" points="1482.0691,-166.5001 1492.0691,-163 1482.0691,-159.5001 1482.0691,-166.5001"/>
</g>
<!-- TagsModule -->
<g id="node18" class="node">
<title>TagsModule</title>
<polygon fill="#8dd3c7" stroke="#000000" points="908.2619,-122 905.2619,-126 884.2619,-126 881.2619,-122 821.7381,-122 821.7381,-86 908.2619,-86 908.2619,-122"/>
<text text-anchor="middle" x="865" y="-99.8" font-family="Times,serif" font-size="14.00" fill="#000000">TagsModule</text>
</g>
<!-- TagsModule&#45;&gt;AppModule -->
<g id="edge18" class="edge">
<title>TagsModule&#45;&gt;AppModule</title>
<path fill="none" stroke="#000000" d="M865,-122.2222C865,-140.8285 865,-167 865,-167 865,-167 1482.1511,-167 1482.1511,-167"/>
<polygon fill="#000000" stroke="#000000" points="1482.1511,-170.5001 1492.1511,-167 1482.151,-163.5001 1482.1511,-170.5001"/>
</g>
<!-- ThemeQuizzModule -->
<g id="node19" class="node">
<title>ThemeQuizzModule</title>
<polygon fill="#8dd3c7" stroke="#000000" points="803.8487,-122 800.8487,-126 779.8487,-126 776.8487,-122 672.1513,-122 672.1513,-86 803.8487,-86 803.8487,-122"/>
<text text-anchor="middle" x="738" y="-99.8" font-family="Times,serif" font-size="14.00" fill="#000000">ThemeQuizzModule</text>
</g>
<!-- ThemeQuizzModule&#45;&gt;AppModule -->
<g id="edge19" class="edge">
<title>ThemeQuizzModule&#45;&gt;AppModule</title>
<path fill="none" stroke="#000000" d="M738,-122.1061C738,-141.3391 738,-169 738,-169 738,-169 1482.3243,-169 1482.3243,-169"/>
<polygon fill="#000000" stroke="#000000" points="1482.3244,-172.5001 1492.3243,-169 1482.3243,-165.5001 1482.3244,-172.5001"/>
</g>
<!-- TypeGreenScoreModule -->
<g id="node20" class="node">
<title>TypeGreenScoreModule</title>
<polygon fill="#8dd3c7" stroke="#000000" points="654.3863,-122 651.3863,-126 630.3863,-126 627.3863,-122 499.6137,-122 499.6137,-86 654.3863,-86 654.3863,-122"/>
<text text-anchor="middle" x="577" y="-99.8" font-family="Times,serif" font-size="14.00" fill="#000000">TypeGreenScoreModule</text>
</g>
<!-- TypeGreenScoreModule&#45;&gt;AppModule -->
<g id="edge20" class="edge">
<title>TypeGreenScoreModule&#45;&gt;AppModule</title>
<path fill="none" stroke="#000000" d="M577,-122.2228C577,-142.3652 577,-172 577,-172 577,-172 1482.2635,-172 1482.2635,-172"/>
<polygon fill="#000000" stroke="#000000" points="1482.2636,-175.5001 1492.2635,-172 1482.2635,-168.5001 1482.2636,-175.5001"/>
</g>
<!-- TypeModule -->
<g id="node21" class="node">
<title>TypeModule</title>
<polygon fill="#8dd3c7" stroke="#000000" points="482.3176,-122 479.3176,-126 458.3176,-126 455.3176,-122 393.6824,-122 393.6824,-86 482.3176,-86 482.3176,-122"/>
<text text-anchor="middle" x="438" y="-99.8" font-family="Times,serif" font-size="14.00" fill="#000000">TypeModule</text>
</g>
<!-- TypeModule&#45;&gt;AppModule -->
<g id="edge21" class="edge">
<title>TypeModule&#45;&gt;AppModule</title>
<path fill="none" stroke="#000000" d="M438,-122.2843C438,-143.3211 438,-175 438,-175 438,-175 1482.041,-175 1482.041,-175"/>
<polygon fill="#000000" stroke="#000000" points="1482.0411,-178.5001 1492.041,-175 1482.041,-171.5001 1482.0411,-178.5001"/>
</g>
<!-- UserAppModule -->
<g id="node22" class="node">
<title>UserAppModule</title>
<polygon fill="#8dd3c7" stroke="#000000" points="376.0828,-122 373.0828,-126 352.0828,-126 349.0828,-122 265.9172,-122 265.9172,-86 376.0828,-86 376.0828,-122"/>
<text text-anchor="middle" x="321" y="-99.8" font-family="Times,serif" font-size="14.00" fill="#000000">UserAppModule</text>
</g>
<!-- UserAppModule&#45;&gt;AppModule -->
<g id="edge22" class="edge">
<title>UserAppModule&#45;&gt;AppModule</title>
<path fill="none" stroke="#000000" d="M321,-122.2921C321,-144.2057 321,-178 321,-178 321,-178 1482.2458,-178 1482.2458,-178"/>
<polygon fill="#000000" stroke="#000000" points="1482.2458,-181.5001 1492.2458,-178 1482.2458,-174.5001 1482.2458,-181.5001"/>
</g>
<!-- UserModule -->
<g id="node23" class="node">
<title>UserModule</title>
<polygon fill="#8dd3c7" stroke="#000000" points="247.9762,-122 244.9762,-126 223.9762,-126 220.9762,-122 162.0238,-122 162.0238,-86 247.9762,-86 247.9762,-122"/>
<text text-anchor="middle" x="205" y="-99.8" font-family="Times,serif" font-size="14.00" fill="#000000">UserModule</text>
</g>
<!-- UserModule&#45;&gt;AppModule -->
<g id="edge23" class="edge">
<title>UserModule&#45;&gt;AppModule</title>
<path fill="none" stroke="#000000" d="M205,-122.0908C205,-145.1328 205,-182 205,-182 205,-182 1482.0307,-182 1482.0307,-182"/>
<polygon fill="#000000" stroke="#000000" points="1482.0307,-185.5001 1492.0307,-182 1482.0306,-178.5001 1482.0307,-185.5001"/>
</g>
<!-- AppService -->
<g id="node25" class="node">
<title>AppService</title>
<ellipse fill="#fdb462" stroke="#000000" cx="81" cy="-104" rx="56.7406" ry="18"/>
<text text-anchor="middle" x="81" y="-99.8" font-family="Times,serif" font-size="14.00" fill="#000000">AppService</text>
</g>
<!-- AppService&#45;&gt;AppModule -->
<g id="edge24" class="edge">
<title>AppService&#45;&gt;AppModule</title>
<path fill="none" stroke="#000000" d="M81,-122.1532C81,-145.7566 81,-184 81,-184 81,-184 1482.0815,-184 1482.0815,-184"/>
<polygon fill="#000000" stroke="#000000" points="1482.0816,-187.5001 1492.0815,-184 1482.0815,-180.5001 1482.0816,-187.5001"/>
</g>
</g>
</svg>
