<?xml version="1.0" encoding="UTF-8" standalone="no"?>
<!DOCTYPE svg PUBLIC "-//W3C//DTD SVG 1.1//EN"
 "http://www.w3.org/Graphics/SVG/1.1/DTD/svg11.dtd">
<!-- Generated by graphviz version 2.40.1 (20161225.0304)
 -->
<!-- Title: dependencies Pages: 1 -->
<svg width="1876pt" height="211pt"
 viewBox="0.00 0.00 1876.00 211.00" xmlns="http://www.w3.org/2000/svg" xmlns:xlink="http://www.w3.org/1999/xlink">
<g id="graph0" class="graph" transform="scale(1 1) rotate(0) translate(4 207)">
<title>dependencies</title>
<polygon fill="#ffffff" stroke="transparent" points="-4,4 -4,-207 1872,-207 1872,4 -4,4"/>
<text text-anchor="start" x="913.0091" y="-42.4" font-family="sans-serif" font-weight="bold" font-size="14.00" fill="#000000">Legend</text>
<polygon fill="#ffffb3" stroke="transparent" points="700,-10 700,-30 720,-30 720,-10 700,-10"/>
<text text-anchor="start" x="723.629" y="-15.4" font-family="sans-serif" font-size="14.00" fill="#000000"> &#160;Declarations</text>
<polygon fill="#8dd3c7" stroke="transparent" points="813,-10 813,-30 833,-30 833,-10 813,-10"/>
<text text-anchor="start" x="836.7251" y="-15.4" font-family="sans-serif" font-size="14.00" fill="#000000"> &#160;Module</text>
<polygon fill="#80b1d3" stroke="transparent" points="899,-10 899,-30 919,-30 919,-10 899,-10"/>
<text text-anchor="start" x="922.7812" y="-15.4" font-family="sans-serif" font-size="14.00" fill="#000000"> &#160;Bootstrap</text>
<polygon fill="#fdb462" stroke="transparent" points="996,-10 996,-30 1016,-30 1016,-10 996,-10"/>
<text text-anchor="start" x="1019.6732" y="-15.4" font-family="sans-serif" font-size="14.00" fill="#000000"> &#160;Providers</text>
<polygon fill="#fb8072" stroke="transparent" points="1092,-10 1092,-30 1112,-30 1112,-10 1092,-10"/>
<text text-anchor="start" x="1115.7258" y="-15.4" font-family="sans-serif" font-size="14.00" fill="#000000"> &#160;Exports</text>
<g id="clust1" class="cluster">
<title>cluster_AppModule</title>
<polygon fill="none" stroke="#000000" stroke-dasharray="1,5" points="8,-70 8,-195 1860,-195 1860,-70 8,-70"/>
</g>
<g id="clust3" class="cluster">
<title>cluster_AppModule_imports</title>
<polygon fill="none" stroke="#000000" points="154,-78 154,-130 1852,-130 1852,-78 154,-78"/>
</g>
<g id="clust6" class="cluster">
<title>cluster_AppModule_providers</title>
<polygon fill="none" stroke="#000000" points="16,-78 16,-130 146,-130 146,-78 16,-78"/>
</g>
<!-- AuthModule -->
<g id="node1" class="node">
<title>AuthModule</title>
<polygon fill="#8dd3c7" stroke="#000000" points="1843.5482,-122 1840.5482,-126 1819.5482,-126 1816.5482,-122 1756.4518,-122 1756.4518,-86 1843.5482,-86 1843.5482,-122"/>
<text text-anchor="middle" x="1800" y="-99.8" font-family="Times,serif" font-size="14.00" fill="#000000">AuthModule</text>
</g>
<!-- AppModule -->
<g id="node14" class="node">
<title>AppModule</title>
<polygon fill="#8dd3c7" stroke="#000000" points="914.6571,-187 911.6571,-191 890.6571,-191 887.6571,-187 831.3429,-187 831.3429,-151 914.6571,-151 914.6571,-187"/>
<text text-anchor="middle" x="873" y="-164.8" font-family="Times,serif" font-size="14.00" fill="#000000">AppModule</text>
</g>
<!-- AuthModule&#45;&gt;AppModule -->
<g id="edge1" class="edge">
<title>AuthModule&#45;&gt;AppModule</title>
<path fill="none" stroke="#000000" d="M1800,-122.0908C1800,-145.1328 1800,-182 1800,-182 1800,-182 924.9356,-182 924.9356,-182"/>
<polygon fill="#000000" stroke="#000000" points="924.9357,-178.5001 914.9356,-182 924.9356,-185.5001 924.9357,-178.5001"/>
</g>
<!-- CompanyModule -->
<g id="node2" class="node">
<title>CompanyModule</title>
<polygon fill="#8dd3c7" stroke="#000000" points="1737.9916,-122 1734.9916,-126 1713.9916,-126 1710.9916,-122 1624.0084,-122 1624.0084,-86 1737.9916,-86 1737.9916,-122"/>
<text text-anchor="middle" x="1681" y="-99.8" font-family="Times,serif" font-size="14.00" fill="#000000">CompanyModule</text>
</g>
<!-- CompanyModule&#45;&gt;AppModule -->
<g id="edge2" class="edge">
<title>CompanyModule&#45;&gt;AppModule</title>
<path fill="none" stroke="#000000" d="M1681,-122.0449C1681,-143.6623 1681,-177 1681,-177 1681,-177 924.7401,-177 924.7401,-177"/>
<polygon fill="#000000" stroke="#000000" points="924.7402,-173.5001 914.7401,-177 924.7401,-180.5001 924.7402,-173.5001"/>
</g>
<!-- GreenScoreModule -->
<g id="node3" class="node">
<title>GreenScoreModule</title>
<polygon fill="#8dd3c7" stroke="#000000" points="1605.6192,-122 1602.6192,-126 1581.6192,-126 1578.6192,-122 1480.3808,-122 1480.3808,-86 1605.6192,-86 1605.6192,-122"/>
<text text-anchor="middle" x="1543" y="-99.8" font-family="Times,serif" font-size="14.00" fill="#000000">GreenScoreModule</text>
</g>
<!-- GreenScoreModule&#45;&gt;AppModule -->
<g id="edge3" class="edge">
<title>GreenScoreModule&#45;&gt;AppModule</title>
<path fill="none" stroke="#000000" d="M1543,-122.2228C1543,-142.3652 1543,-172 1543,-172 1543,-172 924.6584,-172 924.6584,-172"/>
<polygon fill="#000000" stroke="#000000" points="924.6584,-168.5001 914.6584,-172 924.6583,-175.5001 924.6584,-168.5001"/>
</g>
<!-- JoinTagPoiModule -->
<g id="node4" class="node">
<title>JoinTagPoiModule</title>
<polygon fill="#8dd3c7" stroke="#000000" points="1462.8258,-122 1459.8258,-126 1438.8258,-126 1435.8258,-122 1339.1742,-122 1339.1742,-86 1462.8258,-86 1462.8258,-122"/>
<text text-anchor="middle" x="1401" y="-99.8" font-family="Times,serif" font-size="14.00" fill="#000000">JoinTagPoiModule</text>
</g>
<!-- JoinTagPoiModule&#45;&gt;AppModule -->
<g id="edge4" class="edge">
<title>JoinTagPoiModule&#45;&gt;AppModule</title>
<path fill="none" stroke="#000000" d="M1401,-122.2222C1401,-140.8285 1401,-167 1401,-167 1401,-167 924.8726,-167 924.8726,-167"/>
<polygon fill="#000000" stroke="#000000" points="924.8726,-163.5001 914.8726,-167 924.8726,-170.5001 924.8726,-163.5001"/>
</g>
<!-- PercentTypeGreenScoreAndPoiModule -->
<g id="node5" class="node">
<title>PercentTypeGreenScoreAndPoiModule</title>
<polygon fill="#8dd3c7" stroke="#000000" points="1321.6432,-122 1318.6432,-126 1297.6432,-126 1294.6432,-122 1082.3568,-122 1082.3568,-86 1321.6432,-86 1321.6432,-122"/>
<text text-anchor="middle" x="1202" y="-99.8" font-family="Times,serif" font-size="14.00" fill="#000000">PercentTypeGreenScoreAndPoiModule</text>
</g>
<!-- PercentTypeGreenScoreAndPoiModule&#45;&gt;AppModule -->
<g id="edge5" class="edge">
<title>PercentTypeGreenScoreAndPoiModule&#45;&gt;AppModule</title>
<path fill="none" stroke="#000000" d="M1202,-122.0336C1202,-139.0597 1202,-162 1202,-162 1202,-162 924.6681,-162 924.6681,-162"/>
<polygon fill="#000000" stroke="#000000" points="924.6681,-158.5001 914.6681,-162 924.668,-165.5001 924.6681,-158.5001"/>
</g>
<!-- PoiModule -->
<g id="node6" class="node">
<title>PoiModule</title>
<polygon fill="#8dd3c7" stroke="#000000" points="1064.2233,-122 1061.2233,-126 1040.2233,-126 1037.2233,-122 985.7767,-122 985.7767,-86 1064.2233,-86 1064.2233,-122"/>
<text text-anchor="middle" x="1025" y="-99.8" font-family="Times,serif" font-size="14.00" fill="#000000">PoiModule</text>
</g>
<!-- PoiModule&#45;&gt;AppModule -->
<g id="edge6" class="edge">
<title>PoiModule&#45;&gt;AppModule</title>
<path fill="none" stroke="#000000" d="M1025,-122.2396C1025,-137.5706 1025,-157 1025,-157 1025,-157 924.937,-157 924.937,-157"/>
<polygon fill="#000000" stroke="#000000" points="924.9371,-153.5001 914.937,-157 924.937,-160.5001 924.9371,-153.5001"/>
</g>
<!-- RoleModule -->
<g id="node7" class="node">
<title>RoleModule</title>
<polygon fill="#8dd3c7" stroke="#000000" points="967.9916,-122 964.9916,-126 943.9916,-126 940.9916,-122 882.0084,-122 882.0084,-86 967.9916,-86 967.9916,-122"/>
<text text-anchor="middle" x="925" y="-99.8" font-family="Times,serif" font-size="14.00" fill="#000000">RoleModule</text>
</g>
<!-- RoleModule&#45;&gt;AppModule -->
<g id="edge7" class="edge">
<title>RoleModule&#45;&gt;AppModule</title>
<path fill="none" stroke="#000000" d="M898.4162,-122.1061C898.4162,-122.1061 898.4162,-140.991 898.4162,-140.991"/>
<polygon fill="#000000" stroke="#000000" points="894.9163,-140.9909 898.4162,-150.991 901.9163,-140.991 894.9163,-140.9909"/>
</g>
<!-- StatsModule -->
<g id="node8" class="node">
<title>StatsModule</title>
<polygon fill="#8dd3c7" stroke="#000000" points="864.2731,-122 861.2731,-126 840.2731,-126 837.2731,-122 777.7269,-122 777.7269,-86 864.2731,-86 864.2731,-122"/>
<text text-anchor="middle" x="821" y="-99.8" font-family="Times,serif" font-size="14.00" fill="#000000">StatsModule</text>
</g>
<!-- StatsModule&#45;&gt;AppModule -->
<g id="edge8" class="edge">
<title>StatsModule&#45;&gt;AppModule</title>
<path fill="none" stroke="#000000" d="M847.7791,-122.1061C847.7791,-122.1061 847.7791,-140.991 847.7791,-140.991"/>
<polygon fill="#000000" stroke="#000000" points="844.2792,-140.9909 847.7791,-150.991 851.2792,-140.991 844.2792,-140.9909"/>
</g>
<!-- TagsModule -->
<g id="node9" class="node">
<title>TagsModule</title>
<polygon fill="#8dd3c7" stroke="#000000" points="759.2619,-122 756.2619,-126 735.2619,-126 732.2619,-122 672.7381,-122 672.7381,-86 759.2619,-86 759.2619,-122"/>
<text text-anchor="middle" x="716" y="-99.8" font-family="Times,serif" font-size="14.00" fill="#000000">TagsModule</text>
</g>
<!-- TagsModule&#45;&gt;AppModule -->
<g id="edge9" class="edge">
<title>TagsModule&#45;&gt;AppModule</title>
<path fill="none" stroke="#000000" d="M716,-122.2396C716,-137.5706 716,-157 716,-157 716,-157 821.3391,-157 821.3391,-157"/>
<polygon fill="#000000" stroke="#000000" points="821.3391,-160.5001 831.3391,-157 821.339,-153.5001 821.3391,-160.5001"/>
</g>
<!-- TypeGreenScoreModule -->
<g id="node10" class="node">
<title>TypeGreenScoreModule</title>
<polygon fill="#8dd3c7" stroke="#000000" points="654.3863,-122 651.3863,-126 630.3863,-126 627.3863,-122 499.6137,-122 499.6137,-86 654.3863,-86 654.3863,-122"/>
<text text-anchor="middle" x="577" y="-99.8" font-family="Times,serif" font-size="14.00" fill="#000000">TypeGreenScoreModule</text>
</g>
<!-- TypeGreenScoreModule&#45;&gt;AppModule -->
<g id="edge10" class="edge">
<title>TypeGreenScoreModule&#45;&gt;AppModule</title>
<path fill="none" stroke="#000000" d="M577,-122.0336C577,-139.0597 577,-162 577,-162 577,-162 821.2182,-162 821.2182,-162"/>
<polygon fill="#000000" stroke="#000000" points="821.2183,-165.5001 831.2182,-162 821.2182,-158.5001 821.2183,-165.5001"/>
</g>
<!-- TypeModule -->
<g id="node11" class="node">
<title>TypeModule</title>
<polygon fill="#8dd3c7" stroke="#000000" points="482.3176,-122 479.3176,-126 458.3176,-126 455.3176,-122 393.6824,-122 393.6824,-86 482.3176,-86 482.3176,-122"/>
<text text-anchor="middle" x="438" y="-99.8" font-family="Times,serif" font-size="14.00" fill="#000000">TypeModule</text>
</g>
<!-- TypeModule&#45;&gt;AppModule -->
<g id="edge11" class="edge">
<title>TypeModule&#45;&gt;AppModule</title>
<path fill="none" stroke="#000000" d="M438,-122.2222C438,-140.8285 438,-167 438,-167 438,-167 821.2904,-167 821.2904,-167"/>
<polygon fill="#000000" stroke="#000000" points="821.2904,-170.5001 831.2904,-167 821.2903,-163.5001 821.2904,-170.5001"/>
</g>
<!-- UserAppModule -->
<g id="node12" class="node">
<title>UserAppModule</title>
<polygon fill="#8dd3c7" stroke="#000000" points="376.0828,-122 373.0828,-126 352.0828,-126 349.0828,-122 265.9172,-122 265.9172,-86 376.0828,-86 376.0828,-122"/>
<text text-anchor="middle" x="321" y="-99.8" font-family="Times,serif" font-size="14.00" fill="#000000">UserAppModule</text>
</g>
<!-- UserAppModule&#45;&gt;AppModule -->
<g id="edge12" class="edge">
<title>UserAppModule&#45;&gt;AppModule</title>
<path fill="none" stroke="#000000" d="M321,-122.2228C321,-142.3652 321,-172 321,-172 321,-172 821.0572,-172 821.0572,-172"/>
<polygon fill="#000000" stroke="#000000" points="821.0572,-175.5001 831.0572,-172 821.0572,-168.5001 821.0572,-175.5001"/>
</g>
<!-- UserModule -->
<g id="node13" class="node">
<title>UserModule</title>
<polygon fill="#8dd3c7" stroke="#000000" points="247.9762,-122 244.9762,-126 223.9762,-126 220.9762,-122 162.0238,-122 162.0238,-86 247.9762,-86 247.9762,-122"/>
<text text-anchor="middle" x="205" y="-99.8" font-family="Times,serif" font-size="14.00" fill="#000000">UserModule</text>
</g>
<!-- UserModule&#45;&gt;AppModule -->
<g id="edge13" class="edge">
<title>UserModule&#45;&gt;AppModule</title>
<path fill="none" stroke="#000000" d="M205,-122.0449C205,-143.6623 205,-177 205,-177 205,-177 821.2136,-177 821.2136,-177"/>
<polygon fill="#000000" stroke="#000000" points="821.2136,-180.5001 831.2136,-177 821.2136,-173.5001 821.2136,-180.5001"/>
</g>
<!-- AppService -->
<g id="node15" class="node">
<title>AppService</title>
<ellipse fill="#fdb462" stroke="#000000" cx="81" cy="-104" rx="56.7406" ry="18"/>
<text text-anchor="middle" x="81" y="-99.8" font-family="Times,serif" font-size="14.00" fill="#000000">AppService</text>
</g>
<!-- AppService&#45;&gt;AppModule -->
<g id="edge14" class="edge">
<title>AppService&#45;&gt;AppModule</title>
<path fill="none" stroke="#000000" d="M81,-122.0908C81,-145.1328 81,-182 81,-182 81,-182 821.2562,-182 821.2562,-182"/>
<polygon fill="#000000" stroke="#000000" points="821.2562,-185.5001 831.2562,-182 821.2562,-178.5001 821.2562,-185.5001"/>
</g>
</g>
</svg>
