<?xml version="1.0" encoding="UTF-8" standalone="no"?>
<!DOCTYPE svg PUBLIC "-//W3C//DTD SVG 1.1//EN"
 "http://www.w3.org/Graphics/SVG/1.1/DTD/svg11.dtd">
<!-- Generated by graphviz version 2.40.1 (20161225.0304)
 -->
<!-- Title: dependencies Pages: 1 -->
<svg width="504pt" height="284pt"
 viewBox="0.00 0.00 504.00 284.00" xmlns="http://www.w3.org/2000/svg" xmlns:xlink="http://www.w3.org/1999/xlink">
<g id="graph0" class="graph" transform="scale(1 1) rotate(0) translate(4 280)">
<title>dependencies</title>
<polygon fill="#ffffff" stroke="transparent" points="-4,4 -4,-280 500,-280 500,4 -4,4"/>
<text text-anchor="start" x="227.0091" y="-42.4" font-family="sans-serif" font-weight="bold" font-size="14.00" fill="#000000">Legend</text>
<polygon fill="#ffffb3" stroke="transparent" points="14,-10 14,-30 34,-30 34,-10 14,-10"/>
<text text-anchor="start" x="37.629" y="-15.4" font-family="sans-serif" font-size="14.00" fill="#000000"> &#160;Declarations</text>
<polygon fill="#8dd3c7" stroke="transparent" points="127,-10 127,-30 147,-30 147,-10 127,-10"/>
<text text-anchor="start" x="150.7251" y="-15.4" font-family="sans-serif" font-size="14.00" fill="#000000"> &#160;Module</text>
<polygon fill="#80b1d3" stroke="transparent" points="213,-10 213,-30 233,-30 233,-10 213,-10"/>
<text text-anchor="start" x="236.7812" y="-15.4" font-family="sans-serif" font-size="14.00" fill="#000000"> &#160;Bootstrap</text>
<polygon fill="#fdb462" stroke="transparent" points="310,-10 310,-30 330,-30 330,-10 310,-10"/>
<text text-anchor="start" x="333.6732" y="-15.4" font-family="sans-serif" font-size="14.00" fill="#000000"> &#160;Providers</text>
<polygon fill="#fb8072" stroke="transparent" points="406,-10 406,-30 426,-30 426,-10 406,-10"/>
<text text-anchor="start" x="429.7258" y="-15.4" font-family="sans-serif" font-size="14.00" fill="#000000"> &#160;Exports</text>
<g id="clust1" class="cluster">
<title>cluster_JoinUserChallengeModule</title>
<polygon fill="none" stroke="#000000" stroke-dasharray="1,5" points="64,-70 64,-268 432,-268 432,-70 64,-70"/>
</g>
<g id="clust3" class="cluster">
<title>cluster_JoinUserChallengeModule_imports</title>
<polygon fill="none" stroke="#000000" points="322,-78 322,-130 424,-130 424,-78 322,-78"/>
</g>
<g id="clust4" class="cluster">
<title>cluster_JoinUserChallengeModule_exports</title>
<polygon fill="none" stroke="#000000" points="170,-208 170,-260 354,-260 354,-208 170,-208"/>
</g>
<g id="clust6" class="cluster">
<title>cluster_JoinUserChallengeModule_providers</title>
<polygon fill="none" stroke="#000000" points="72,-78 72,-130 314,-130 314,-78 72,-78"/>
</g>
<!-- UserModule -->
<g id="node1" class="node">
<title>UserModule</title>
<polygon fill="#8dd3c7" stroke="#000000" points="415.9762,-122 412.9762,-126 391.9762,-126 388.9762,-122 330.0238,-122 330.0238,-86 415.9762,-86 415.9762,-122"/>
<text text-anchor="middle" x="373" y="-99.8" font-family="Times,serif" font-size="14.00" fill="#000000">UserModule</text>
</g>
<!-- JoinUserChallengeModule -->
<g id="node2" class="node">
<title>JoinUserChallengeModule</title>
<polygon fill="#8dd3c7" stroke="#000000" points="345.073,-187 342.073,-191 321.073,-191 318.073,-187 178.927,-187 178.927,-151 345.073,-151 345.073,-187"/>
<text text-anchor="middle" x="262" y="-164.8" font-family="Times,serif" font-size="14.00" fill="#000000">JoinUserChallengeModule</text>
</g>
<!-- UserModule&#45;&gt;JoinUserChallengeModule -->
<g id="edge1" class="edge">
<title>UserModule&#45;&gt;JoinUserChallengeModule</title>
<path fill="none" stroke="#000000" d="M337.5242,-122.1061C337.5242,-122.1061 337.5242,-140.991 337.5242,-140.991"/>
<polygon fill="#000000" stroke="#000000" points="334.0243,-140.9909 337.5242,-150.991 341.0243,-140.991 334.0243,-140.9909"/>
</g>
<!-- JoinUserChallengeService  -->
<g id="node3" class="node">
<title>JoinUserChallengeService </title>
<polygon fill="#fb8072" stroke="#000000" points="346.0008,-252 177.9992,-252 177.9992,-216 346.0008,-216 346.0008,-252"/>
<text text-anchor="middle" x="262" y="-229.8" font-family="Times,serif" font-size="14.00" fill="#000000">JoinUserChallengeService </text>
</g>
<!-- JoinUserChallengeModule&#45;&gt;JoinUserChallengeService  -->
<g id="edge2" class="edge">
<title>JoinUserChallengeModule&#45;&gt;JoinUserChallengeService </title>
<path fill="none" stroke="#000000" stroke-dasharray="5,2" d="M262,-187.1061C262,-187.1061 262,-205.991 262,-205.991"/>
<polygon fill="#000000" stroke="#000000" points="258.5001,-205.9909 262,-215.991 265.5001,-205.991 258.5001,-205.9909"/>
</g>
<!-- JoinUserChallengeService -->
<g id="node4" class="node">
<title>JoinUserChallengeService</title>
<ellipse fill="#fdb462" stroke="#000000" cx="193" cy="-104" rx="113.4393" ry="18"/>
<text text-anchor="middle" x="193" y="-99.8" font-family="Times,serif" font-size="14.00" fill="#000000">JoinUserChallengeService</text>
</g>
<!-- JoinUserChallengeService&#45;&gt;JoinUserChallengeModule -->
<g id="edge3" class="edge">
<title>JoinUserChallengeService&#45;&gt;JoinUserChallengeModule</title>
<path fill="none" stroke="#000000" d="M242.7166,-120.4022C242.7166,-120.4022 242.7166,-140.5366 242.7166,-140.5366"/>
<polygon fill="#000000" stroke="#000000" points="239.2167,-140.5366 242.7166,-150.5366 246.2167,-140.5367 239.2167,-140.5366"/>
</g>
</g>
</svg>
