<?xml version="1.0" encoding="UTF-8" standalone="no"?>
<!DOCTYPE svg PUBLIC "-//W3C//DTD SVG 1.1//EN"
 "http://www.w3.org/Graphics/SVG/1.1/DTD/svg11.dtd">
<!-- Generated by graphviz version 2.40.1 (20161225.0304)
 -->
<!-- Title: dependencies Pages: 1 -->
<svg width="504pt" height="284pt"
 viewBox="0.00 0.00 504.00 284.00" xmlns="http://www.w3.org/2000/svg" xmlns:xlink="http://www.w3.org/1999/xlink">
<g id="graph0" class="graph" transform="scale(1 1) rotate(0) translate(4 280)">
<title>dependencies</title>
<polygon fill="#ffffff" stroke="transparent" points="-4,4 -4,-280 500,-280 500,4 -4,4"/>
<text text-anchor="start" x="227.0091" y="-42.4" font-family="sans-serif" font-weight="bold" font-size="14.00" fill="#000000">Legend</text>
<polygon fill="#ffffb3" stroke="transparent" points="14,-10 14,-30 34,-30 34,-10 14,-10"/>
<text text-anchor="start" x="37.629" y="-15.4" font-family="sans-serif" font-size="14.00" fill="#000000"> &#160;Declarations</text>
<polygon fill="#8dd3c7" stroke="transparent" points="127,-10 127,-30 147,-30 147,-10 127,-10"/>
<text text-anchor="start" x="150.7251" y="-15.4" font-family="sans-serif" font-size="14.00" fill="#000000"> &#160;Module</text>
<polygon fill="#80b1d3" stroke="transparent" points="213,-10 213,-30 233,-30 233,-10 213,-10"/>
<text text-anchor="start" x="236.7812" y="-15.4" font-family="sans-serif" font-size="14.00" fill="#000000"> &#160;Bootstrap</text>
<polygon fill="#fdb462" stroke="transparent" points="310,-10 310,-30 330,-30 330,-10 310,-10"/>
<text text-anchor="start" x="333.6732" y="-15.4" font-family="sans-serif" font-size="14.00" fill="#000000"> &#160;Providers</text>
<polygon fill="#fb8072" stroke="transparent" points="406,-10 406,-30 426,-30 426,-10 406,-10"/>
<text text-anchor="start" x="429.7258" y="-15.4" font-family="sans-serif" font-size="14.00" fill="#000000"> &#160;Exports</text>
<g id="clust1" class="cluster">
<title>cluster_ChallengeModule</title>
<polygon fill="none" stroke="#000000" stroke-dasharray="1,5" points="58,-70 58,-268 438,-268 438,-70 58,-70"/>
</g>
<g id="clust3" class="cluster">
<title>cluster_ChallengeModule_imports</title>
<polygon fill="none" stroke="#000000" points="248,-78 248,-130 430,-130 430,-78 248,-78"/>
</g>
<g id="clust4" class="cluster">
<title>cluster_ChallengeModule_exports</title>
<polygon fill="none" stroke="#000000" points="179,-208 179,-260 313,-260 313,-208 179,-208"/>
</g>
<g id="clust6" class="cluster">
<title>cluster_ChallengeModule_providers</title>
<polygon fill="none" stroke="#000000" points="66,-78 66,-130 240,-130 240,-78 66,-78"/>
</g>
<!-- JoinUserChallengeModule -->
<g id="node1" class="node">
<title>JoinUserChallengeModule</title>
<polygon fill="#8dd3c7" stroke="#000000" points="422.073,-122 419.073,-126 398.073,-126 395.073,-122 255.927,-122 255.927,-86 422.073,-86 422.073,-122"/>
<text text-anchor="middle" x="339" y="-99.8" font-family="Times,serif" font-size="14.00" fill="#000000">JoinUserChallengeModule</text>
</g>
<!-- ChallengeModule -->
<g id="node2" class="node">
<title>ChallengeModule</title>
<polygon fill="#8dd3c7" stroke="#000000" points="304.3118,-187 301.3118,-191 280.3118,-191 277.3118,-187 187.6882,-187 187.6882,-151 304.3118,-151 304.3118,-187"/>
<text text-anchor="middle" x="246" y="-164.8" font-family="Times,serif" font-size="14.00" fill="#000000">ChallengeModule</text>
</g>
<!-- JoinUserChallengeModule&#45;&gt;ChallengeModule -->
<g id="edge1" class="edge">
<title>JoinUserChallengeModule&#45;&gt;ChallengeModule</title>
<path fill="none" stroke="#000000" d="M280.0596,-122.1061C280.0596,-122.1061 280.0596,-140.991 280.0596,-140.991"/>
<polygon fill="#000000" stroke="#000000" points="276.5597,-140.9909 280.0596,-150.991 283.5597,-140.991 276.5597,-140.9909"/>
</g>
<!-- ChallengeService  -->
<g id="node3" class="node">
<title>ChallengeService </title>
<polygon fill="#fb8072" stroke="#000000" points="305.2394,-252 186.7606,-252 186.7606,-216 305.2394,-216 305.2394,-252"/>
<text text-anchor="middle" x="246" y="-229.8" font-family="Times,serif" font-size="14.00" fill="#000000">ChallengeService </text>
</g>
<!-- ChallengeModule&#45;&gt;ChallengeService  -->
<g id="edge2" class="edge">
<title>ChallengeModule&#45;&gt;ChallengeService </title>
<path fill="none" stroke="#000000" stroke-dasharray="5,2" d="M246,-187.1061C246,-187.1061 246,-205.991 246,-205.991"/>
<polygon fill="#000000" stroke="#000000" points="242.5001,-205.9909 246,-215.991 249.5001,-205.991 242.5001,-205.9909"/>
</g>
<!-- ChallengeService -->
<g id="node4" class="node">
<title>ChallengeService</title>
<ellipse fill="#fdb462" stroke="#000000" cx="153" cy="-104" rx="79.2903" ry="18"/>
<text text-anchor="middle" x="153" y="-99.8" font-family="Times,serif" font-size="14.00" fill="#000000">ChallengeService</text>
</g>
<!-- ChallengeService&#45;&gt;ChallengeModule -->
<g id="edge3" class="edge">
<title>ChallengeService&#45;&gt;ChallengeModule</title>
<path fill="none" stroke="#000000" d="M209.9947,-116.5327C209.9947,-116.5327 209.9947,-140.8507 209.9947,-140.8507"/>
<polygon fill="#000000" stroke="#000000" points="206.4948,-140.8506 209.9947,-150.8507 213.4948,-140.8507 206.4948,-140.8506"/>
</g>
</g>
</svg>
