<?xml version="1.0" encoding="UTF-8" standalone="no"?>
<!DOCTYPE svg PUBLIC "-//W3C//DTD SVG 1.1//EN"
 "http://www.w3.org/Graphics/SVG/1.1/DTD/svg11.dtd">
<!-- Generated by graphviz version 2.40.1 (20161225.0304)
 -->
<!-- Title: dependencies Pages: 1 -->
<svg width="504pt" height="284pt"
 viewBox="0.00 0.00 504.00 284.00" xmlns="http://www.w3.org/2000/svg" xmlns:xlink="http://www.w3.org/1999/xlink">
<g id="graph0" class="graph" transform="scale(1 1) rotate(0) translate(4 280)">
<title>dependencies</title>
<polygon fill="#ffffff" stroke="transparent" points="-4,4 -4,-280 500,-280 500,4 -4,4"/>
<text text-anchor="start" x="227.0091" y="-42.4" font-family="sans-serif" font-weight="bold" font-size="14.00" fill="#000000">Legend</text>
<polygon fill="#ffffb3" stroke="transparent" points="14,-10 14,-30 34,-30 34,-10 14,-10"/>
<text text-anchor="start" x="37.629" y="-15.4" font-family="sans-serif" font-size="14.00" fill="#000000"> &#160;Declarations</text>
<polygon fill="#8dd3c7" stroke="transparent" points="127,-10 127,-30 147,-30 147,-10 127,-10"/>
<text text-anchor="start" x="150.7251" y="-15.4" font-family="sans-serif" font-size="14.00" fill="#000000"> &#160;Module</text>
<polygon fill="#80b1d3" stroke="transparent" points="213,-10 213,-30 233,-30 233,-10 213,-10"/>
<text text-anchor="start" x="236.7812" y="-15.4" font-family="sans-serif" font-size="14.00" fill="#000000"> &#160;Bootstrap</text>
<polygon fill="#fdb462" stroke="transparent" points="310,-10 310,-30 330,-30 330,-10 310,-10"/>
<text text-anchor="start" x="333.6732" y="-15.4" font-family="sans-serif" font-size="14.00" fill="#000000"> &#160;Providers</text>
<polygon fill="#fb8072" stroke="transparent" points="406,-10 406,-30 426,-30 426,-10 406,-10"/>
<text text-anchor="start" x="429.7258" y="-15.4" font-family="sans-serif" font-size="14.00" fill="#000000"> &#160;Exports</text>
<g id="clust1" class="cluster">
<title>cluster_PoiModule</title>
<polygon fill="none" stroke="#000000" stroke-dasharray="1,5" points="53,-70 53,-268 443,-268 443,-70 53,-70"/>
</g>
<g id="clust3" class="cluster">
<title>cluster_PoiModule_imports</title>
<polygon fill="none" stroke="#000000" points="191,-78 191,-130 435,-130 435,-78 191,-78"/>
</g>
<g id="clust4" class="cluster">
<title>cluster_PoiModule_exports</title>
<polygon fill="none" stroke="#000000" points="194,-208 194,-260 290,-260 290,-208 194,-208"/>
</g>
<g id="clust6" class="cluster">
<title>cluster_PoiModule_providers</title>
<polygon fill="none" stroke="#000000" points="61,-78 61,-130 183,-130 183,-78 61,-78"/>
</g>
<!-- JoinTagPoiModule -->
<g id="node1" class="node">
<title>JoinTagPoiModule</title>
<polygon fill="#8dd3c7" stroke="#000000" points="426.8258,-122 423.8258,-126 402.8258,-126 399.8258,-122 303.1742,-122 303.1742,-86 426.8258,-86 426.8258,-122"/>
<text text-anchor="middle" x="365" y="-99.8" font-family="Times,serif" font-size="14.00" fill="#000000">JoinTagPoiModule</text>
</g>
<!-- PoiModule -->
<g id="node3" class="node">
<title>PoiModule</title>
<polygon fill="#8dd3c7" stroke="#000000" points="281.2233,-187 278.2233,-191 257.2233,-191 254.2233,-187 202.7767,-187 202.7767,-151 281.2233,-151 281.2233,-187"/>
<text text-anchor="middle" x="242" y="-164.8" font-family="Times,serif" font-size="14.00" fill="#000000">PoiModule</text>
</g>
<!-- JoinTagPoiModule&#45;&gt;PoiModule -->
<g id="edge1" class="edge">
<title>JoinTagPoiModule&#45;&gt;PoiModule</title>
<path fill="none" stroke="#000000" d="M365,-122.1061C365,-141.3391 365,-169 365,-169 365,-169 291.2561,-169 291.2561,-169"/>
<polygon fill="#000000" stroke="#000000" points="291.2562,-165.5001 281.2561,-169 291.2561,-172.5001 291.2562,-165.5001"/>
</g>
<!-- TagsModule -->
<g id="node2" class="node">
<title>TagsModule</title>
<polygon fill="#8dd3c7" stroke="#000000" points="285.2619,-122 282.2619,-126 261.2619,-126 258.2619,-122 198.7381,-122 198.7381,-86 285.2619,-86 285.2619,-122"/>
<text text-anchor="middle" x="242" y="-99.8" font-family="Times,serif" font-size="14.00" fill="#000000">TagsModule</text>
</g>
<!-- TagsModule&#45;&gt;PoiModule -->
<g id="edge2" class="edge">
<title>TagsModule&#45;&gt;PoiModule</title>
<path fill="none" stroke="#000000" d="M242,-122.1061C242,-122.1061 242,-140.991 242,-140.991"/>
<polygon fill="#000000" stroke="#000000" points="238.5001,-140.9909 242,-150.991 245.5001,-140.991 238.5001,-140.9909"/>
</g>
<!-- PoiService  -->
<g id="node4" class="node">
<title>PoiService </title>
<polygon fill="#fb8072" stroke="#000000" points="282.1509,-252 201.8491,-252 201.8491,-216 282.1509,-216 282.1509,-252"/>
<text text-anchor="middle" x="242" y="-229.8" font-family="Times,serif" font-size="14.00" fill="#000000">PoiService </text>
</g>
<!-- PoiModule&#45;&gt;PoiService  -->
<g id="edge3" class="edge">
<title>PoiModule&#45;&gt;PoiService </title>
<path fill="none" stroke="#000000" stroke-dasharray="5,2" d="M242,-187.1061C242,-187.1061 242,-205.991 242,-205.991"/>
<polygon fill="#000000" stroke="#000000" points="238.5001,-205.9909 242,-215.991 245.5001,-205.991 238.5001,-205.9909"/>
</g>
<!-- PoiService -->
<g id="node5" class="node">
<title>PoiService</title>
<ellipse fill="#fdb462" stroke="#000000" cx="122" cy="-104" rx="52.745" ry="18"/>
<text text-anchor="middle" x="122" y="-99.8" font-family="Times,serif" font-size="14.00" fill="#000000">PoiService</text>
</g>
<!-- PoiService&#45;&gt;PoiModule -->
<g id="edge4" class="edge">
<title>PoiService&#45;&gt;PoiModule</title>
<path fill="none" stroke="#000000" d="M122,-122.1061C122,-141.3391 122,-169 122,-169 122,-169 192.7075,-169 192.7075,-169"/>
<polygon fill="#000000" stroke="#000000" points="192.7075,-172.5001 202.7075,-169 192.7075,-165.5001 192.7075,-172.5001"/>
</g>
</g>
</svg>
