<?xml version="1.0" encoding="UTF-8" standalone="no"?>
<!DOCTYPE svg PUBLIC "-//W3C//DTD SVG 1.1//EN"
 "http://www.w3.org/Graphics/SVG/1.1/DTD/svg11.dtd">
<!-- Generated by graphviz version 2.40.1 (20161225.0304)
 -->
<!-- Title: dependencies Pages: 1 -->
<svg width="950pt" height="284pt"
 viewBox="0.00 0.00 950.00 284.00" xmlns="http://www.w3.org/2000/svg" xmlns:xlink="http://www.w3.org/1999/xlink">
<g id="graph0" class="graph" transform="scale(1 1) rotate(0) translate(4 280)">
<title>dependencies</title>
<polygon fill="#ffffff" stroke="transparent" points="-4,4 -4,-280 946,-280 946,4 -4,4"/>
<text text-anchor="start" x="450.0091" y="-42.4" font-family="sans-serif" font-weight="bold" font-size="14.00" fill="#000000">Legend</text>
<polygon fill="#ffffb3" stroke="transparent" points="237,-10 237,-30 257,-30 257,-10 237,-10"/>
<text text-anchor="start" x="260.629" y="-15.4" font-family="sans-serif" font-size="14.00" fill="#000000"> &#160;Declarations</text>
<polygon fill="#8dd3c7" stroke="transparent" points="350,-10 350,-30 370,-30 370,-10 350,-10"/>
<text text-anchor="start" x="373.7251" y="-15.4" font-family="sans-serif" font-size="14.00" fill="#000000"> &#160;Module</text>
<polygon fill="#80b1d3" stroke="transparent" points="436,-10 436,-30 456,-30 456,-10 436,-10"/>
<text text-anchor="start" x="459.7812" y="-15.4" font-family="sans-serif" font-size="14.00" fill="#000000"> &#160;Bootstrap</text>
<polygon fill="#fdb462" stroke="transparent" points="533,-10 533,-30 553,-30 553,-10 533,-10"/>
<text text-anchor="start" x="556.6732" y="-15.4" font-family="sans-serif" font-size="14.00" fill="#000000"> &#160;Providers</text>
<polygon fill="#fb8072" stroke="transparent" points="629,-10 629,-30 649,-30 649,-10 629,-10"/>
<text text-anchor="start" x="652.7258" y="-15.4" font-family="sans-serif" font-size="14.00" fill="#000000"> &#160;Exports</text>
<g id="clust1" class="cluster">
<title>cluster_PoiModule</title>
<polygon fill="none" stroke="#000000" stroke-dasharray="1,5" points="8,-70 8,-268 934,-268 934,-70 8,-70"/>
</g>
<g id="clust3" class="cluster">
<title>cluster_PoiModule_imports</title>
<polygon fill="none" stroke="#000000" points="146,-78 146,-130 926,-130 926,-78 146,-78"/>
</g>
<g id="clust4" class="cluster">
<title>cluster_PoiModule_exports</title>
<polygon fill="none" stroke="#000000" points="358,-208 358,-260 454,-260 454,-208 358,-208"/>
</g>
<g id="clust6" class="cluster">
<title>cluster_PoiModule_providers</title>
<polygon fill="none" stroke="#000000" points="16,-78 16,-130 138,-130 138,-78 16,-78"/>
</g>
<!-- JoinTagPoiModule -->
<g id="node1" class="node">
<title>JoinTagPoiModule</title>
<polygon fill="#8dd3c7" stroke="#000000" points="917.8258,-122 914.8258,-126 893.8258,-126 890.8258,-122 794.1742,-122 794.1742,-86 917.8258,-86 917.8258,-122"/>
<text text-anchor="middle" x="856" y="-99.8" font-family="Times,serif" font-size="14.00" fill="#000000">JoinTagPoiModule</text>
</g>
<!-- PoiModule -->
<g id="node6" class="node">
<title>PoiModule</title>
<polygon fill="#8dd3c7" stroke="#000000" points="445.2233,-187 442.2233,-191 421.2233,-191 418.2233,-187 366.7767,-187 366.7767,-151 445.2233,-151 445.2233,-187"/>
<text text-anchor="middle" x="406" y="-164.8" font-family="Times,serif" font-size="14.00" fill="#000000">PoiModule</text>
</g>
<!-- JoinTagPoiModule&#45;&gt;PoiModule -->
<g id="edge1" class="edge">
<title>JoinTagPoiModule&#45;&gt;PoiModule</title>
<path fill="none" stroke="#000000" d="M856,-122.2843C856,-143.3211 856,-175 856,-175 856,-175 455.1473,-175 455.1473,-175"/>
<polygon fill="#000000" stroke="#000000" points="455.1474,-171.5001 445.1473,-175 455.1473,-178.5001 455.1474,-171.5001"/>
</g>
<!-- PercentTypeGreenScoreAndPoiModule -->
<g id="node2" class="node">
<title>PercentTypeGreenScoreAndPoiModule</title>
<polygon fill="#8dd3c7" stroke="#000000" points="776.6432,-122 773.6432,-126 752.6432,-126 749.6432,-122 537.3568,-122 537.3568,-86 776.6432,-86 776.6432,-122"/>
<text text-anchor="middle" x="657" y="-99.8" font-family="Times,serif" font-size="14.00" fill="#000000">PercentTypeGreenScoreAndPoiModule</text>
</g>
<!-- PercentTypeGreenScoreAndPoiModule&#45;&gt;PoiModule -->
<g id="edge2" class="edge">
<title>PercentTypeGreenScoreAndPoiModule&#45;&gt;PoiModule</title>
<path fill="none" stroke="#000000" d="M657,-122.0225C657,-139.3734 657,-163 657,-163 657,-163 455.2188,-163 455.2188,-163"/>
<polygon fill="#000000" stroke="#000000" points="455.2188,-159.5001 445.2188,-163 455.2187,-166.5001 455.2188,-159.5001"/>
</g>
<!-- TagsModule -->
<g id="node3" class="node">
<title>TagsModule</title>
<polygon fill="#8dd3c7" stroke="#000000" points="519.2619,-122 516.2619,-126 495.2619,-126 492.2619,-122 432.7381,-122 432.7381,-86 519.2619,-86 519.2619,-122"/>
<text text-anchor="middle" x="476" y="-99.8" font-family="Times,serif" font-size="14.00" fill="#000000">TagsModule</text>
</g>
<!-- TagsModule&#45;&gt;PoiModule -->
<g id="edge3" class="edge">
<title>TagsModule&#45;&gt;PoiModule</title>
<path fill="none" stroke="#000000" d="M438.8654,-122.1061C438.8654,-122.1061 438.8654,-140.991 438.8654,-140.991"/>
<polygon fill="#000000" stroke="#000000" points="435.3654,-140.9909 438.8654,-150.991 442.3654,-140.991 435.3654,-140.9909"/>
</g>
<!-- TypeGreenScoreModule -->
<g id="node4" class="node">
<title>TypeGreenScoreModule</title>
<polygon fill="#8dd3c7" stroke="#000000" points="414.3863,-122 411.3863,-126 390.3863,-126 387.3863,-122 259.6137,-122 259.6137,-86 414.3863,-86 414.3863,-122"/>
<text text-anchor="middle" x="337" y="-99.8" font-family="Times,serif" font-size="14.00" fill="#000000">TypeGreenScoreModule</text>
</g>
<!-- TypeGreenScoreModule&#45;&gt;PoiModule -->
<g id="edge4" class="edge">
<title>TypeGreenScoreModule&#45;&gt;PoiModule</title>
<path fill="none" stroke="#000000" d="M390.5407,-122.1061C390.5407,-122.1061 390.5407,-140.991 390.5407,-140.991"/>
<polygon fill="#000000" stroke="#000000" points="387.0408,-140.9909 390.5407,-150.991 394.0408,-140.991 387.0408,-140.9909"/>
</g>
<!-- TypeModule -->
<g id="node5" class="node">
<title>TypeModule</title>
<polygon fill="#8dd3c7" stroke="#000000" points="242.3176,-122 239.3176,-126 218.3176,-126 215.3176,-122 153.6824,-122 153.6824,-86 242.3176,-86 242.3176,-122"/>
<text text-anchor="middle" x="198" y="-99.8" font-family="Times,serif" font-size="14.00" fill="#000000">TypeModule</text>
</g>
<!-- TypeModule&#45;&gt;PoiModule -->
<g id="edge5" class="edge">
<title>TypeModule&#45;&gt;PoiModule</title>
<path fill="none" stroke="#000000" d="M198,-122.0225C198,-139.3734 198,-163 198,-163 198,-163 356.8768,-163 356.8768,-163"/>
<polygon fill="#000000" stroke="#000000" points="356.8768,-166.5001 366.8768,-163 356.8768,-159.5001 356.8768,-166.5001"/>
</g>
<!-- PoiService  -->
<g id="node7" class="node">
<title>PoiService </title>
<polygon fill="#fb8072" stroke="#000000" points="446.1509,-252 365.8491,-252 365.8491,-216 446.1509,-216 446.1509,-252"/>
<text text-anchor="middle" x="406" y="-229.8" font-family="Times,serif" font-size="14.00" fill="#000000">PoiService </text>
</g>
<!-- PoiModule&#45;&gt;PoiService  -->
<g id="edge6" class="edge">
<title>PoiModule&#45;&gt;PoiService </title>
<path fill="none" stroke="#000000" stroke-dasharray="5,2" d="M406,-187.1061C406,-187.1061 406,-205.991 406,-205.991"/>
<polygon fill="#000000" stroke="#000000" points="402.5001,-205.9909 406,-215.991 409.5001,-205.991 402.5001,-205.9909"/>
</g>
<!-- PoiService -->
<g id="node8" class="node">
<title>PoiService</title>
<ellipse fill="#fdb462" stroke="#000000" cx="77" cy="-104" rx="52.745" ry="18"/>
<text text-anchor="middle" x="77" y="-99.8" font-family="Times,serif" font-size="14.00" fill="#000000">PoiService</text>
</g>
<!-- PoiService&#45;&gt;PoiModule -->
<g id="edge7" class="edge">
<title>PoiService&#45;&gt;PoiModule</title>
<path fill="none" stroke="#000000" d="M77,-122.2843C77,-143.3211 77,-175 77,-175 77,-175 356.6417,-175 356.6417,-175"/>
<polygon fill="#000000" stroke="#000000" points="356.6417,-178.5001 366.6417,-175 356.6417,-171.5001 356.6417,-178.5001"/>
</g>
</g>
</svg>
