<?xml version="1.0" encoding="UTF-8" standalone="no"?>
<!DOCTYPE svg PUBLIC "-//W3C//DTD SVG 1.1//EN"
 "http://www.w3.org/Graphics/SVG/1.1/DTD/svg11.dtd">
<!-- Generated by graphviz version 2.40.1 (20161225.0304)
 -->
<!-- Title: dependencies Pages: 1 -->
<svg width="1539pt" height="284pt"
 viewBox="0.00 0.00 1539.00 284.00" xmlns="http://www.w3.org/2000/svg" xmlns:xlink="http://www.w3.org/1999/xlink">
<g id="graph0" class="graph" transform="scale(1 1) rotate(0) translate(4 280)">
<title>dependencies</title>
<polygon fill="#ffffff" stroke="transparent" points="-4,4 -4,-280 1535,-280 1535,4 -4,4"/>
<text text-anchor="start" x="744.5091" y="-42.4" font-family="sans-serif" font-weight="bold" font-size="14.00" fill="#000000">Legend</text>
<polygon fill="#ffffb3" stroke="transparent" points="531.5,-10 531.5,-30 551.5,-30 551.5,-10 531.5,-10"/>
<text text-anchor="start" x="555.129" y="-15.4" font-family="sans-serif" font-size="14.00" fill="#000000"> &#160;Declarations</text>
<polygon fill="#8dd3c7" stroke="transparent" points="644.5,-10 644.5,-30 664.5,-30 664.5,-10 644.5,-10"/>
<text text-anchor="start" x="668.2251" y="-15.4" font-family="sans-serif" font-size="14.00" fill="#000000"> &#160;Module</text>
<polygon fill="#80b1d3" stroke="transparent" points="730.5,-10 730.5,-30 750.5,-30 750.5,-10 730.5,-10"/>
<text text-anchor="start" x="754.2812" y="-15.4" font-family="sans-serif" font-size="14.00" fill="#000000"> &#160;Bootstrap</text>
<polygon fill="#fdb462" stroke="transparent" points="827.5,-10 827.5,-30 847.5,-30 847.5,-10 827.5,-10"/>
<text text-anchor="start" x="851.1732" y="-15.4" font-family="sans-serif" font-size="14.00" fill="#000000"> &#160;Providers</text>
<polygon fill="#fb8072" stroke="transparent" points="923.5,-10 923.5,-30 943.5,-30 943.5,-10 923.5,-10"/>
<text text-anchor="start" x="947.2258" y="-15.4" font-family="sans-serif" font-size="14.00" fill="#000000"> &#160;Exports</text>
<g id="clust1" class="cluster">
<title>cluster_PoiModule</title>
<polygon fill="none" stroke="#000000" stroke-dasharray="1,5" points="8,-70 8,-268 1523,-268 1523,-70 8,-70"/>
</g>
<g id="clust3" class="cluster">
<title>cluster_PoiModule_imports</title>
<polygon fill="none" stroke="#000000" points="338,-78 338,-130 1515,-130 1515,-78 338,-78"/>
</g>
<g id="clust4" class="cluster">
<title>cluster_PoiModule_exports</title>
<polygon fill="none" stroke="#000000" points="710,-208 710,-260 806,-260 806,-208 710,-208"/>
</g>
<g id="clust6" class="cluster">
<title>cluster_PoiModule_providers</title>
<polygon fill="none" stroke="#000000" points="16,-78 16,-130 330,-130 330,-78 16,-78"/>
</g>
<!-- CompanyModule -->
<g id="node1" class="node">
<title>CompanyModule</title>
<polygon fill="#8dd3c7" stroke="#000000" points="1506.9916,-122 1503.9916,-126 1482.9916,-126 1479.9916,-122 1393.0084,-122 1393.0084,-86 1506.9916,-86 1506.9916,-122"/>
<text text-anchor="middle" x="1450" y="-99.8" font-family="Times,serif" font-size="14.00" fill="#000000">CompanyModule</text>
</g>
<!-- PoiModule -->
<g id="node9" class="node">
<title>PoiModule</title>
<polygon fill="#8dd3c7" stroke="#000000" points="797.2233,-187 794.2233,-191 773.2233,-191 770.2233,-187 718.7767,-187 718.7767,-151 797.2233,-151 797.2233,-187"/>
<text text-anchor="middle" x="758" y="-164.8" font-family="Times,serif" font-size="14.00" fill="#000000">PoiModule</text>
</g>
<!-- CompanyModule&#45;&gt;PoiModule -->
<g id="edge1" class="edge">
<title>CompanyModule&#45;&gt;PoiModule</title>
<path fill="none" stroke="#000000" d="M1450,-122.0109C1450,-144.4852 1450,-180 1450,-180 1450,-180 807.1876,-180 807.1876,-180"/>
<polygon fill="#000000" stroke="#000000" points="807.1877,-176.5001 797.1876,-180 807.1876,-183.5001 807.1877,-176.5001"/>
</g>
<!-- ImgPoiModule -->
<g id="node2" class="node">
<title>ImgPoiModule</title>
<polygon fill="#8dd3c7" stroke="#000000" points="1375.2745,-122 1372.2745,-126 1351.2745,-126 1348.2745,-122 1274.7255,-122 1274.7255,-86 1375.2745,-86 1375.2745,-122"/>
<text text-anchor="middle" x="1325" y="-99.8" font-family="Times,serif" font-size="14.00" fill="#000000">ImgPoiModule</text>
</g>
<!-- ImgPoiModule&#45;&gt;PoiModule -->
<g id="edge2" class="edge">
<title>ImgPoiModule&#45;&gt;PoiModule</title>
<path fill="none" stroke="#000000" d="M1325,-122.1289C1325,-142.5724 1325,-173 1325,-173 1325,-173 807.4202,-173 807.4202,-173"/>
<polygon fill="#000000" stroke="#000000" points="807.4202,-169.5001 797.4202,-173 807.4201,-176.5001 807.4202,-169.5001"/>
</g>
<!-- JoinTagPoiModule -->
<g id="node3" class="node">
<title>JoinTagPoiModule</title>
<polygon fill="#8dd3c7" stroke="#000000" points="1256.8258,-122 1253.8258,-126 1232.8258,-126 1229.8258,-122 1133.1742,-122 1133.1742,-86 1256.8258,-86 1256.8258,-122"/>
<text text-anchor="middle" x="1195" y="-99.8" font-family="Times,serif" font-size="14.00" fill="#000000">JoinTagPoiModule</text>
</g>
<!-- JoinTagPoiModule&#45;&gt;PoiModule -->
<g id="edge3" class="edge">
<title>JoinTagPoiModule&#45;&gt;PoiModule</title>
<path fill="none" stroke="#000000" d="M1195,-122.2667C1195,-140.5552 1195,-166 1195,-166 1195,-166 807.1654,-166 807.1654,-166"/>
<polygon fill="#000000" stroke="#000000" points="807.1655,-162.5001 797.1654,-166 807.1654,-169.5001 807.1655,-162.5001"/>
</g>
<!-- JoinUserPoiModule -->
<g id="node4" class="node">
<title>JoinUserPoiModule</title>
<polygon fill="#8dd3c7" stroke="#000000" points="1114.9846,-122 1111.9846,-126 1090.9846,-126 1087.9846,-122 987.0154,-122 987.0154,-86 1114.9846,-86 1114.9846,-122"/>
<text text-anchor="middle" x="1051" y="-99.8" font-family="Times,serif" font-size="14.00" fill="#000000">JoinUserPoiModule</text>
</g>
<!-- JoinUserPoiModule&#45;&gt;PoiModule -->
<g id="edge4" class="edge">
<title>JoinUserPoiModule&#45;&gt;PoiModule</title>
<path fill="none" stroke="#000000" d="M1051,-122.0091C1051,-138.0494 1051,-159 1051,-159 1051,-159 807.2113,-159 807.2113,-159"/>
<polygon fill="#000000" stroke="#000000" points="807.2113,-155.5001 797.2113,-159 807.2112,-162.5001 807.2113,-155.5001"/>
</g>
<!-- PercentTypeGreenScoreAndPoiModule -->
<g id="node5" class="node">
<title>PercentTypeGreenScoreAndPoiModule</title>
<polygon fill="#8dd3c7" stroke="#000000" points="968.6432,-122 965.6432,-126 944.6432,-126 941.6432,-122 729.3568,-122 729.3568,-86 968.6432,-86 968.6432,-122"/>
<text text-anchor="middle" x="849" y="-99.8" font-family="Times,serif" font-size="14.00" fill="#000000">PercentTypeGreenScoreAndPoiModule</text>
</g>
<!-- PercentTypeGreenScoreAndPoiModule&#45;&gt;PoiModule -->
<g id="edge5" class="edge">
<title>PercentTypeGreenScoreAndPoiModule&#45;&gt;PoiModule</title>
<path fill="none" stroke="#000000" d="M763.27,-122.1061C763.27,-122.1061 763.27,-140.991 763.27,-140.991"/>
<polygon fill="#000000" stroke="#000000" points="759.77,-140.9909 763.27,-150.991 766.77,-140.991 759.77,-140.9909"/>
</g>
<!-- TagsModule -->
<g id="node6" class="node">
<title>TagsModule</title>
<polygon fill="#8dd3c7" stroke="#000000" points="711.2619,-122 708.2619,-126 687.2619,-126 684.2619,-122 624.7381,-122 624.7381,-86 711.2619,-86 711.2619,-122"/>
<text text-anchor="middle" x="668" y="-99.8" font-family="Times,serif" font-size="14.00" fill="#000000">TagsModule</text>
</g>
<!-- TagsModule&#45;&gt;PoiModule -->
<g id="edge6" class="edge">
<title>TagsModule&#45;&gt;PoiModule</title>
<path fill="none" stroke="#000000" d="M711.4152,-104C718.8105,-104 724.1585,-104 724.1585,-104 724.1585,-104 724.1585,-140.8939 724.1585,-140.8939"/>
<polygon fill="#000000" stroke="#000000" points="720.6585,-140.8938 724.1585,-150.8939 727.6585,-140.8939 720.6585,-140.8938"/>
</g>
<!-- TypeGreenScoreModule -->
<g id="node7" class="node">
<title>TypeGreenScoreModule</title>
<polygon fill="#8dd3c7" stroke="#000000" points="606.3863,-122 603.3863,-126 582.3863,-126 579.3863,-122 451.6137,-122 451.6137,-86 606.3863,-86 606.3863,-122"/>
<text text-anchor="middle" x="529" y="-99.8" font-family="Times,serif" font-size="14.00" fill="#000000">TypeGreenScoreModule</text>
</g>
<!-- TypeGreenScoreModule&#45;&gt;PoiModule -->
<g id="edge7" class="edge">
<title>TypeGreenScoreModule&#45;&gt;PoiModule</title>
<path fill="none" stroke="#000000" d="M529,-122.0091C529,-138.0494 529,-159 529,-159 529,-159 708.6335,-159 708.6335,-159"/>
<polygon fill="#000000" stroke="#000000" points="708.6335,-162.5001 718.6335,-159 708.6335,-155.5001 708.6335,-162.5001"/>
</g>
<!-- TypeModule -->
<g id="node8" class="node">
<title>TypeModule</title>
<polygon fill="#8dd3c7" stroke="#000000" points="434.3176,-122 431.3176,-126 410.3176,-126 407.3176,-122 345.6824,-122 345.6824,-86 434.3176,-86 434.3176,-122"/>
<text text-anchor="middle" x="390" y="-99.8" font-family="Times,serif" font-size="14.00" fill="#000000">TypeModule</text>
</g>
<!-- TypeModule&#45;&gt;PoiModule -->
<g id="edge8" class="edge">
<title>TypeModule&#45;&gt;PoiModule</title>
<path fill="none" stroke="#000000" d="M390,-122.2667C390,-140.5552 390,-166 390,-166 390,-166 708.6176,-166 708.6176,-166"/>
<polygon fill="#000000" stroke="#000000" points="708.6176,-169.5001 718.6176,-166 708.6175,-162.5001 708.6176,-169.5001"/>
</g>
<!-- PoiService  -->
<g id="node10" class="node">
<title>PoiService </title>
<polygon fill="#fb8072" stroke="#000000" points="798.1509,-252 717.8491,-252 717.8491,-216 798.1509,-216 798.1509,-252"/>
<text text-anchor="middle" x="758" y="-229.8" font-family="Times,serif" font-size="14.00" fill="#000000">PoiService </text>
</g>
<!-- PoiModule&#45;&gt;PoiService  -->
<g id="edge9" class="edge">
<title>PoiModule&#45;&gt;PoiService </title>
<path fill="none" stroke="#000000" stroke-dasharray="5,2" d="M758,-187.1061C758,-187.1061 758,-205.991 758,-205.991"/>
<polygon fill="#000000" stroke="#000000" points="754.5001,-205.9909 758,-215.991 761.5001,-205.991 754.5001,-205.9909"/>
</g>
<!-- PoiGeoCalcService -->
<g id="node11" class="node">
<title>PoiGeoCalcService</title>
<ellipse fill="#fdb462" stroke="#000000" cx="235" cy="-104" rx="86.8126" ry="18"/>
<text text-anchor="middle" x="235" y="-99.8" font-family="Times,serif" font-size="14.00" fill="#000000">PoiGeoCalcService</text>
</g>
<!-- PoiGeoCalcService&#45;&gt;PoiModule -->
<g id="edge10" class="edge">
<title>PoiGeoCalcService&#45;&gt;PoiModule</title>
<path fill="none" stroke="#000000" d="M235,-122.1289C235,-142.5724 235,-173 235,-173 235,-173 708.69,-173 708.69,-173"/>
<polygon fill="#000000" stroke="#000000" points="708.69,-176.5001 718.69,-173 708.69,-169.5001 708.69,-176.5001"/>
</g>
<!-- PoiService -->
<g id="node12" class="node">
<title>PoiService</title>
<ellipse fill="#fdb462" stroke="#000000" cx="77" cy="-104" rx="52.745" ry="18"/>
<text text-anchor="middle" x="77" y="-99.8" font-family="Times,serif" font-size="14.00" fill="#000000">PoiService</text>
</g>
<!-- PoiService&#45;&gt;PoiModule -->
<g id="edge11" class="edge">
<title>PoiService&#45;&gt;PoiModule</title>
<path fill="none" stroke="#000000" d="M77,-122.0109C77,-144.4852 77,-180 77,-180 77,-180 708.443,-180 708.443,-180"/>
<polygon fill="#000000" stroke="#000000" points="708.4431,-183.5001 718.443,-180 708.443,-176.5001 708.4431,-183.5001"/>
</g>
</g>
</svg>
