<?xml version="1.0" encoding="UTF-8" standalone="no"?>
<!DOCTYPE svg PUBLIC "-//W3C//DTD SVG 1.1//EN"
 "http://www.w3.org/Graphics/SVG/1.1/DTD/svg11.dtd">
<!-- Generated by graphviz version 2.40.1 (20161225.0304)
 -->
<!-- Title: dependencies Pages: 1 -->
<svg width="658pt" height="211pt"
 viewBox="0.00 0.00 658.00 211.00" xmlns="http://www.w3.org/2000/svg" xmlns:xlink="http://www.w3.org/1999/xlink">
<g id="graph0" class="graph" transform="scale(1 1) rotate(0) translate(4 207)">
<title>dependencies</title>
<polygon fill="#ffffff" stroke="transparent" points="-4,4 -4,-207 654,-207 654,4 -4,4"/>
<text text-anchor="start" x="304.0091" y="-42.4" font-family="sans-serif" font-weight="bold" font-size="14.00" fill="#000000">Legend</text>
<polygon fill="#ffffb3" stroke="transparent" points="91,-10 91,-30 111,-30 111,-10 91,-10"/>
<text text-anchor="start" x="114.629" y="-15.4" font-family="sans-serif" font-size="14.00" fill="#000000"> &#160;Declarations</text>
<polygon fill="#8dd3c7" stroke="transparent" points="204,-10 204,-30 224,-30 224,-10 204,-10"/>
<text text-anchor="start" x="227.7251" y="-15.4" font-family="sans-serif" font-size="14.00" fill="#000000"> &#160;Module</text>
<polygon fill="#80b1d3" stroke="transparent" points="290,-10 290,-30 310,-30 310,-10 290,-10"/>
<text text-anchor="start" x="313.7812" y="-15.4" font-family="sans-serif" font-size="14.00" fill="#000000"> &#160;Bootstrap</text>
<polygon fill="#fdb462" stroke="transparent" points="387,-10 387,-30 407,-30 407,-10 387,-10"/>
<text text-anchor="start" x="410.6732" y="-15.4" font-family="sans-serif" font-size="14.00" fill="#000000"> &#160;Providers</text>
<polygon fill="#fb8072" stroke="transparent" points="483,-10 483,-30 503,-30 503,-10 483,-10"/>
<text text-anchor="start" x="506.7258" y="-15.4" font-family="sans-serif" font-size="14.00" fill="#000000"> &#160;Exports</text>
<g id="clust1" class="cluster">
<title>cluster_PercentTypeGreenScoreAndPoiModule</title>
<polygon fill="none" stroke="#000000" stroke-dasharray="1,5" points="8,-70 8,-195 642,-195 642,-70 8,-70"/>
</g>
<g id="clust3" class="cluster">
<title>cluster_PercentTypeGreenScoreAndPoiModule_imports</title>
<polygon fill="none" stroke="#000000" points="368,-78 368,-130 634,-130 634,-78 368,-78"/>
</g>
<g id="clust6" class="cluster">
<title>cluster_PercentTypeGreenScoreAndPoiModule_providers</title>
<polygon fill="none" stroke="#000000" points="16,-78 16,-130 360,-130 360,-78 16,-78"/>
</g>
<!-- PoiModule -->
<g id="node1" class="node">
<title>PoiModule</title>
<polygon fill="#8dd3c7" stroke="#000000" points="626.2233,-122 623.2233,-126 602.2233,-126 599.2233,-122 547.7767,-122 547.7767,-86 626.2233,-86 626.2233,-122"/>
<text text-anchor="middle" x="587" y="-99.8" font-family="Times,serif" font-size="14.00" fill="#000000">PoiModule</text>
</g>
<!-- PercentTypeGreenScoreAndPoiModule -->
<g id="node3" class="node">
<title>PercentTypeGreenScoreAndPoiModule</title>
<polygon fill="#8dd3c7" stroke="#000000" points="572.6432,-187 569.6432,-191 548.6432,-191 545.6432,-187 333.3568,-187 333.3568,-151 572.6432,-151 572.6432,-187"/>
<text text-anchor="middle" x="453" y="-164.8" font-family="Times,serif" font-size="14.00" fill="#000000">PercentTypeGreenScoreAndPoiModule</text>
</g>
<!-- PoiModule&#45;&gt;PercentTypeGreenScoreAndPoiModule -->
<g id="edge1" class="edge">
<title>PoiModule&#45;&gt;PercentTypeGreenScoreAndPoiModule</title>
<path fill="none" stroke="#000000" d="M560.2301,-122.1061C560.2301,-122.1061 560.2301,-140.991 560.2301,-140.991"/>
<polygon fill="#000000" stroke="#000000" points="556.7301,-140.9909 560.2301,-150.991 563.7301,-140.991 556.7301,-140.9909"/>
</g>
<!-- TypeGreenScoreModule -->
<g id="node2" class="node">
<title>TypeGreenScoreModule</title>
<polygon fill="#8dd3c7" stroke="#000000" points="530.3863,-122 527.3863,-126 506.3863,-126 503.3863,-122 375.6137,-122 375.6137,-86 530.3863,-86 530.3863,-122"/>
<text text-anchor="middle" x="453" y="-99.8" font-family="Times,serif" font-size="14.00" fill="#000000">TypeGreenScoreModule</text>
</g>
<!-- TypeGreenScoreModule&#45;&gt;PercentTypeGreenScoreAndPoiModule -->
<g id="edge2" class="edge">
<title>TypeGreenScoreModule&#45;&gt;PercentTypeGreenScoreAndPoiModule</title>
<path fill="none" stroke="#000000" d="M453,-122.1061C453,-122.1061 453,-140.991 453,-140.991"/>
<polygon fill="#000000" stroke="#000000" points="449.5001,-140.9909 453,-150.991 456.5001,-140.991 449.5001,-140.9909"/>
</g>
<!-- PercentTypeGreenScoreAndPoiService -->
<g id="node4" class="node">
<title>PercentTypeGreenScoreAndPoiService</title>
<ellipse fill="#fdb462" stroke="#000000" cx="188" cy="-104" rx="163.7444" ry="18"/>
<text text-anchor="middle" x="188" y="-99.8" font-family="Times,serif" font-size="14.00" fill="#000000">PercentTypeGreenScoreAndPoiService</text>
</g>
<!-- PercentTypeGreenScoreAndPoiService&#45;&gt;PercentTypeGreenScoreAndPoiModule -->
<g id="edge3" class="edge">
<title>PercentTypeGreenScoreAndPoiService&#45;&gt;PercentTypeGreenScoreAndPoiModule</title>
<path fill="none" stroke="#000000" d="M342.6503,-109.9985C342.6503,-109.9985 342.6503,-140.7642 342.6503,-140.7642"/>
<polygon fill="#000000" stroke="#000000" points="339.1504,-140.7642 342.6503,-150.7642 346.1504,-140.7642 339.1504,-140.7642"/>
</g>
</g>
</svg>
