<?xml version="1.0" encoding="UTF-8" standalone="no"?>
<!DOCTYPE svg PUBLIC "-//W3C//DTD SVG 1.1//EN"
 "http://www.w3.org/Graphics/SVG/1.1/DTD/svg11.dtd">
<!-- Generated by graphviz version 2.40.1 (20161225.0304)
 -->
<!-- Title: dependencies Pages: 1 -->
<svg width="4322pt" height="428pt"
 viewBox="0.00 0.00 4322.00 428.00" xmlns="http://www.w3.org/2000/svg" xmlns:xlink="http://www.w3.org/1999/xlink">
<g id="graph0" class="graph" transform="scale(1 1) rotate(0) translate(4 424)">
<title>dependencies</title>
<polygon fill="#ffffff" stroke="transparent" points="-4,4 -4,-424 4318,-424 4318,4 -4,4"/>
<text text-anchor="start" x="2136.0091" y="-42.4" font-family="sans-serif" font-weight="bold" font-size="14.00" fill="#000000">Legend</text>
<polygon fill="#ffffb3" stroke="transparent" points="1923,-10 1923,-30 1943,-30 1943,-10 1923,-10"/>
<text text-anchor="start" x="1946.629" y="-15.4" font-family="sans-serif" font-size="14.00" fill="#000000"> &#160;Declarations</text>
<polygon fill="#8dd3c7" stroke="transparent" points="2036,-10 2036,-30 2056,-30 2056,-10 2036,-10"/>
<text text-anchor="start" x="2059.7251" y="-15.4" font-family="sans-serif" font-size="14.00" fill="#000000"> &#160;Module</text>
<polygon fill="#80b1d3" stroke="transparent" points="2122,-10 2122,-30 2142,-30 2142,-10 2122,-10"/>
<text text-anchor="start" x="2145.7812" y="-15.4" font-family="sans-serif" font-size="14.00" fill="#000000"> &#160;Bootstrap</text>
<polygon fill="#fdb462" stroke="transparent" points="2219,-10 2219,-30 2239,-30 2239,-10 2219,-10"/>
<text text-anchor="start" x="2242.6732" y="-15.4" font-family="sans-serif" font-size="14.00" fill="#000000"> &#160;Providers</text>
<polygon fill="#fb8072" stroke="transparent" points="2315,-10 2315,-30 2335,-30 2335,-10 2315,-10"/>
<text text-anchor="start" x="2338.7258" y="-15.4" font-family="sans-serif" font-size="14.00" fill="#000000"> &#160;Exports</text>
<g id="clust1" class="cluster">
<title>cluster_AppModule</title>
<polygon fill="none" stroke="#000000" stroke-dasharray="1,5" points="956,-146 956,-412 2116,-412 2116,-146 956,-146"/>
</g>
<g id="clust3" class="cluster">
<title>cluster_AppModule_imports</title>
<polygon fill="none" stroke="#000000" points="1102,-154 1102,-347 2108,-347 2108,-154 1102,-154"/>
</g>
<g id="clust6" class="cluster">
<title>cluster_AppModule_providers</title>
<polygon fill="none" stroke="#000000" points="964,-295 964,-347 1094,-347 1094,-295 964,-295"/>
</g>
<g id="clust7" class="cluster">
<title>cluster_AuthModule</title>
<polygon fill="none" stroke="#000000" stroke-dasharray="1,5" points="3394,-211 3394,-279 3938,-279 3938,-211 3394,-211"/>
</g>
<g id="clust10" class="cluster">
<title>cluster_AuthModule_exports</title>
<polygon fill="none" stroke="#000000" points="3824,-219 3824,-271 3930,-271 3930,-219 3824,-219"/>
</g>
<g id="clust12" class="cluster">
<title>cluster_AuthModule_providers</title>
<polygon fill="none" stroke="#000000" points="3402,-219 3402,-271 3816,-271 3816,-219 3402,-219"/>
</g>
<g id="clust13" class="cluster">
<title>cluster_CompanyModule</title>
<polygon fill="none" stroke="#000000" stroke-dasharray="1,5" points="976,-70 976,-138 1164,-138 1164,-70 976,-70"/>
</g>
<g id="clust18" class="cluster">
<title>cluster_CompanyModule_providers</title>
<polygon fill="none" stroke="#000000" points="984,-78 984,-130 1156,-130 1156,-78 984,-78"/>
</g>
<g id="clust19" class="cluster">
<title>cluster_GreenScoreModule</title>
<polygon fill="none" stroke="#000000" stroke-dasharray="1,5" points="1172,-70 1172,-138 1376,-138 1376,-70 1172,-70"/>
</g>
<g id="clust24" class="cluster">
<title>cluster_GreenScoreModule_providers</title>
<polygon fill="none" stroke="#000000" points="1180,-78 1180,-130 1368,-130 1368,-78 1180,-78"/>
</g>
<g id="clust25" class="cluster">
<title>cluster_JoinTagPoiModule</title>
<polygon fill="none" stroke="#000000" stroke-dasharray="1,5" points="2124,-211 2124,-279 2474,-279 2474,-211 2124,-211"/>
</g>
<g id="clust28" class="cluster">
<title>cluster_JoinTagPoiModule_exports</title>
<polygon fill="none" stroke="#000000" points="2324,-219 2324,-271 2466,-271 2466,-219 2324,-219"/>
</g>
<g id="clust30" class="cluster">
<title>cluster_JoinTagPoiModule_providers</title>
<polygon fill="none" stroke="#000000" points="2132,-219 2132,-271 2316,-271 2316,-219 2132,-219"/>
</g>
<g id="clust31" class="cluster">
<title>cluster_JoinTypePoiModule</title>
<polygon fill="none" stroke="#000000" stroke-dasharray="1,5" points="2482,-211 2482,-279 2848,-279 2848,-211 2482,-211"/>
</g>
<g id="clust34" class="cluster">
<title>cluster_JoinTypePoiModule_exports</title>
<polygon fill="none" stroke="#000000" points="2692,-219 2692,-271 2840,-271 2840,-219 2692,-219"/>
</g>
<g id="clust36" class="cluster">
<title>cluster_JoinTypePoiModule_providers</title>
<polygon fill="none" stroke="#000000" points="2490,-219 2490,-271 2684,-271 2684,-219 2490,-219"/>
</g>
<g id="clust37" class="cluster">
<title>cluster_PercentTypeGreenScoreAndPoiModule</title>
<polygon fill="none" stroke="#000000" stroke-dasharray="1,5" points="3946,-211 3946,-279 4306,-279 4306,-211 3946,-211"/>
</g>
<g id="clust42" class="cluster">
<title>cluster_PercentTypeGreenScoreAndPoiModule_providers</title>
<polygon fill="none" stroke="#000000" points="3954,-219 3954,-271 4298,-271 4298,-219 3954,-219"/>
</g>
<g id="clust43" class="cluster">
<title>cluster_PoiModule</title>
<polygon fill="none" stroke="#000000" stroke-dasharray="1,5" points="8,-287 8,-355 250,-355 250,-287 8,-287"/>
</g>
<g id="clust46" class="cluster">
<title>cluster_PoiModule_exports</title>
<polygon fill="none" stroke="#000000" points="146,-295 146,-347 242,-347 242,-295 146,-295"/>
</g>
<g id="clust48" class="cluster">
<title>cluster_PoiModule_providers</title>
<polygon fill="none" stroke="#000000" points="16,-295 16,-347 138,-347 138,-295 16,-295"/>
</g>
<g id="clust49" class="cluster">
<title>cluster_RoleModule</title>
<polygon fill="none" stroke="#000000" stroke-dasharray="1,5" points="2856,-211 2856,-279 3116,-279 3116,-211 2856,-211"/>
</g>
<g id="clust52" class="cluster">
<title>cluster_RoleModule_exports</title>
<polygon fill="none" stroke="#000000" points="3004,-219 3004,-271 3108,-271 3108,-219 3004,-219"/>
</g>
<g id="clust54" class="cluster">
<title>cluster_RoleModule_providers</title>
<polygon fill="none" stroke="#000000" points="2864,-219 2864,-271 2996,-271 2996,-219 2864,-219"/>
</g>
<g id="clust55" class="cluster">
<title>cluster_TagsModule</title>
<polygon fill="none" stroke="#000000" stroke-dasharray="1,5" points="3124,-211 3124,-279 3386,-279 3386,-211 3124,-211"/>
</g>
<g id="clust58" class="cluster">
<title>cluster_TagsModule_exports</title>
<polygon fill="none" stroke="#000000" points="3274,-219 3274,-271 3378,-271 3378,-219 3274,-219"/>
</g>
<g id="clust60" class="cluster">
<title>cluster_TagsModule_providers</title>
<polygon fill="none" stroke="#000000" points="3132,-219 3132,-271 3266,-271 3266,-219 3132,-219"/>
</g>
<g id="clust61" class="cluster">
<title>cluster_TypeGreenScoreModule</title>
<polygon fill="none" stroke="#000000" stroke-dasharray="1,5" points="258,-287 258,-355 680,-355 680,-287 258,-287"/>
</g>
<g id="clust64" class="cluster">
<title>cluster_TypeGreenScoreModule_exports</title>
<polygon fill="none" stroke="#000000" points="500,-295 500,-347 672,-347 672,-295 500,-295"/>
</g>
<g id="clust66" class="cluster">
<title>cluster_TypeGreenScoreModule_providers</title>
<polygon fill="none" stroke="#000000" points="266,-295 266,-347 492,-347 492,-295 266,-295"/>
</g>
<g id="clust67" class="cluster">
<title>cluster_TypeModule</title>
<polygon fill="none" stroke="#000000" stroke-dasharray="1,5" points="1384,-70 1384,-138 1536,-138 1536,-70 1384,-70"/>
</g>
<g id="clust72" class="cluster">
<title>cluster_TypeModule_providers</title>
<polygon fill="none" stroke="#000000" points="1392,-78 1392,-130 1528,-130 1528,-78 1392,-78"/>
</g>
<g id="clust73" class="cluster">
<title>cluster_UserAppModule</title>
<polygon fill="none" stroke="#000000" stroke-dasharray="1,5" points="1544,-70 1544,-138 1726,-138 1726,-70 1544,-70"/>
</g>
<g id="clust78" class="cluster">
<title>cluster_UserAppModule_providers</title>
<polygon fill="none" stroke="#000000" points="1552,-78 1552,-130 1718,-130 1718,-78 1552,-78"/>
</g>
<g id="clust79" class="cluster">
<title>cluster_UserModule</title>
<polygon fill="none" stroke="#000000" stroke-dasharray="1,5" points="688,-287 688,-355 948,-355 948,-287 688,-287"/>
</g>
<g id="clust82" class="cluster">
<title>cluster_UserModule_exports</title>
<polygon fill="none" stroke="#000000" points="836,-295 836,-347 940,-347 940,-295 836,-295"/>
</g>
<g id="clust84" class="cluster">
<title>cluster_UserModule_providers</title>
<polygon fill="none" stroke="#000000" points="696,-295 696,-347 828,-347 828,-295 696,-295"/>
</g>
<!-- AuthModule -->
<g id="node1" class="node">
<title>AuthModule</title>
<polygon fill="#8dd3c7" stroke="#000000" points="2099.5482,-339 2096.5482,-343 2075.5482,-343 2072.5482,-339 2012.4518,-339 2012.4518,-303 2099.5482,-303 2099.5482,-339"/>
<text text-anchor="middle" x="2056" y="-316.8" font-family="Times,serif" font-size="14.00" fill="#000000">AuthModule</text>
</g>
<!-- AppModule -->
<g id="node14" class="node">
<title>AppModule</title>
<polygon fill="#8dd3c7" stroke="#000000" points="1634.6571,-404 1631.6571,-408 1610.6571,-408 1607.6571,-404 1551.3429,-404 1551.3429,-368 1634.6571,-368 1634.6571,-404"/>
<text text-anchor="middle" x="1593" y="-381.8" font-family="Times,serif" font-size="14.00" fill="#000000">AppModule</text>
</g>
<!-- AuthModule&#45;&gt;AppModule -->
<g id="edge1" class="edge">
<title>AuthModule&#45;&gt;AppModule</title>
<path fill="none" stroke="#000000" d="M2056,-339.2921C2056,-361.2057 2056,-395 2056,-395 2056,-395 1644.9048,-395 1644.9048,-395"/>
<polygon fill="#000000" stroke="#000000" points="1644.9048,-391.5001 1634.9048,-395 1644.9047,-398.5001 1644.9048,-391.5001"/>
</g>
<!-- AuthService  -->
<g id="node16" class="node">
<title>AuthService </title>
<polygon fill="#fb8072" stroke="#000000" points="3921.9761,-263 3832.0239,-263 3832.0239,-227 3921.9761,-227 3921.9761,-263"/>
<text text-anchor="middle" x="3877" y="-240.8" font-family="Times,serif" font-size="14.00" fill="#000000">AuthService </text>
</g>
<!-- AuthModule&#45;&gt;AuthService  -->
<g id="edge16" class="edge">
<title>AuthModule&#45;&gt;AuthService </title>
<path fill="none" stroke="#000000" stroke-dasharray="5,2" d="M2099.6635,-332C2376.5939,-332 3877,-332 3877,-332 3877,-332 3877,-273.0265 3877,-273.0265"/>
<polygon fill="#000000" stroke="#000000" points="3880.5001,-273.0264 3877,-263.0265 3873.5001,-273.0265 3880.5001,-273.0264"/>
</g>
<!-- CompanyModule -->
<g id="node2" class="node">
<title>CompanyModule</title>
<polygon fill="#8dd3c7" stroke="#000000" points="1223.9916,-198 1220.9916,-202 1199.9916,-202 1196.9916,-198 1110.0084,-198 1110.0084,-162 1223.9916,-162 1223.9916,-198"/>
<text text-anchor="middle" x="1167" y="-175.8" font-family="Times,serif" font-size="14.00" fill="#000000">CompanyModule</text>
</g>
<!-- CompanyModule&#45;&gt;AppModule -->
<g id="edge2" class="edge">
<title>CompanyModule&#45;&gt;AppModule</title>
<path fill="none" stroke="#000000" d="M1167,-198.3308C1167,-250.3238 1167,-395 1167,-395 1167,-395 1540.9876,-395 1540.9876,-395"/>
<polygon fill="#000000" stroke="#000000" points="1540.9877,-398.5001 1550.9876,-395 1540.9876,-391.5001 1540.9877,-398.5001"/>
</g>
<!-- GreenScoreModule -->
<g id="node3" class="node">
<title>GreenScoreModule</title>
<polygon fill="#8dd3c7" stroke="#000000" points="1367.6192,-198 1364.6192,-202 1343.6192,-202 1340.6192,-198 1242.3808,-198 1242.3808,-162 1367.6192,-162 1367.6192,-198"/>
<text text-anchor="middle" x="1305" y="-175.8" font-family="Times,serif" font-size="14.00" fill="#000000">GreenScoreModule</text>
</g>
<!-- GreenScoreModule&#45;&gt;AppModule -->
<g id="edge3" class="edge">
<title>GreenScoreModule&#45;&gt;AppModule</title>
<path fill="none" stroke="#000000" d="M1305,-198.2811C1305,-248.6971 1305,-386 1305,-386 1305,-386 1541.1223,-386 1541.1223,-386"/>
<polygon fill="#000000" stroke="#000000" points="1541.1224,-389.5001 1551.1223,-386 1541.1223,-382.5001 1541.1224,-389.5001"/>
</g>
<!-- JoinTagPoiModule -->
<g id="node4" class="node">
<title>JoinTagPoiModule</title>
<polygon fill="#8dd3c7" stroke="#000000" points="1743.8258,-198 1740.8258,-202 1719.8258,-202 1716.8258,-198 1620.1742,-198 1620.1742,-162 1743.8258,-162 1743.8258,-198"/>
<text text-anchor="middle" x="1682" y="-175.8" font-family="Times,serif" font-size="14.00" fill="#000000">JoinTagPoiModule</text>
</g>
<!-- PoiModule -->
<g id="node7" class="node">
<title>PoiModule</title>
<polygon fill="#8dd3c7" stroke="#000000" points="1720.2233,-263 1717.2233,-267 1696.2233,-267 1693.2233,-263 1641.7767,-263 1641.7767,-227 1720.2233,-227 1720.2233,-263"/>
<text text-anchor="middle" x="1681" y="-240.8" font-family="Times,serif" font-size="14.00" fill="#000000">PoiModule</text>
</g>
<!-- JoinTagPoiModule&#45;&gt;PoiModule -->
<g id="edge29" class="edge">
<title>JoinTagPoiModule&#45;&gt;PoiModule</title>
<path fill="none" stroke="#000000" d="M1667.9628,-198.1061C1667.9628,-198.1061 1667.9628,-216.991 1667.9628,-216.991"/>
<polygon fill="#000000" stroke="#000000" points="1664.4629,-216.9909 1667.9628,-226.991 1671.4629,-216.991 1664.4629,-216.9909"/>
</g>
<!-- JoinTagPoiModule&#45;&gt;AppModule -->
<g id="edge4" class="edge">
<title>JoinTagPoiModule&#45;&gt;AppModule</title>
<path fill="none" stroke="#000000" d="M1622.4074,-198.2811C1622.4074,-198.2811 1622.4074,-357.7598 1622.4074,-357.7598"/>
<polygon fill="#000000" stroke="#000000" points="1618.9075,-357.7598 1622.4074,-367.7598 1625.9075,-357.7599 1618.9075,-357.7598"/>
</g>
<!-- JoinTagPoiService  -->
<g id="node22" class="node">
<title>JoinTagPoiService </title>
<polygon fill="#fb8072" stroke="#000000" points="2457.7535,-263 2332.2465,-263 2332.2465,-227 2457.7535,-227 2457.7535,-263"/>
<text text-anchor="middle" x="2395" y="-240.8" font-family="Times,serif" font-size="14.00" fill="#000000">JoinTagPoiService </text>
</g>
<!-- JoinTagPoiModule&#45;&gt;JoinTagPoiService  -->
<g id="edge22" class="edge">
<title>JoinTagPoiModule&#45;&gt;JoinTagPoiService </title>
<path fill="none" stroke="#000000" stroke-dasharray="5,2" d="M1726.01,-198.0449C1726.01,-205.749 1726.01,-213 1726.01,-213 1726.01,-213 2395,-213 2395,-213 2395,-213 2395,-216.7566 2395,-216.7566"/>
<polygon fill="#000000" stroke="#000000" points="2391.5001,-216.7566 2395,-226.7566 2398.5001,-216.7566 2391.5001,-216.7566"/>
</g>
<!-- JoinTypePoiModule -->
<g id="node5" class="node">
<title>JoinTypePoiModule</title>
<polygon fill="#8dd3c7" stroke="#000000" points="1892.3258,-198 1889.3258,-202 1868.3258,-202 1865.3258,-198 1761.6742,-198 1761.6742,-162 1892.3258,-162 1892.3258,-198"/>
<text text-anchor="middle" x="1827" y="-175.8" font-family="Times,serif" font-size="14.00" fill="#000000">JoinTypePoiModule</text>
</g>
<!-- JoinTypePoiModule&#45;&gt;AppModule -->
<g id="edge5" class="edge">
<title>JoinTypePoiModule&#45;&gt;AppModule</title>
<path fill="none" stroke="#000000" d="M1794.4187,-198.1299C1794.4187,-208.3145 1794.4187,-219 1794.4187,-219 1794.4187,-219 1624.4776,-219 1624.4776,-219 1624.4776,-219 1624.4776,-357.8102 1624.4776,-357.8102"/>
<polygon fill="#000000" stroke="#000000" points="1620.9777,-357.8101 1624.4776,-367.8102 1627.9777,-357.8102 1620.9777,-357.8101"/>
</g>
<!-- JoinTypePoiService  -->
<g id="node24" class="node">
<title>JoinTypePoiService </title>
<polygon fill="#fb8072" stroke="#000000" points="2832.2534,-263 2699.7466,-263 2699.7466,-227 2832.2534,-227 2832.2534,-263"/>
<text text-anchor="middle" x="2766" y="-240.8" font-family="Times,serif" font-size="14.00" fill="#000000">JoinTypePoiService </text>
</g>
<!-- JoinTypePoiModule&#45;&gt;JoinTypePoiService  -->
<g id="edge24" class="edge">
<title>JoinTypePoiModule&#45;&gt;JoinTypePoiService </title>
<path fill="none" stroke="#000000" stroke-dasharray="5,2" d="M1827,-198.1592C1827,-203.0433 1827,-207 1827,-207 1827,-207 2766,-207 2766,-207 2766,-207 2766,-216.8903 2766,-216.8903"/>
<polygon fill="#000000" stroke="#000000" points="2762.5001,-216.8903 2766,-226.8903 2769.5001,-216.8904 2762.5001,-216.8903"/>
</g>
<!-- PercentTypeGreenScoreAndPoiModule -->
<g id="node6" class="node">
<title>PercentTypeGreenScoreAndPoiModule</title>
<polygon fill="#8dd3c7" stroke="#000000" points="1941.6432,-339 1938.6432,-343 1917.6432,-343 1914.6432,-339 1702.3568,-339 1702.3568,-303 1941.6432,-303 1941.6432,-339"/>
<text text-anchor="middle" x="1822" y="-316.8" font-family="Times,serif" font-size="14.00" fill="#000000">PercentTypeGreenScoreAndPoiModule</text>
</g>
<!-- PercentTypeGreenScoreAndPoiModule&#45;&gt;AppModule -->
<g id="edge6" class="edge">
<title>PercentTypeGreenScoreAndPoiModule&#45;&gt;AppModule</title>
<path fill="none" stroke="#000000" d="M1702.4186,-327C1664.7457,-327 1632.7581,-327 1632.7581,-327 1632.7581,-327 1632.7581,-357.9775 1632.7581,-357.9775"/>
<polygon fill="#000000" stroke="#000000" points="1629.2582,-357.9774 1632.7581,-367.9775 1636.2582,-357.9775 1629.2582,-357.9774"/>
</g>
<!-- PoiModule&#45;&gt;PercentTypeGreenScoreAndPoiModule -->
<g id="edge26" class="edge">
<title>PoiModule&#45;&gt;PercentTypeGreenScoreAndPoiModule</title>
<path fill="none" stroke="#000000" d="M1711.27,-263.0109C1711.27,-263.0109 1711.27,-292.855 1711.27,-292.855"/>
<polygon fill="#000000" stroke="#000000" points="1707.77,-292.8549 1711.27,-302.855 1714.77,-292.855 1707.77,-292.8549"/>
</g>
<!-- PoiModule&#45;&gt;AppModule -->
<g id="edge7" class="edge">
<title>PoiModule&#45;&gt;AppModule</title>
<path fill="none" stroke="#000000" d="M1641.8361,-254C1634.2576,-254 1628.6178,-254 1628.6178,-254 1628.6178,-254 1628.6178,-357.9227 1628.6178,-357.9227"/>
<polygon fill="#000000" stroke="#000000" points="1625.1179,-357.9227 1628.6178,-367.9227 1632.1179,-357.9228 1625.1179,-357.9227"/>
</g>
<!-- PoiService  -->
<g id="node27" class="node">
<title>PoiService </title>
<polygon fill="#fb8072" stroke="#000000" points="234.1509,-339 153.8491,-339 153.8491,-303 234.1509,-303 234.1509,-339"/>
<text text-anchor="middle" x="194" y="-316.8" font-family="Times,serif" font-size="14.00" fill="#000000">PoiService </text>
</g>
<!-- PoiModule&#45;&gt;PoiService  -->
<g id="edge31" class="edge">
<title>PoiModule&#45;&gt;PoiService </title>
<path fill="none" stroke="#000000" stroke-dasharray="5,2" d="M1641.6094,-245C1406.0621,-245 194,-245 194,-245 194,-245 194,-292.9891 194,-292.9891"/>
<polygon fill="#000000" stroke="#000000" points="190.5001,-292.989 194,-302.9891 197.5001,-292.9891 190.5001,-292.989"/>
</g>
<!-- RoleModule -->
<g id="node8" class="node">
<title>RoleModule</title>
<polygon fill="#8dd3c7" stroke="#000000" points="1995.9916,-198 1992.9916,-202 1971.9916,-202 1968.9916,-198 1910.0084,-198 1910.0084,-162 1995.9916,-162 1995.9916,-198"/>
<text text-anchor="middle" x="1953" y="-175.8" font-family="Times,serif" font-size="14.00" fill="#000000">RoleModule</text>
</g>
<!-- UserModule -->
<g id="node13" class="node">
<title>UserModule</title>
<polygon fill="#8dd3c7" stroke="#000000" points="1995.9762,-263 1992.9762,-267 1971.9762,-267 1968.9762,-263 1910.0238,-263 1910.0238,-227 1995.9762,-227 1995.9762,-263"/>
<text text-anchor="middle" x="1953" y="-240.8" font-family="Times,serif" font-size="14.00" fill="#000000">UserModule</text>
</g>
<!-- RoleModule&#45;&gt;UserModule -->
<g id="edge41" class="edge">
<title>RoleModule&#45;&gt;UserModule</title>
<path fill="none" stroke="#000000" d="M1944.4024,-198.1061C1944.4024,-198.1061 1944.4024,-216.991 1944.4024,-216.991"/>
<polygon fill="#000000" stroke="#000000" points="1940.9025,-216.9909 1944.4024,-226.991 1947.9025,-216.991 1940.9025,-216.9909"/>
</g>
<!-- RoleModule&#45;&gt;AppModule -->
<g id="edge8" class="edge">
<title>RoleModule&#45;&gt;AppModule</title>
<path fill="none" stroke="#000000" d="M1927.2071,-198.0555C1927.2071,-209.439 1927.2071,-222 1927.2071,-222 1927.2071,-222 1626.5477,-222 1626.5477,-222 1626.5477,-222 1626.5477,-357.8225 1626.5477,-357.8225"/>
<polygon fill="#000000" stroke="#000000" points="1623.0478,-357.8225 1626.5477,-367.8225 1630.0478,-357.8226 1623.0478,-357.8225"/>
</g>
<!-- RoleService  -->
<g id="node29" class="node">
<title>RoleService </title>
<polygon fill="#fb8072" stroke="#000000" points="3099.9194,-263 3012.0806,-263 3012.0806,-227 3099.9194,-227 3099.9194,-263"/>
<text text-anchor="middle" x="3056" y="-240.8" font-family="Times,serif" font-size="14.00" fill="#000000">RoleService </text>
</g>
<!-- RoleModule&#45;&gt;RoleService  -->
<g id="edge33" class="edge">
<title>RoleModule&#45;&gt;RoleService </title>
<path fill="none" stroke="#000000" stroke-dasharray="5,2" d="M1961.5976,-198.08C1961.5976,-199.8464 1961.5976,-201 1961.5976,-201 1961.5976,-201 3056,-201 3056,-201 3056,-201 3056,-216.8495 3056,-216.8495"/>
<polygon fill="#000000" stroke="#000000" points="3052.5001,-216.8494 3056,-226.8495 3059.5001,-216.8495 3052.5001,-216.8494"/>
</g>
<!-- TagsModule -->
<g id="node9" class="node">
<title>TagsModule</title>
<polygon fill="#8dd3c7" stroke="#000000" points="2100.2619,-198 2097.2619,-202 2076.2619,-202 2073.2619,-198 2013.7381,-198 2013.7381,-162 2100.2619,-162 2100.2619,-198"/>
<text text-anchor="middle" x="2057" y="-175.8" font-family="Times,serif" font-size="14.00" fill="#000000">TagsModule</text>
</g>
<!-- TagsModule&#45;&gt;PoiModule -->
<g id="edge30" class="edge">
<title>TagsModule&#45;&gt;PoiModule</title>
<path fill="none" stroke="#000000" d="M2056.6964,-198.0439C2056.6964,-210.5633 2056.6964,-225 2056.6964,-225 2056.6964,-225 1694.0372,-225 1694.0372,-225 1694.0372,-225 1694.0372,-225.1846 1694.0372,-225.1846"/>
<polygon fill="#000000" stroke="#000000" points="1690.5378,-216.8455 1694.0372,-226.8457 1697.5378,-216.8459 1690.5378,-216.8455"/>
</g>
<!-- TagsModule&#45;&gt;AppModule -->
<g id="edge9" class="edge">
<title>TagsModule&#45;&gt;AppModule</title>
<path fill="none" stroke="#000000" d="M2013.3237,-180C2007.8428,-180 2004.1112,-180 2004.1112,-180 2004.1112,-180 2004.1112,-386 2004.1112,-386 2004.1112,-386 1644.6819,-386 1644.6819,-386"/>
<polygon fill="#000000" stroke="#000000" points="1644.682,-382.5001 1634.6819,-386 1644.6819,-389.5001 1644.682,-382.5001"/>
</g>
<!-- TagsService  -->
<g id="node31" class="node">
<title>TagsService </title>
<polygon fill="#fb8072" stroke="#000000" points="3370.1899,-263 3281.8101,-263 3281.8101,-227 3370.1899,-227 3370.1899,-263"/>
<text text-anchor="middle" x="3326" y="-240.8" font-family="Times,serif" font-size="14.00" fill="#000000">TagsService </text>
</g>
<!-- TagsModule&#45;&gt;TagsService  -->
<g id="edge35" class="edge">
<title>TagsModule&#45;&gt;TagsService </title>
<path fill="none" stroke="#000000" stroke-dasharray="5,2" d="M2100.3147,-174C2322.7213,-174 3326,-174 3326,-174 3326,-174 3326,-216.7157 3326,-216.7157"/>
<polygon fill="#000000" stroke="#000000" points="3322.5001,-216.7157 3326,-226.7157 3329.5001,-216.7158 3322.5001,-216.7157"/>
</g>
<!-- TypeGreenScoreModule -->
<g id="node10" class="node">
<title>TypeGreenScoreModule</title>
<polygon fill="#8dd3c7" stroke="#000000" points="1892.3863,-263 1889.3863,-267 1868.3863,-267 1865.3863,-263 1737.6137,-263 1737.6137,-227 1892.3863,-227 1892.3863,-263"/>
<text text-anchor="middle" x="1815" y="-240.8" font-family="Times,serif" font-size="14.00" fill="#000000">TypeGreenScoreModule</text>
</g>
<!-- TypeGreenScoreModule&#45;&gt;PercentTypeGreenScoreAndPoiModule -->
<g id="edge27" class="edge">
<title>TypeGreenScoreModule&#45;&gt;PercentTypeGreenScoreAndPoiModule</title>
<path fill="none" stroke="#000000" d="M1861.3157,-263.0109C1861.3157,-263.0109 1861.3157,-292.855 1861.3157,-292.855"/>
<polygon fill="#000000" stroke="#000000" points="1857.8158,-292.8549 1861.3157,-302.855 1864.8158,-292.855 1857.8158,-292.8549"/>
</g>
<!-- TypeGreenScoreModule&#45;&gt;AppModule -->
<g id="edge10" class="edge">
<title>TypeGreenScoreModule&#45;&gt;AppModule</title>
<path fill="none" stroke="#000000" d="M1830.4386,-263.2396C1830.4386,-278.5706 1830.4386,-298 1830.4386,-298 1830.4386,-298 1630.6879,-298 1630.6879,-298 1630.6879,-298 1630.6879,-357.7663 1630.6879,-357.7663"/>
<polygon fill="#000000" stroke="#000000" points="1627.188,-357.7663 1630.6879,-367.7663 1634.188,-357.7664 1627.188,-357.7663"/>
</g>
<!-- TypeGreenScoreService  -->
<g id="node33" class="node">
<title>TypeGreenScoreService </title>
<polygon fill="#fb8072" stroke="#000000" points="664.3139,-339 507.6861,-339 507.6861,-303 664.3139,-303 664.3139,-339"/>
<text text-anchor="middle" x="586" y="-316.8" font-family="Times,serif" font-size="14.00" fill="#000000">TypeGreenScoreService </text>
</g>
<!-- TypeGreenScoreModule&#45;&gt;TypeGreenScoreService  -->
<g id="edge37" class="edge">
<title>TypeGreenScoreModule&#45;&gt;TypeGreenScoreService </title>
<path fill="none" stroke="#000000" stroke-dasharray="5,2" d="M1799.5614,-263.1432C1799.5614,-269.4611 1799.5614,-275 1799.5614,-275 1799.5614,-275 586,-275 586,-275 586,-275 586,-292.8196 586,-292.8196"/>
<polygon fill="#000000" stroke="#000000" points="582.5001,-292.8195 586,-302.8196 589.5001,-292.8196 582.5001,-292.8195"/>
</g>
<!-- TypeModule -->
<g id="node11" class="node">
<title>TypeModule</title>
<polygon fill="#8dd3c7" stroke="#000000" points="1474.3176,-198 1471.3176,-202 1450.3176,-202 1447.3176,-198 1385.6824,-198 1385.6824,-162 1474.3176,-162 1474.3176,-198"/>
<text text-anchor="middle" x="1430" y="-175.8" font-family="Times,serif" font-size="14.00" fill="#000000">TypeModule</text>
</g>
<!-- TypeModule&#45;&gt;AppModule -->
<g id="edge11" class="edge">
<title>TypeModule&#45;&gt;AppModule</title>
<path fill="none" stroke="#000000" d="M1430,-198.1802C1430,-246.9492 1430,-377 1430,-377 1430,-377 1541.0234,-377 1541.0234,-377"/>
<polygon fill="#000000" stroke="#000000" points="1541.0235,-380.5001 1551.0234,-377 1541.0234,-373.5001 1541.0235,-380.5001"/>
</g>
<!-- UserAppModule -->
<g id="node12" class="node">
<title>UserAppModule</title>
<polygon fill="#8dd3c7" stroke="#000000" points="1602.0828,-198 1599.0828,-202 1578.0828,-202 1575.0828,-198 1491.9172,-198 1491.9172,-162 1602.0828,-162 1602.0828,-198"/>
<text text-anchor="middle" x="1547" y="-175.8" font-family="Times,serif" font-size="14.00" fill="#000000">UserAppModule</text>
</g>
<!-- UserAppModule&#45;&gt;AppModule -->
<g id="edge12" class="edge">
<title>UserAppModule&#45;&gt;AppModule</title>
<path fill="none" stroke="#000000" d="M1585.0849,-198.2811C1585.0849,-198.2811 1585.0849,-357.7598 1585.0849,-357.7598"/>
<polygon fill="#000000" stroke="#000000" points="1581.585,-357.7598 1585.0849,-367.7598 1588.585,-357.7599 1581.585,-357.7598"/>
</g>
<!-- UserModule&#45;&gt;AuthModule -->
<g id="edge15" class="edge">
<title>UserModule&#45;&gt;AuthModule</title>
<path fill="none" stroke="#000000" d="M1977.8493,-263.0109C1977.8493,-285.4852 1977.8493,-321 1977.8493,-321 1977.8493,-321 2002.3548,-321 2002.3548,-321"/>
<polygon fill="#000000" stroke="#000000" points="2002.3548,-324.5001 2012.3548,-321 2002.3548,-317.5001 2002.3548,-324.5001"/>
</g>
<!-- UserModule&#45;&gt;AppModule -->
<g id="edge13" class="edge">
<title>UserModule&#45;&gt;AppModule</title>
<path fill="none" stroke="#000000" d="M1959.7104,-263.0773C1959.7104,-299.2287 1959.7104,-377 1959.7104,-377 1959.7104,-377 1644.7093,-377 1644.7093,-377"/>
<polygon fill="#000000" stroke="#000000" points="1644.7094,-373.5001 1634.7093,-377 1644.7093,-380.5001 1644.7094,-373.5001"/>
</g>
<!-- UserService  -->
<g id="node37" class="node">
<title>UserService </title>
<polygon fill="#fb8072" stroke="#000000" points="931.9041,-339 844.0959,-339 844.0959,-303 931.9041,-303 931.9041,-339"/>
<text text-anchor="middle" x="888" y="-316.8" font-family="Times,serif" font-size="14.00" fill="#000000">UserService </text>
</g>
<!-- UserModule&#45;&gt;UserService  -->
<g id="edge42" class="edge">
<title>UserModule&#45;&gt;UserService </title>
<path fill="none" stroke="#000000" stroke-dasharray="5,2" d="M1925.7918,-263.1025C1925.7918,-274.0859 1925.7918,-286 1925.7918,-286 1925.7918,-286 888,-286 888,-286 888,-286 888,-292.68 888,-292.68"/>
<polygon fill="#000000" stroke="#000000" points="884.5001,-292.6799 888,-302.68 891.5001,-292.68 884.5001,-292.6799"/>
</g>
<!-- AppService -->
<g id="node15" class="node">
<title>AppService</title>
<ellipse fill="#fdb462" stroke="#000000" cx="1029" cy="-321" rx="56.7406" ry="18"/>
<text text-anchor="middle" x="1029" y="-316.8" font-family="Times,serif" font-size="14.00" fill="#000000">AppService</text>
</g>
<!-- AppService&#45;&gt;AppModule -->
<g id="edge14" class="edge">
<title>AppService&#45;&gt;AppModule</title>
<path fill="none" stroke="#000000" d="M1082.6647,-315C1219.0309,-315 1568.1283,-315 1568.1283,-315 1568.1283,-315 1568.1283,-357.7157 1568.1283,-357.7157"/>
<polygon fill="#000000" stroke="#000000" points="1564.6284,-357.7157 1568.1283,-367.7157 1571.6284,-357.7158 1564.6284,-357.7157"/>
</g>
<!-- AuthService -->
<g id="node17" class="node">
<title>AuthService</title>
<ellipse fill="#fdb462" stroke="#000000" cx="3749" cy="-245" rx="59.1083" ry="18"/>
<text text-anchor="middle" x="3749" y="-240.8" font-family="Times,serif" font-size="14.00" fill="#000000">AuthService</text>
</g>
<!-- AuthService&#45;&gt;AuthModule -->
<g id="edge17" class="edge">
<title>AuthService&#45;&gt;AuthModule</title>
<path fill="none" stroke="#000000" d="M3749,-263.1532C3749,-286.7566 3749,-325 3749,-325 3749,-325 2109.551,-325 2109.551,-325"/>
<polygon fill="#000000" stroke="#000000" points="2109.551,-321.5001 2099.551,-325 2109.551,-328.5001 2109.551,-321.5001"/>
</g>
<!-- JwtStrategy -->
<g id="node18" class="node">
<title>JwtStrategy</title>
<ellipse fill="#fdb462" stroke="#000000" cx="3615" cy="-245" rx="56.7561" ry="18"/>
<text text-anchor="middle" x="3615" y="-240.8" font-family="Times,serif" font-size="14.00" fill="#000000">JwtStrategy</text>
</g>
<!-- JwtStrategy&#45;&gt;AuthModule -->
<g id="edge18" class="edge">
<title>JwtStrategy&#45;&gt;AuthModule</title>
<path fill="none" stroke="#000000" d="M3615,-263.0449C3615,-284.6623 3615,-318 3615,-318 3615,-318 2109.7342,-318 2109.7342,-318"/>
<polygon fill="#000000" stroke="#000000" points="2109.7343,-314.5001 2099.7342,-318 2109.7342,-321.5001 2109.7343,-314.5001"/>
</g>
<!-- LocalStrategy -->
<g id="node19" class="node">
<title>LocalStrategy</title>
<ellipse fill="#fdb462" stroke="#000000" cx="3475" cy="-245" rx="65.4053" ry="18"/>
<text text-anchor="middle" x="3475" y="-240.8" font-family="Times,serif" font-size="14.00" fill="#000000">LocalStrategy</text>
</g>
<!-- LocalStrategy&#45;&gt;AuthModule -->
<g id="edge19" class="edge">
<title>LocalStrategy&#45;&gt;AuthModule</title>
<path fill="none" stroke="#000000" d="M3475,-263.0348C3475,-282.5762 3475,-311 3475,-311 3475,-311 2109.6325,-311 2109.6325,-311"/>
<polygon fill="#000000" stroke="#000000" points="2109.6325,-307.5001 2099.6325,-311 2109.6324,-314.5001 2109.6325,-307.5001"/>
</g>
<!-- CompanyService -->
<g id="node20" class="node">
<title>CompanyService</title>
<ellipse fill="#fdb462" stroke="#000000" cx="1070" cy="-104" rx="77.5897" ry="18"/>
<text text-anchor="middle" x="1070" y="-99.8" font-family="Times,serif" font-size="14.00" fill="#000000">CompanyService</text>
</g>
<!-- CompanyService&#45;&gt;CompanyModule -->
<g id="edge20" class="edge">
<title>CompanyService&#45;&gt;CompanyModule</title>
<path fill="none" stroke="#000000" d="M1128.7745,-115.875C1128.7745,-115.875 1128.7745,-151.9891 1128.7745,-151.9891"/>
<polygon fill="#000000" stroke="#000000" points="1125.2746,-151.989 1128.7745,-161.9891 1132.2746,-151.9891 1125.2746,-151.989"/>
</g>
<!-- GreenScoreService -->
<g id="node21" class="node">
<title>GreenScoreService</title>
<ellipse fill="#fdb462" stroke="#000000" cx="1274" cy="-104" rx="85.6299" ry="18"/>
<text text-anchor="middle" x="1274" y="-99.8" font-family="Times,serif" font-size="14.00" fill="#000000">GreenScoreService</text>
</g>
<!-- GreenScoreService&#45;&gt;GreenScoreModule -->
<g id="edge21" class="edge">
<title>GreenScoreService&#45;&gt;GreenScoreModule</title>
<path fill="none" stroke="#000000" d="M1300.8778,-121.2456C1300.8778,-121.2456 1300.8778,-151.7629 1300.8778,-151.7629"/>
<polygon fill="#000000" stroke="#000000" points="1297.3779,-151.7628 1300.8778,-161.7629 1304.3779,-151.7629 1297.3779,-151.7628"/>
</g>
<!-- JoinTagPoiService -->
<g id="node23" class="node">
<title>JoinTagPoiService</title>
<ellipse fill="#fdb462" stroke="#000000" cx="2224" cy="-245" rx="83.9663" ry="18"/>
<text text-anchor="middle" x="2224" y="-240.8" font-family="Times,serif" font-size="14.00" fill="#000000">JoinTagPoiService</text>
</g>
<!-- JoinTagPoiService&#45;&gt;JoinTagPoiModule -->
<g id="edge23" class="edge">
<title>JoinTagPoiService&#45;&gt;JoinTagPoiModule</title>
<path fill="none" stroke="#000000" d="M2224,-226.7985C2224,-220.972 2224,-216 2224,-216 2224,-216 1731.9086,-216 1731.9086,-216 1731.9086,-216 1731.9086,-208.4218 1731.9086,-208.4218"/>
<polygon fill="#000000" stroke="#000000" points="1735.4087,-208.4218 1731.9086,-198.4218 1728.4087,-208.4219 1735.4087,-208.4218"/>
</g>
<!-- JoinTypePoiService -->
<g id="node25" class="node">
<title>JoinTypePoiService</title>
<ellipse fill="#fdb462" stroke="#000000" cx="2587" cy="-245" rx="88.6236" ry="18"/>
<text text-anchor="middle" x="2587" y="-240.8" font-family="Times,serif" font-size="14.00" fill="#000000">JoinTypePoiService</text>
</g>
<!-- JoinTypePoiService&#45;&gt;JoinTypePoiModule -->
<g id="edge25" class="edge">
<title>JoinTypePoiService&#45;&gt;JoinTypePoiModule</title>
<path fill="none" stroke="#000000" d="M2587,-226.68C2587,-218.2117 2587,-210 2587,-210 2587,-210 1859.5814,-210 1859.5814,-210 1859.5814,-210 1859.5814,-208.1432 1859.5814,-208.1432"/>
<polygon fill="#000000" stroke="#000000" points="1863.0814,-208.1432 1859.5814,-198.1432 1856.0814,-208.1432 1863.0814,-208.1432"/>
</g>
<!-- PercentTypeGreenScoreAndPoiService -->
<g id="node26" class="node">
<title>PercentTypeGreenScoreAndPoiService</title>
<ellipse fill="#fdb462" stroke="#000000" cx="4126" cy="-245" rx="163.7444" ry="18"/>
<text text-anchor="middle" x="4126" y="-240.8" font-family="Times,serif" font-size="14.00" fill="#000000">PercentTypeGreenScoreAndPoiService</text>
</g>
<!-- PercentTypeGreenScoreAndPoiService&#45;&gt;PercentTypeGreenScoreAndPoiModule -->
<g id="edge28" class="edge">
<title>PercentTypeGreenScoreAndPoiService&#45;&gt;PercentTypeGreenScoreAndPoiModule</title>
<path fill="none" stroke="#000000" d="M4126,-263.037C4126,-276.2913 4126,-292 4126,-292 4126,-292 1933.6817,-292 1933.6817,-292 1933.6817,-292 1933.6817,-293.0799 1933.6817,-293.0799"/>
<polygon fill="#000000" stroke="#000000" points="1930.1818,-292.7985 1933.6817,-302.7985 1937.1818,-292.7986 1930.1818,-292.7985"/>
</g>
<!-- PoiService -->
<g id="node28" class="node">
<title>PoiService</title>
<ellipse fill="#fdb462" stroke="#000000" cx="77" cy="-321" rx="52.745" ry="18"/>
<text text-anchor="middle" x="77" y="-316.8" font-family="Times,serif" font-size="14.00" fill="#000000">PoiService</text>
</g>
<!-- PoiService&#45;&gt;PoiModule -->
<g id="edge32" class="edge">
<title>PoiService&#45;&gt;PoiModule</title>
<path fill="none" stroke="#000000" d="M77,-302.9737C77,-278.0227 77,-236 77,-236 77,-236 1631.7487,-236 1631.7487,-236"/>
<polygon fill="#000000" stroke="#000000" points="1631.7487,-239.5001 1641.7487,-236 1631.7486,-232.5001 1631.7487,-239.5001"/>
</g>
<!-- RoleService -->
<g id="node30" class="node">
<title>RoleService</title>
<ellipse fill="#fdb462" stroke="#000000" cx="2930" cy="-245" rx="58.4628" ry="18"/>
<text text-anchor="middle" x="2930" y="-240.8" font-family="Times,serif" font-size="14.00" fill="#000000">RoleService</text>
</g>
<!-- RoleService&#45;&gt;RoleModule -->
<g id="edge34" class="edge">
<title>RoleService&#45;&gt;RoleModule</title>
<path fill="none" stroke="#000000" d="M2930,-226.8975C2930,-215.9141 2930,-204 2930,-204 2930,-204 1978.7929,-204 1978.7929,-204 1978.7929,-204 1978.7929,-203.419 1978.7929,-203.419"/>
<polygon fill="#000000" stroke="#000000" points="1982.2931,-208.1902 1978.7929,-198.1903 1975.2931,-208.1903 1982.2931,-208.1902"/>
</g>
<!-- TagsService -->
<g id="node32" class="node">
<title>TagsService</title>
<ellipse fill="#fdb462" stroke="#000000" cx="3199" cy="-245" rx="58.5251" ry="18"/>
<text text-anchor="middle" x="3199" y="-240.8" font-family="Times,serif" font-size="14.00" fill="#000000">TagsService</text>
</g>
<!-- TagsService&#45;&gt;TagsModule -->
<g id="edge36" class="edge">
<title>TagsService&#45;&gt;TagsModule</title>
<path fill="none" stroke="#000000" d="M3199,-226.9775C3199,-209.6266 3199,-186 3199,-186 3199,-186 2110.3733,-186 2110.3733,-186"/>
<polygon fill="#000000" stroke="#000000" points="2110.3733,-182.5001 2100.3733,-186 2110.3732,-189.5001 2110.3733,-182.5001"/>
</g>
<!-- TypeGreenScoreService -->
<g id="node34" class="node">
<title>TypeGreenScoreService</title>
<ellipse fill="#fdb462" stroke="#000000" cx="379" cy="-321" rx="105.3161" ry="18"/>
<text text-anchor="middle" x="379" y="-316.8" font-family="Times,serif" font-size="14.00" fill="#000000">TypeGreenScoreService</text>
</g>
<!-- TypeGreenScoreService&#45;&gt;TypeGreenScoreModule -->
<g id="edge38" class="edge">
<title>TypeGreenScoreService&#45;&gt;TypeGreenScoreModule</title>
<path fill="none" stroke="#000000" d="M379,-302.8129C379,-287.8176 379,-269 379,-269 379,-269 1768.6843,-269 1768.6843,-269 1768.6843,-269 1768.6843,-268.419 1768.6843,-268.419"/>
<polygon fill="#000000" stroke="#000000" points="1772.1845,-273.1902 1768.6843,-263.1903 1765.1845,-273.1903 1772.1845,-273.1902"/>
</g>
<!-- TypeService -->
<g id="node35" class="node">
<title>TypeService</title>
<ellipse fill="#fdb462" stroke="#000000" cx="1460" cy="-104" rx="59.6704" ry="18"/>
<text text-anchor="middle" x="1460" y="-99.8" font-family="Times,serif" font-size="14.00" fill="#000000">TypeService</text>
</g>
<!-- TypeService&#45;&gt;TypeModule -->
<g id="edge39" class="edge">
<title>TypeService&#45;&gt;TypeModule</title>
<path fill="none" stroke="#000000" d="M1437.1618,-120.8669C1437.1618,-120.8669 1437.1618,-151.8535 1437.1618,-151.8535"/>
<polygon fill="#000000" stroke="#000000" points="1433.6619,-151.8534 1437.1618,-161.8535 1440.6619,-151.8535 1433.6619,-151.8534"/>
</g>
<!-- UserAppService -->
<g id="node36" class="node">
<title>UserAppService</title>
<ellipse fill="#fdb462" stroke="#000000" cx="1635" cy="-104" rx="74.6976" ry="18"/>
<text text-anchor="middle" x="1635" y="-99.8" font-family="Times,serif" font-size="14.00" fill="#000000">UserAppService</text>
</g>
<!-- UserAppService&#45;&gt;UserAppModule -->
<g id="edge40" class="edge">
<title>UserAppService&#45;&gt;UserAppModule</title>
<path fill="none" stroke="#000000" d="M1581.0964,-116.5499C1581.0964,-116.5499 1581.0964,-151.7417 1581.0964,-151.7417"/>
<polygon fill="#000000" stroke="#000000" points="1577.5965,-151.7417 1581.0964,-161.7417 1584.5965,-151.7418 1577.5965,-151.7417"/>
</g>
<!-- UserService -->
<g id="node38" class="node">
<title>UserService</title>
<ellipse fill="#fdb462" stroke="#000000" cx="762" cy="-321" rx="58.4415" ry="18"/>
<text text-anchor="middle" x="762" y="-316.8" font-family="Times,serif" font-size="14.00" fill="#000000">UserService</text>
</g>
<!-- UserService&#45;&gt;UserModule -->
<g id="edge43" class="edge">
<title>UserService&#45;&gt;UserModule</title>
<path fill="none" stroke="#000000" d="M762,-302.8726C762,-292.2891 762,-281 762,-281 762,-281 1917.9018,-281 1917.9018,-281 1917.9018,-281 1917.9018,-273.4218 1917.9018,-273.4218"/>
<polygon fill="#000000" stroke="#000000" points="1921.4019,-273.4218 1917.9018,-263.4218 1914.4019,-273.4219 1921.4019,-273.4218"/>
</g>
</g>
</svg>
