<?xml version="1.0" encoding="UTF-8" standalone="no"?>
<!DOCTYPE svg PUBLIC "-//W3C//DTD SVG 1.1//EN"
 "http://www.w3.org/Graphics/SVG/1.1/DTD/svg11.dtd">
<!-- Generated by graphviz version 2.40.1 (20161225.0304)
 -->
<!-- Title: dependencies Pages: 1 -->
<svg width="5132pt" height="428pt"
 viewBox="0.00 0.00 5132.00 428.00" xmlns="http://www.w3.org/2000/svg" xmlns:xlink="http://www.w3.org/1999/xlink">
<g id="graph0" class="graph" transform="scale(1 1) rotate(0) translate(4 424)">
<title>dependencies</title>
<polygon fill="#ffffff" stroke="transparent" points="-4,4 -4,-424 5128,-424 5128,4 -4,4"/>
<text text-anchor="start" x="2541.0091" y="-42.4" font-family="sans-serif" font-weight="bold" font-size="14.00" fill="#000000">Legend</text>
<polygon fill="#ffffb3" stroke="transparent" points="2328,-10 2328,-30 2348,-30 2348,-10 2328,-10"/>
<text text-anchor="start" x="2351.629" y="-15.4" font-family="sans-serif" font-size="14.00" fill="#000000"> &#160;Declarations</text>
<polygon fill="#8dd3c7" stroke="transparent" points="2441,-10 2441,-30 2461,-30 2461,-10 2441,-10"/>
<text text-anchor="start" x="2464.7251" y="-15.4" font-family="sans-serif" font-size="14.00" fill="#000000"> &#160;Module</text>
<polygon fill="#80b1d3" stroke="transparent" points="2527,-10 2527,-30 2547,-30 2547,-10 2527,-10"/>
<text text-anchor="start" x="2550.7812" y="-15.4" font-family="sans-serif" font-size="14.00" fill="#000000"> &#160;Bootstrap</text>
<polygon fill="#fdb462" stroke="transparent" points="2624,-10 2624,-30 2644,-30 2644,-10 2624,-10"/>
<text text-anchor="start" x="2647.6732" y="-15.4" font-family="sans-serif" font-size="14.00" fill="#000000"> &#160;Providers</text>
<polygon fill="#fb8072" stroke="transparent" points="2720,-10 2720,-30 2740,-30 2740,-10 2720,-10"/>
<text text-anchor="start" x="2743.7258" y="-15.4" font-family="sans-serif" font-size="14.00" fill="#000000"> &#160;Exports</text>
<g id="clust1" class="cluster">
<title>cluster_AppModule</title>
<polygon fill="none" stroke="#000000" stroke-dasharray="1,5" points="862,-146 862,-412 2172,-412 2172,-146 862,-146"/>
</g>
<g id="clust3" class="cluster">
<title>cluster_AppModule_imports</title>
<polygon fill="none" stroke="#000000" points="1008,-154 1008,-347 2164,-347 2164,-154 1008,-154"/>
</g>
<g id="clust6" class="cluster">
<title>cluster_AppModule_providers</title>
<polygon fill="none" stroke="#000000" points="870,-295 870,-347 1000,-347 1000,-295 870,-295"/>
</g>
<g id="clust7" class="cluster">
<title>cluster_AuthModule</title>
<polygon fill="none" stroke="#000000" stroke-dasharray="1,5" points="4414,-211 4414,-279 4958,-279 4958,-211 4414,-211"/>
</g>
<g id="clust10" class="cluster">
<title>cluster_AuthModule_exports</title>
<polygon fill="none" stroke="#000000" points="4844,-219 4844,-271 4950,-271 4950,-219 4844,-219"/>
</g>
<g id="clust12" class="cluster">
<title>cluster_AuthModule_providers</title>
<polygon fill="none" stroke="#000000" points="4422,-219 4422,-271 4836,-271 4836,-219 4422,-219"/>
</g>
<g id="clust13" class="cluster">
<title>cluster_CompanyModule</title>
<polygon fill="none" stroke="#000000" stroke-dasharray="1,5" points="8,-287 8,-355 336,-355 336,-287 8,-287"/>
</g>
<g id="clust16" class="cluster">
<title>cluster_CompanyModule_exports</title>
<polygon fill="none" stroke="#000000" points="196,-295 196,-347 328,-347 328,-295 196,-295"/>
</g>
<g id="clust18" class="cluster">
<title>cluster_CompanyModule_providers</title>
<polygon fill="none" stroke="#000000" points="16,-295 16,-347 188,-347 188,-295 16,-295"/>
</g>
<g id="clust19" class="cluster">
<title>cluster_GreenScoreModule</title>
<polygon fill="none" stroke="#000000" stroke-dasharray="1,5" points="944,-70 944,-138 1148,-138 1148,-70 944,-70"/>
</g>
<g id="clust24" class="cluster">
<title>cluster_GreenScoreModule_providers</title>
<polygon fill="none" stroke="#000000" points="952,-78 952,-130 1140,-130 1140,-78 952,-78"/>
</g>
<g id="clust25" class="cluster">
<title>cluster_JoinTagPoiModule</title>
<polygon fill="none" stroke="#000000" stroke-dasharray="1,5" points="2180,-211 2180,-279 2530,-279 2530,-211 2180,-211"/>
</g>
<g id="clust28" class="cluster">
<title>cluster_JoinTagPoiModule_exports</title>
<polygon fill="none" stroke="#000000" points="2380,-219 2380,-271 2522,-271 2522,-219 2380,-219"/>
</g>
<g id="clust30" class="cluster">
<title>cluster_JoinTagPoiModule_providers</title>
<polygon fill="none" stroke="#000000" points="2188,-219 2188,-271 2372,-271 2372,-219 2188,-219"/>
</g>
<g id="clust31" class="cluster">
<title>cluster_PercentTypeGreenScoreAndPoiModule</title>
<polygon fill="none" stroke="#000000" stroke-dasharray="1,5" points="2538,-211 2538,-279 3164,-279 3164,-211 2538,-211"/>
</g>
<g id="clust34" class="cluster">
<title>cluster_PercentTypeGreenScoreAndPoiModule_exports</title>
<polygon fill="none" stroke="#000000" points="2898,-219 2898,-271 3156,-271 3156,-219 2898,-219"/>
</g>
<g id="clust36" class="cluster">
<title>cluster_PercentTypeGreenScoreAndPoiModule_providers</title>
<polygon fill="none" stroke="#000000" points="2546,-219 2546,-271 2890,-271 2890,-219 2546,-219"/>
</g>
<g id="clust37" class="cluster">
<title>cluster_PoiModule</title>
<polygon fill="none" stroke="#000000" stroke-dasharray="1,5" points="344,-287 344,-355 586,-355 586,-287 344,-287"/>
</g>
<g id="clust40" class="cluster">
<title>cluster_PoiModule_exports</title>
<polygon fill="none" stroke="#000000" points="482,-295 482,-347 578,-347 578,-295 482,-295"/>
</g>
<g id="clust42" class="cluster">
<title>cluster_PoiModule_providers</title>
<polygon fill="none" stroke="#000000" points="352,-295 352,-347 474,-347 474,-295 352,-295"/>
</g>
<g id="clust43" class="cluster">
<title>cluster_RoleModule</title>
<polygon fill="none" stroke="#000000" stroke-dasharray="1,5" points="3172,-211 3172,-279 3432,-279 3432,-211 3172,-211"/>
</g>
<g id="clust46" class="cluster">
<title>cluster_RoleModule_exports</title>
<polygon fill="none" stroke="#000000" points="3320,-219 3320,-271 3424,-271 3424,-219 3320,-219"/>
</g>
<g id="clust48" class="cluster">
<title>cluster_RoleModule_providers</title>
<polygon fill="none" stroke="#000000" points="3180,-219 3180,-271 3312,-271 3312,-219 3180,-219"/>
</g>
<g id="clust49" class="cluster">
<title>cluster_StatsModule</title>
<polygon fill="none" stroke="#000000" stroke-dasharray="1,5" points="4966,-211 4966,-279 5116,-279 5116,-211 4966,-211"/>
</g>
<g id="clust54" class="cluster">
<title>cluster_StatsModule_providers</title>
<polygon fill="none" stroke="#000000" points="4974,-219 4974,-271 5108,-271 5108,-219 4974,-219"/>
</g>
<g id="clust55" class="cluster">
<title>cluster_TagsModule</title>
<polygon fill="none" stroke="#000000" stroke-dasharray="1,5" points="3440,-211 3440,-279 3702,-279 3702,-211 3440,-211"/>
</g>
<g id="clust58" class="cluster">
<title>cluster_TagsModule_exports</title>
<polygon fill="none" stroke="#000000" points="3590,-219 3590,-271 3694,-271 3694,-219 3590,-219"/>
</g>
<g id="clust60" class="cluster">
<title>cluster_TagsModule_providers</title>
<polygon fill="none" stroke="#000000" points="3448,-219 3448,-271 3582,-271 3582,-219 3448,-219"/>
</g>
<g id="clust61" class="cluster">
<title>cluster_TypeGreenScoreModule</title>
<polygon fill="none" stroke="#000000" stroke-dasharray="1,5" points="3710,-211 3710,-279 4132,-279 4132,-211 3710,-211"/>
</g>
<g id="clust64" class="cluster">
<title>cluster_TypeGreenScoreModule_exports</title>
<polygon fill="none" stroke="#000000" points="3952,-219 3952,-271 4124,-271 4124,-219 3952,-219"/>
</g>
<g id="clust66" class="cluster">
<title>cluster_TypeGreenScoreModule_providers</title>
<polygon fill="none" stroke="#000000" points="3718,-219 3718,-271 3944,-271 3944,-219 3718,-219"/>
</g>
<g id="clust67" class="cluster">
<title>cluster_TypeModule</title>
<polygon fill="none" stroke="#000000" stroke-dasharray="1,5" points="4140,-211 4140,-279 4406,-279 4406,-211 4140,-211"/>
</g>
<g id="clust70" class="cluster">
<title>cluster_TypeModule_exports</title>
<polygon fill="none" stroke="#000000" points="4292,-219 4292,-271 4398,-271 4398,-219 4292,-219"/>
</g>
<g id="clust72" class="cluster">
<title>cluster_TypeModule_providers</title>
<polygon fill="none" stroke="#000000" points="4148,-219 4148,-271 4284,-271 4284,-219 4148,-219"/>
</g>
<g id="clust73" class="cluster">
<title>cluster_UserAppModule</title>
<polygon fill="none" stroke="#000000" stroke-dasharray="1,5" points="1156,-70 1156,-138 1338,-138 1338,-70 1156,-70"/>
</g>
<g id="clust78" class="cluster">
<title>cluster_UserAppModule_providers</title>
<polygon fill="none" stroke="#000000" points="1164,-78 1164,-130 1330,-130 1330,-78 1164,-78"/>
</g>
<g id="clust79" class="cluster">
<title>cluster_UserModule</title>
<polygon fill="none" stroke="#000000" stroke-dasharray="1,5" points="594,-287 594,-355 854,-355 854,-287 594,-287"/>
</g>
<g id="clust82" class="cluster">
<title>cluster_UserModule_exports</title>
<polygon fill="none" stroke="#000000" points="742,-295 742,-347 846,-347 846,-295 742,-295"/>
</g>
<g id="clust84" class="cluster">
<title>cluster_UserModule_providers</title>
<polygon fill="none" stroke="#000000" points="602,-295 602,-347 734,-347 734,-295 602,-295"/>
</g>
<!-- AuthModule -->
<g id="node1" class="node">
<title>AuthModule</title>
<polygon fill="#8dd3c7" stroke="#000000" points="2155.5482,-339 2152.5482,-343 2131.5482,-343 2128.5482,-339 2068.4518,-339 2068.4518,-303 2155.5482,-303 2155.5482,-339"/>
<text text-anchor="middle" x="2112" y="-316.8" font-family="Times,serif" font-size="14.00" fill="#000000">AuthModule</text>
</g>
<!-- AppModule -->
<g id="node14" class="node">
<title>AppModule</title>
<polygon fill="#8dd3c7" stroke="#000000" points="1451.6571,-404 1448.6571,-408 1427.6571,-408 1424.6571,-404 1368.3429,-404 1368.3429,-368 1451.6571,-368 1451.6571,-404"/>
<text text-anchor="middle" x="1410" y="-381.8" font-family="Times,serif" font-size="14.00" fill="#000000">AppModule</text>
</g>
<!-- AuthModule&#45;&gt;AppModule -->
<g id="edge1" class="edge">
<title>AuthModule&#45;&gt;AppModule</title>
<path fill="none" stroke="#000000" d="M2112,-339.3228C2112,-362.6602 2112,-400 2112,-400 2112,-400 1461.811,-400 1461.811,-400"/>
<polygon fill="#000000" stroke="#000000" points="1461.811,-396.5001 1451.811,-400 1461.811,-403.5001 1461.811,-396.5001"/>
</g>
<!-- AuthService  -->
<g id="node16" class="node">
<title>AuthService </title>
<polygon fill="#fb8072" stroke="#000000" points="4941.9761,-263 4852.0239,-263 4852.0239,-227 4941.9761,-227 4941.9761,-263"/>
<text text-anchor="middle" x="4897" y="-240.8" font-family="Times,serif" font-size="14.00" fill="#000000">AuthService </text>
</g>
<!-- AuthModule&#45;&gt;AuthService  -->
<g id="edge17" class="edge">
<title>AuthModule&#45;&gt;AuthService </title>
<path fill="none" stroke="#000000" stroke-dasharray="5,2" d="M2155.7457,-332C2510.0575,-332 4897,-332 4897,-332 4897,-332 4897,-273.0265 4897,-273.0265"/>
<polygon fill="#000000" stroke="#000000" points="4900.5001,-273.0264 4897,-263.0265 4893.5001,-273.0265 4900.5001,-273.0264"/>
</g>
<!-- CompanyModule -->
<g id="node2" class="node">
<title>CompanyModule</title>
<polygon fill="#8dd3c7" stroke="#000000" points="1572.9916,-263 1569.9916,-267 1548.9916,-267 1545.9916,-263 1459.0084,-263 1459.0084,-227 1572.9916,-227 1572.9916,-263"/>
<text text-anchor="middle" x="1516" y="-240.8" font-family="Times,serif" font-size="14.00" fill="#000000">CompanyModule</text>
</g>
<!-- StatsModule -->
<g id="node8" class="node">
<title>StatsModule</title>
<polygon fill="#8dd3c7" stroke="#000000" points="1845.2731,-339 1842.2731,-343 1821.2731,-343 1818.2731,-339 1758.7269,-339 1758.7269,-303 1845.2731,-303 1845.2731,-339"/>
<text text-anchor="middle" x="1802" y="-316.8" font-family="Times,serif" font-size="14.00" fill="#000000">StatsModule</text>
</g>
<!-- CompanyModule&#45;&gt;StatsModule -->
<g id="edge37" class="edge">
<title>CompanyModule&#45;&gt;StatsModule</title>
<path fill="none" stroke="#000000" d="M1516,-263.2921C1516,-285.2057 1516,-319 1516,-319 1516,-319 1748.5628,-319 1748.5628,-319"/>
<polygon fill="#000000" stroke="#000000" points="1748.5628,-322.5001 1758.5628,-319 1748.5627,-315.5001 1748.5628,-322.5001"/>
</g>
<!-- CompanyModule&#45;&gt;AppModule -->
<g id="edge2" class="edge">
<title>CompanyModule&#45;&gt;AppModule</title>
<path fill="none" stroke="#000000" d="M1458.8737,-254C1448.3614,-254 1440.6283,-254 1440.6283,-254 1440.6283,-254 1440.6283,-357.9227 1440.6283,-357.9227"/>
<polygon fill="#000000" stroke="#000000" points="1437.1284,-357.9227 1440.6283,-367.9227 1444.1284,-357.9228 1437.1284,-357.9227"/>
</g>
<!-- CompanyService  -->
<g id="node20" class="node">
<title>CompanyService </title>
<polygon fill="#fb8072" stroke="#000000" points="319.9194,-339 204.0806,-339 204.0806,-303 319.9194,-303 319.9194,-339"/>
<text text-anchor="middle" x="262" y="-316.8" font-family="Times,serif" font-size="14.00" fill="#000000">CompanyService </text>
</g>
<!-- CompanyModule&#45;&gt;CompanyService  -->
<g id="edge21" class="edge">
<title>CompanyModule&#45;&gt;CompanyService </title>
<path fill="none" stroke="#000000" stroke-dasharray="5,2" d="M1458.8597,-245C1213.5406,-245 262,-245 262,-245 262,-245 262,-292.9891 262,-292.9891"/>
<polygon fill="#000000" stroke="#000000" points="258.5001,-292.989 262,-302.9891 265.5001,-292.9891 258.5001,-292.989"/>
</g>
<!-- GreenScoreModule -->
<g id="node3" class="node">
<title>GreenScoreModule</title>
<polygon fill="#8dd3c7" stroke="#000000" points="1141.6192,-198 1138.6192,-202 1117.6192,-202 1114.6192,-198 1016.3808,-198 1016.3808,-162 1141.6192,-162 1141.6192,-198"/>
<text text-anchor="middle" x="1079" y="-175.8" font-family="Times,serif" font-size="14.00" fill="#000000">GreenScoreModule</text>
</g>
<!-- GreenScoreModule&#45;&gt;AppModule -->
<g id="edge3" class="edge">
<title>GreenScoreModule&#45;&gt;AppModule</title>
<path fill="none" stroke="#000000" d="M1079,-198.075C1079,-249.3425 1079,-392 1079,-392 1079,-392 1358.0786,-392 1358.0786,-392"/>
<polygon fill="#000000" stroke="#000000" points="1358.0787,-395.5001 1368.0786,-392 1358.0786,-388.5001 1358.0787,-395.5001"/>
</g>
<!-- JoinTagPoiModule -->
<g id="node4" class="node">
<title>JoinTagPoiModule</title>
<polygon fill="#8dd3c7" stroke="#000000" points="1411.8258,-198 1408.8258,-202 1387.8258,-202 1384.8258,-198 1288.1742,-198 1288.1742,-162 1411.8258,-162 1411.8258,-198"/>
<text text-anchor="middle" x="1350" y="-175.8" font-family="Times,serif" font-size="14.00" fill="#000000">JoinTagPoiModule</text>
</g>
<!-- PoiModule -->
<g id="node6" class="node">
<title>PoiModule</title>
<polygon fill="#8dd3c7" stroke="#000000" points="1669.2233,-263 1666.2233,-267 1645.2233,-267 1642.2233,-263 1590.7767,-263 1590.7767,-227 1669.2233,-227 1669.2233,-263"/>
<text text-anchor="middle" x="1630" y="-240.8" font-family="Times,serif" font-size="14.00" fill="#000000">PoiModule</text>
</g>
<!-- JoinTagPoiModule&#45;&gt;PoiModule -->
<g id="edge28" class="edge">
<title>JoinTagPoiModule&#45;&gt;PoiModule</title>
<path fill="none" stroke="#000000" d="M1399.2367,-198.1804C1399.2367,-211.0382 1399.2367,-226 1399.2367,-226 1399.2367,-226 1600.5989,-226 1600.5989,-226 1600.5989,-226 1600.5989,-226.0816 1600.5989,-226.0816"/>
<polygon fill="#000000" stroke="#000000" points="1597.1002,-216.8159 1600.5989,-226.8164 1604.1002,-216.8169 1597.1002,-216.8159"/>
</g>
<!-- JoinTagPoiModule&#45;&gt;StatsModule -->
<g id="edge38" class="edge">
<title>JoinTagPoiModule&#45;&gt;StatsModule</title>
<path fill="none" stroke="#000000" d="M1393.0237,-198.2377C1393.0237,-236.9861 1393.0237,-324 1393.0237,-324 1393.0237,-324 1748.6196,-324 1748.6196,-324"/>
<polygon fill="#000000" stroke="#000000" points="1748.6196,-327.5001 1758.6196,-324 1748.6195,-320.5001 1748.6196,-327.5001"/>
</g>
<!-- JoinTagPoiModule&#45;&gt;AppModule -->
<g id="edge4" class="edge">
<title>JoinTagPoiModule&#45;&gt;AppModule</title>
<path fill="none" stroke="#000000" d="M1386.8108,-198.2811C1386.8108,-198.2811 1386.8108,-357.7598 1386.8108,-357.7598"/>
<polygon fill="#000000" stroke="#000000" points="1383.3109,-357.7598 1386.8108,-367.7598 1390.3109,-357.7599 1383.3109,-357.7598"/>
</g>
<!-- JoinTagPoiService  -->
<g id="node23" class="node">
<title>JoinTagPoiService </title>
<polygon fill="#fb8072" stroke="#000000" points="2513.7535,-263 2388.2465,-263 2388.2465,-227 2513.7535,-227 2513.7535,-263"/>
<text text-anchor="middle" x="2451" y="-240.8" font-family="Times,serif" font-size="14.00" fill="#000000">JoinTagPoiService </text>
</g>
<!-- JoinTagPoiModule&#45;&gt;JoinTagPoiService  -->
<g id="edge24" class="edge">
<title>JoinTagPoiModule&#45;&gt;JoinTagPoiService </title>
<path fill="none" stroke="#000000" stroke-dasharray="5,2" d="M1405.4497,-198.0555C1405.4497,-209.439 1405.4497,-222 1405.4497,-222 1405.4497,-222 2451,-222 2451,-222 2451,-222 2451,-222.4878 2451,-222.4878"/>
<polygon fill="#000000" stroke="#000000" points="2447.5002,-216.8776 2451,-226.8777 2454.5002,-216.8778 2447.5002,-216.8776"/>
</g>
<!-- PercentTypeGreenScoreAndPoiModule -->
<g id="node5" class="node">
<title>PercentTypeGreenScoreAndPoiModule</title>
<polygon fill="#8dd3c7" stroke="#000000" points="1668.6432,-198 1665.6432,-202 1644.6432,-202 1641.6432,-198 1429.3568,-198 1429.3568,-162 1668.6432,-162 1668.6432,-198"/>
<text text-anchor="middle" x="1549" y="-175.8" font-family="Times,serif" font-size="14.00" fill="#000000">PercentTypeGreenScoreAndPoiModule</text>
</g>
<!-- PercentTypeGreenScoreAndPoiModule&#45;&gt;PoiModule -->
<g id="edge29" class="edge">
<title>PercentTypeGreenScoreAndPoiModule&#45;&gt;PoiModule</title>
<path fill="none" stroke="#000000" d="M1610.3093,-198.1061C1610.3093,-198.1061 1610.3093,-216.991 1610.3093,-216.991"/>
<polygon fill="#000000" stroke="#000000" points="1606.8094,-216.9909 1610.3093,-226.991 1613.8094,-216.991 1606.8094,-216.9909"/>
</g>
<!-- PercentTypeGreenScoreAndPoiModule&#45;&gt;StatsModule -->
<g id="edge39" class="edge">
<title>PercentTypeGreenScoreAndPoiModule&#45;&gt;StatsModule</title>
<path fill="none" stroke="#000000" d="M1581.9422,-198.0718C1581.9422,-234.6481 1581.9422,-314 1581.9422,-314 1581.9422,-314 1748.5237,-314 1748.5237,-314"/>
<polygon fill="#000000" stroke="#000000" points="1748.5237,-317.5001 1758.5237,-314 1748.5236,-310.5001 1748.5237,-317.5001"/>
</g>
<!-- PercentTypeGreenScoreAndPoiModule&#45;&gt;AppModule -->
<g id="edge5" class="edge">
<title>PercentTypeGreenScoreAndPoiModule&#45;&gt;AppModule</title>
<path fill="none" stroke="#000000" d="M1435.0284,-198.2811C1435.0284,-198.2811 1435.0284,-357.7598 1435.0284,-357.7598"/>
<polygon fill="#000000" stroke="#000000" points="1431.5284,-357.7598 1435.0284,-367.7598 1438.5284,-357.7599 1431.5284,-357.7598"/>
</g>
<!-- PercentTypeGreenScoreAndPoiService  -->
<g id="node25" class="node">
<title>PercentTypeGreenScoreAndPoiService </title>
<polygon fill="#fb8072" stroke="#000000" points="3147.571,-263 2906.429,-263 2906.429,-227 3147.571,-227 3147.571,-263"/>
<text text-anchor="middle" x="3027" y="-240.8" font-family="Times,serif" font-size="14.00" fill="#000000">PercentTypeGreenScoreAndPoiService </text>
</g>
<!-- PercentTypeGreenScoreAndPoiModule&#45;&gt;PercentTypeGreenScoreAndPoiService  -->
<g id="edge26" class="edge">
<title>PercentTypeGreenScoreAndPoiModule&#45;&gt;PercentTypeGreenScoreAndPoiService </title>
<path fill="none" stroke="#000000" stroke-dasharray="5,2" d="M1620.0197,-198.1097C1620.0197,-207.897 1620.0197,-218 1620.0197,-218 1620.0197,-218 3027,-218 3027,-218 3027,-218 3027,-218.8841 3027,-218.8841"/>
<polygon fill="#000000" stroke="#000000" points="3023.5001,-216.8408 3027,-226.8408 3030.5001,-216.8409 3023.5001,-216.8408"/>
</g>
<!-- PoiModule&#45;&gt;StatsModule -->
<g id="edge40" class="edge">
<title>PoiModule&#45;&gt;StatsModule</title>
<path fill="none" stroke="#000000" d="M1653.4669,-263.1686C1653.4669,-282.0898 1653.4669,-309 1653.4669,-309 1653.4669,-309 1748.6388,-309 1748.6388,-309"/>
<polygon fill="#000000" stroke="#000000" points="1748.6388,-312.5001 1758.6388,-309 1748.6388,-305.5001 1748.6388,-312.5001"/>
</g>
<!-- PoiModule&#45;&gt;AppModule -->
<g id="edge6" class="edge">
<title>PoiModule&#45;&gt;AppModule</title>
<path fill="none" stroke="#000000" d="M1637.8223,-263.0678C1637.8223,-298.3511 1637.8223,-373 1637.8223,-373 1637.8223,-373 1461.7861,-373 1461.7861,-373"/>
<polygon fill="#000000" stroke="#000000" points="1461.7862,-369.5001 1451.7861,-373 1461.7861,-376.5001 1461.7862,-369.5001"/>
</g>
<!-- PoiService  -->
<g id="node27" class="node">
<title>PoiService </title>
<polygon fill="#fb8072" stroke="#000000" points="570.1509,-339 489.8491,-339 489.8491,-303 570.1509,-303 570.1509,-339"/>
<text text-anchor="middle" x="530" y="-316.8" font-family="Times,serif" font-size="14.00" fill="#000000">PoiService </text>
</g>
<!-- PoiModule&#45;&gt;PoiService  -->
<g id="edge33" class="edge">
<title>PoiModule&#45;&gt;PoiService </title>
<path fill="none" stroke="#000000" stroke-dasharray="5,2" d="M1622.1777,-263.1097C1622.1777,-272.897 1622.1777,-283 1622.1777,-283 1622.1777,-283 530,-283 530,-283 530,-283 530,-292.8903 530,-292.8903"/>
<polygon fill="#000000" stroke="#000000" points="526.5001,-292.8903 530,-302.8903 533.5001,-292.8904 526.5001,-292.8903"/>
</g>
<!-- RoleModule -->
<g id="node7" class="node">
<title>RoleModule</title>
<polygon fill="#8dd3c7" stroke="#000000" points="1772.9916,-198 1769.9916,-202 1748.9916,-202 1745.9916,-198 1687.0084,-198 1687.0084,-162 1772.9916,-162 1772.9916,-198"/>
<text text-anchor="middle" x="1730" y="-175.8" font-family="Times,serif" font-size="14.00" fill="#000000">RoleModule</text>
</g>
<!-- RoleModule&#45;&gt;AuthModule -->
<g id="edge15" class="edge">
<title>RoleModule&#45;&gt;AuthModule</title>
<path fill="none" stroke="#000000" d="M1738.5976,-198.0328C1738.5976,-204.8526 1738.5976,-211 1738.5976,-211 1738.5976,-211 2133.8868,-211 2133.8868,-211 2133.8868,-211 2133.8868,-292.8357 2133.8868,-292.8357"/>
<polygon fill="#000000" stroke="#000000" points="2130.3868,-292.8357 2133.8868,-302.8357 2137.3868,-292.8358 2130.3868,-292.8357"/>
</g>
<!-- UserModule -->
<g id="node13" class="node">
<title>UserModule</title>
<polygon fill="#8dd3c7" stroke="#000000" points="1772.9762,-263 1769.9762,-267 1748.9762,-267 1745.9762,-263 1687.0238,-263 1687.0238,-227 1772.9762,-227 1772.9762,-263"/>
<text text-anchor="middle" x="1730" y="-240.8" font-family="Times,serif" font-size="14.00" fill="#000000">UserModule</text>
</g>
<!-- RoleModule&#45;&gt;UserModule -->
<g id="edge51" class="edge">
<title>RoleModule&#45;&gt;UserModule</title>
<path fill="none" stroke="#000000" d="M1704.2071,-198.1061C1704.2071,-198.1061 1704.2071,-216.991 1704.2071,-216.991"/>
<polygon fill="#000000" stroke="#000000" points="1700.7072,-216.9909 1704.2071,-226.991 1707.7072,-216.991 1700.7072,-216.9909"/>
</g>
<!-- RoleModule&#45;&gt;AppModule -->
<g id="edge7" class="edge">
<title>RoleModule&#45;&gt;AppModule</title>
<path fill="none" stroke="#000000" d="M1686.635,-180C1681.5103,-180 1678.0579,-180 1678.0579,-180 1678.0579,-180 1678.0579,-377 1678.0579,-377 1678.0579,-377 1461.884,-377 1461.884,-377"/>
<polygon fill="#000000" stroke="#000000" points="1461.8841,-373.5001 1451.884,-377 1461.884,-380.5001 1461.8841,-373.5001"/>
</g>
<!-- RoleService  -->
<g id="node29" class="node">
<title>RoleService </title>
<polygon fill="#fb8072" stroke="#000000" points="3415.9194,-263 3328.0806,-263 3328.0806,-227 3415.9194,-227 3415.9194,-263"/>
<text text-anchor="middle" x="3372" y="-240.8" font-family="Times,serif" font-size="14.00" fill="#000000">RoleService </text>
</g>
<!-- RoleModule&#45;&gt;RoleService  -->
<g id="edge35" class="edge">
<title>RoleModule&#45;&gt;RoleService </title>
<path fill="none" stroke="#000000" stroke-dasharray="5,2" d="M1755.7929,-198.207C1755.7929,-203.5549 1755.7929,-208 1755.7929,-208 1755.7929,-208 3372,-208 3372,-208 3372,-208 3372,-216.9336 3372,-216.9336"/>
<polygon fill="#000000" stroke="#000000" points="3368.5001,-216.9335 3372,-226.9336 3375.5001,-216.9336 3368.5001,-216.9335"/>
</g>
<!-- StatsModule&#45;&gt;AppModule -->
<g id="edge8" class="edge">
<title>StatsModule&#45;&gt;AppModule</title>
<path fill="none" stroke="#000000" d="M1758.3754,-334C1663.3741,-334 1446.2283,-334 1446.2283,-334 1446.2283,-334 1446.2283,-357.8129 1446.2283,-357.8129"/>
<polygon fill="#000000" stroke="#000000" points="1442.7283,-357.8129 1446.2283,-367.8129 1449.7283,-357.813 1442.7283,-357.8129"/>
</g>
<!-- TagsModule -->
<g id="node9" class="node">
<title>TagsModule</title>
<polygon fill="#8dd3c7" stroke="#000000" points="1877.2619,-198 1874.2619,-202 1853.2619,-202 1850.2619,-198 1790.7381,-198 1790.7381,-162 1877.2619,-162 1877.2619,-198"/>
<text text-anchor="middle" x="1834" y="-175.8" font-family="Times,serif" font-size="14.00" fill="#000000">TagsModule</text>
</g>
<!-- TagsModule&#45;&gt;PoiModule -->
<g id="edge30" class="edge">
<title>TagsModule&#45;&gt;PoiModule</title>
<path fill="none" stroke="#000000" d="M1804.311,-198.0449C1804.311,-205.749 1804.311,-213 1804.311,-213 1804.311,-213 1629.7301,-213 1629.7301,-213 1629.7301,-213 1629.7301,-216.7566 1629.7301,-216.7566"/>
<polygon fill="#000000" stroke="#000000" points="1626.2301,-216.7566 1629.7301,-226.7566 1633.2301,-216.7566 1626.2301,-216.7566"/>
</g>
<!-- TagsModule&#45;&gt;StatsModule -->
<g id="edge41" class="edge">
<title>TagsModule&#45;&gt;StatsModule</title>
<path fill="none" stroke="#000000" d="M1818.0028,-198.1446C1818.0028,-198.1446 1818.0028,-292.925 1818.0028,-292.925"/>
<polygon fill="#000000" stroke="#000000" points="1814.5029,-292.925 1818.0028,-302.925 1821.5029,-292.925 1814.5029,-292.925"/>
</g>
<!-- TagsModule&#45;&gt;AppModule -->
<g id="edge9" class="edge">
<title>TagsModule&#45;&gt;AppModule</title>
<path fill="none" stroke="#000000" d="M1869.3822,-198.2811C1869.3822,-248.6971 1869.3822,-386 1869.3822,-386 1869.3822,-386 1461.9849,-386 1461.9849,-386"/>
<polygon fill="#000000" stroke="#000000" points="1461.985,-382.5001 1451.9849,-386 1461.9849,-389.5001 1461.985,-382.5001"/>
</g>
<!-- TagsService  -->
<g id="node32" class="node">
<title>TagsService </title>
<polygon fill="#fb8072" stroke="#000000" points="3686.1899,-263 3597.8101,-263 3597.8101,-227 3686.1899,-227 3686.1899,-263"/>
<text text-anchor="middle" x="3642" y="-240.8" font-family="Times,serif" font-size="14.00" fill="#000000">TagsService </text>
</g>
<!-- TagsModule&#45;&gt;TagsService  -->
<g id="edge44" class="edge">
<title>TagsModule&#45;&gt;TagsService </title>
<path fill="none" stroke="#000000" stroke-dasharray="5,2" d="M1853.385,-198.1903C1853.385,-201.5376 1853.385,-204 1853.385,-204 1853.385,-204 3642,-204 3642,-204 3642,-204 3642,-216.8975 3642,-216.8975"/>
<polygon fill="#000000" stroke="#000000" points="3638.5001,-216.8974 3642,-226.8975 3645.5001,-216.8975 3638.5001,-216.8974"/>
</g>
<!-- TypeGreenScoreModule -->
<g id="node10" class="node">
<title>TypeGreenScoreModule</title>
<polygon fill="#8dd3c7" stroke="#000000" points="2050.3863,-198 2047.3863,-202 2026.3863,-202 2023.3863,-198 1895.6137,-198 1895.6137,-162 2050.3863,-162 2050.3863,-198"/>
<text text-anchor="middle" x="1973" y="-175.8" font-family="Times,serif" font-size="14.00" fill="#000000">TypeGreenScoreModule</text>
</g>
<!-- TypeGreenScoreModule&#45;&gt;PoiModule -->
<g id="edge31" class="edge">
<title>TypeGreenScoreModule&#45;&gt;PoiModule</title>
<path fill="none" stroke="#000000" d="M1926.6843,-198.32C1926.6843,-206.7883 1926.6843,-215 1926.6843,-215 1926.6843,-215 1639.4404,-215 1639.4404,-215 1639.4404,-215 1639.4404,-216.8568 1639.4404,-216.8568"/>
<polygon fill="#000000" stroke="#000000" points="1635.9405,-216.8568 1639.4404,-226.8568 1642.9405,-216.8568 1635.9405,-216.8568"/>
</g>
<!-- TypeGreenScoreModule&#45;&gt;AppModule -->
<g id="edge10" class="edge">
<title>TypeGreenScoreModule&#45;&gt;AppModule</title>
<path fill="none" stroke="#000000" d="M2019.3157,-198.3558C2019.3157,-249.6908 2019.3157,-391 2019.3157,-391 2019.3157,-391 1461.8807,-391 1461.8807,-391"/>
<polygon fill="#000000" stroke="#000000" points="1461.8808,-387.5001 1451.8807,-391 1461.8807,-394.5001 1461.8808,-387.5001"/>
</g>
<!-- TypeGreenScoreService  -->
<g id="node34" class="node">
<title>TypeGreenScoreService </title>
<polygon fill="#fb8072" stroke="#000000" points="4116.3139,-263 3959.6861,-263 3959.6861,-227 4116.3139,-227 4116.3139,-263"/>
<text text-anchor="middle" x="4038" y="-240.8" font-family="Times,serif" font-size="14.00" fill="#000000">TypeGreenScoreService </text>
</g>
<!-- TypeGreenScoreModule&#45;&gt;TypeGreenScoreService  -->
<g id="edge46" class="edge">
<title>TypeGreenScoreModule&#45;&gt;TypeGreenScoreService </title>
<path fill="none" stroke="#000000" stroke-dasharray="5,2" d="M1957.5614,-198.1543C1957.5614,-199.2969 1957.5614,-200 1957.5614,-200 1957.5614,-200 4038,-200 4038,-200 4038,-200 4038,-216.9561 4038,-216.9561"/>
<polygon fill="#000000" stroke="#000000" points="4034.5001,-216.956 4038,-226.9561 4041.5001,-216.9561 4034.5001,-216.956"/>
</g>
<!-- TypeModule -->
<g id="node11" class="node">
<title>TypeModule</title>
<polygon fill="#8dd3c7" stroke="#000000" points="2156.3176,-198 2153.3176,-202 2132.3176,-202 2129.3176,-198 2067.6824,-198 2067.6824,-162 2156.3176,-162 2156.3176,-198"/>
<text text-anchor="middle" x="2112" y="-175.8" font-family="Times,serif" font-size="14.00" fill="#000000">TypeModule</text>
</g>
<!-- TypeModule&#45;&gt;PoiModule -->
<g id="edge32" class="edge">
<title>TypeModule&#45;&gt;PoiModule</title>
<path fill="none" stroke="#000000" d="M2090.1133,-198.0664C2090.1133,-207.4587 2090.1133,-217 2090.1133,-217 2090.1133,-217 1649.1508,-217 1649.1508,-217 1649.1508,-217 1649.1508,-217.9793 1649.1508,-217.9793"/>
<polygon fill="#000000" stroke="#000000" points="1645.6509,-216.793 1649.1508,-226.793 1652.6509,-216.7931 1645.6509,-216.793"/>
</g>
<!-- TypeModule&#45;&gt;StatsModule -->
<g id="edge42" class="edge">
<title>TypeModule&#45;&gt;StatsModule</title>
<path fill="none" stroke="#000000" d="M2067.6633,-174C2060.8758,-174 2056.0758,-174 2056.0758,-174 2056.0758,-174 2056.0758,-321 2056.0758,-321 2056.0758,-321 1855.3885,-321 1855.3885,-321"/>
<polygon fill="#000000" stroke="#000000" points="1855.3885,-317.5001 1845.3885,-321 1855.3885,-324.5001 1855.3885,-317.5001"/>
</g>
<!-- TypeModule&#45;&gt;AppModule -->
<g id="edge11" class="edge">
<title>TypeModule&#45;&gt;AppModule</title>
<path fill="none" stroke="#000000" d="M2067.699,-186C2064.1852,-186 2061.9586,-186 2061.9586,-186 2061.9586,-186 2061.9586,-395 2061.9586,-395 2061.9586,-395 1461.7747,-395 1461.7747,-395"/>
<polygon fill="#000000" stroke="#000000" points="1461.7748,-391.5001 1451.7747,-395 1461.7747,-398.5001 1461.7748,-391.5001"/>
</g>
<!-- TypeService  -->
<g id="node36" class="node">
<title>TypeService </title>
<polygon fill="#fb8072" stroke="#000000" points="4390.2451,-263 4299.7549,-263 4299.7549,-227 4390.2451,-227 4390.2451,-263"/>
<text text-anchor="middle" x="4345" y="-240.8" font-family="Times,serif" font-size="14.00" fill="#000000">TypeService </text>
</g>
<!-- TypeModule&#45;&gt;TypeService  -->
<g id="edge48" class="edge">
<title>TypeModule&#45;&gt;TypeService </title>
<path fill="none" stroke="#000000" stroke-dasharray="5,2" d="M2156.605,-174C2471.324,-174 4345,-174 4345,-174 4345,-174 4345,-216.7157 4345,-216.7157"/>
<polygon fill="#000000" stroke="#000000" points="4341.5001,-216.7157 4345,-226.7157 4348.5001,-216.7158 4341.5001,-216.7157"/>
</g>
<!-- UserAppModule -->
<g id="node12" class="node">
<title>UserAppModule</title>
<polygon fill="#8dd3c7" stroke="#000000" points="1270.0828,-198 1267.0828,-202 1246.0828,-202 1243.0828,-198 1159.9172,-198 1159.9172,-162 1270.0828,-162 1270.0828,-198"/>
<text text-anchor="middle" x="1215" y="-175.8" font-family="Times,serif" font-size="14.00" fill="#000000">UserAppModule</text>
</g>
<!-- UserAppModule&#45;&gt;AppModule -->
<g id="edge12" class="edge">
<title>UserAppModule&#45;&gt;AppModule</title>
<path fill="none" stroke="#000000" d="M1215,-198.1014C1215,-247.3332 1215,-380 1215,-380 1215,-380 1358.1676,-380 1358.1676,-380"/>
<polygon fill="#000000" stroke="#000000" points="1358.1676,-383.5001 1368.1676,-380 1358.1676,-376.5001 1358.1676,-383.5001"/>
</g>
<!-- UserModule&#45;&gt;AuthModule -->
<g id="edge16" class="edge">
<title>UserModule&#45;&gt;AuthModule</title>
<path fill="none" stroke="#000000" d="M1773.0777,-245C1872.9804,-245 2112,-245 2112,-245 2112,-245 2112,-292.9891 2112,-292.9891"/>
<polygon fill="#000000" stroke="#000000" points="2108.5001,-292.989 2112,-302.9891 2115.5001,-292.9891 2108.5001,-292.989"/>
</g>
<!-- UserModule&#45;&gt;AppModule -->
<g id="edge13" class="edge">
<title>UserModule&#45;&gt;AppModule</title>
<path fill="none" stroke="#000000" d="M1740.7132,-263.1925C1740.7132,-300.4592 1740.7132,-382 1740.7132,-382 1740.7132,-382 1461.8851,-382 1461.8851,-382"/>
<polygon fill="#000000" stroke="#000000" points="1461.8851,-378.5001 1451.8851,-382 1461.885,-385.5001 1461.8851,-378.5001"/>
</g>
<!-- UserService  -->
<g id="node39" class="node">
<title>UserService </title>
<polygon fill="#fb8072" stroke="#000000" points="837.9041,-339 750.0959,-339 750.0959,-303 837.9041,-303 837.9041,-339"/>
<text text-anchor="middle" x="794" y="-316.8" font-family="Times,serif" font-size="14.00" fill="#000000">UserService </text>
</g>
<!-- UserModule&#45;&gt;UserService  -->
<g id="edge52" class="edge">
<title>UserModule&#45;&gt;UserService </title>
<path fill="none" stroke="#000000" stroke-dasharray="5,2" d="M1722.8128,-263.1871C1722.8128,-278.1824 1722.8128,-297 1722.8128,-297 1722.8128,-297 794,-297 794,-297 794,-297 794,-297.581 794,-297.581"/>
<polygon fill="#000000" stroke="#000000" points="790.5002,-292.8097 794,-302.8097 797.5002,-292.8098 790.5002,-292.8097"/>
</g>
<!-- AppService -->
<g id="node15" class="node">
<title>AppService</title>
<ellipse fill="#fdb462" stroke="#000000" cx="935" cy="-321" rx="56.7406" ry="18"/>
<text text-anchor="middle" x="935" y="-316.8" font-family="Times,serif" font-size="14.00" fill="#000000">AppService</text>
</g>
<!-- AppService&#45;&gt;AppModule -->
<g id="edge14" class="edge">
<title>AppService&#45;&gt;AppModule</title>
<path fill="none" stroke="#000000" d="M986.1157,-329C1103.1599,-329 1380.5978,-329 1380.5978,-329 1380.5978,-329 1380.5978,-357.9648 1380.5978,-357.9648"/>
<polygon fill="#000000" stroke="#000000" points="1377.0979,-357.9648 1380.5978,-367.9648 1384.0979,-357.9649 1377.0979,-357.9648"/>
</g>
<!-- AuthService -->
<g id="node17" class="node">
<title>AuthService</title>
<ellipse fill="#fdb462" stroke="#000000" cx="4769" cy="-245" rx="59.1083" ry="18"/>
<text text-anchor="middle" x="4769" y="-240.8" font-family="Times,serif" font-size="14.00" fill="#000000">AuthService</text>
</g>
<!-- AuthService&#45;&gt;AuthModule -->
<g id="edge18" class="edge">
<title>AuthService&#45;&gt;AuthModule</title>
<path fill="none" stroke="#000000" d="M4769,-263.1532C4769,-286.7566 4769,-325 4769,-325 4769,-325 2165.6269,-325 2165.6269,-325"/>
<polygon fill="#000000" stroke="#000000" points="2165.6269,-321.5001 2155.6269,-325 2165.6269,-328.5001 2165.6269,-321.5001"/>
</g>
<!-- JwtStrategy -->
<g id="node18" class="node">
<title>JwtStrategy</title>
<ellipse fill="#fdb462" stroke="#000000" cx="4635" cy="-245" rx="56.7561" ry="18"/>
<text text-anchor="middle" x="4635" y="-240.8" font-family="Times,serif" font-size="14.00" fill="#000000">JwtStrategy</text>
</g>
<!-- JwtStrategy&#45;&gt;AuthModule -->
<g id="edge19" class="edge">
<title>JwtStrategy&#45;&gt;AuthModule</title>
<path fill="none" stroke="#000000" d="M4635,-263.0449C4635,-284.6623 4635,-318 4635,-318 4635,-318 2165.7914,-318 2165.7914,-318"/>
<polygon fill="#000000" stroke="#000000" points="2165.7914,-314.5001 2155.7914,-318 2165.7914,-321.5001 2165.7914,-314.5001"/>
</g>
<!-- LocalStrategy -->
<g id="node19" class="node">
<title>LocalStrategy</title>
<ellipse fill="#fdb462" stroke="#000000" cx="4495" cy="-245" rx="65.4053" ry="18"/>
<text text-anchor="middle" x="4495" y="-240.8" font-family="Times,serif" font-size="14.00" fill="#000000">LocalStrategy</text>
</g>
<!-- LocalStrategy&#45;&gt;AuthModule -->
<g id="edge20" class="edge">
<title>LocalStrategy&#45;&gt;AuthModule</title>
<path fill="none" stroke="#000000" d="M4495,-263.0348C4495,-282.5762 4495,-311 4495,-311 4495,-311 2165.6532,-311 2165.6532,-311"/>
<polygon fill="#000000" stroke="#000000" points="2165.6532,-307.5001 2155.6532,-311 2165.6531,-314.5001 2165.6532,-307.5001"/>
</g>
<!-- CompanyService -->
<g id="node21" class="node">
<title>CompanyService</title>
<ellipse fill="#fdb462" stroke="#000000" cx="102" cy="-321" rx="77.5897" ry="18"/>
<text text-anchor="middle" x="102" y="-316.8" font-family="Times,serif" font-size="14.00" fill="#000000">CompanyService</text>
</g>
<!-- CompanyService&#45;&gt;CompanyModule -->
<g id="edge22" class="edge">
<title>CompanyService&#45;&gt;CompanyModule</title>
<path fill="none" stroke="#000000" d="M102,-302.9737C102,-278.0227 102,-236 102,-236 102,-236 1448.8182,-236 1448.8182,-236"/>
<polygon fill="#000000" stroke="#000000" points="1448.8183,-239.5001 1458.8182,-236 1448.8182,-232.5001 1448.8183,-239.5001"/>
</g>
<!-- GreenScoreService -->
<g id="node22" class="node">
<title>GreenScoreService</title>
<ellipse fill="#fdb462" stroke="#000000" cx="1046" cy="-104" rx="85.6299" ry="18"/>
<text text-anchor="middle" x="1046" y="-99.8" font-family="Times,serif" font-size="14.00" fill="#000000">GreenScoreService</text>
</g>
<!-- GreenScoreService&#45;&gt;GreenScoreModule -->
<g id="edge23" class="edge">
<title>GreenScoreService&#45;&gt;GreenScoreModule</title>
<path fill="none" stroke="#000000" d="M1073.8778,-121.2456C1073.8778,-121.2456 1073.8778,-151.7629 1073.8778,-151.7629"/>
<polygon fill="#000000" stroke="#000000" points="1070.3779,-151.7628 1073.8778,-161.7629 1077.3779,-151.7629 1070.3779,-151.7628"/>
</g>
<!-- JoinTagPoiService -->
<g id="node24" class="node">
<title>JoinTagPoiService</title>
<ellipse fill="#fdb462" stroke="#000000" cx="2280" cy="-245" rx="83.9663" ry="18"/>
<text text-anchor="middle" x="2280" y="-240.8" font-family="Times,serif" font-size="14.00" fill="#000000">JoinTagPoiService</text>
</g>
<!-- JoinTagPoiService&#45;&gt;JoinTagPoiModule -->
<g id="edge25" class="edge">
<title>JoinTagPoiService&#45;&gt;JoinTagPoiModule</title>
<path fill="none" stroke="#000000" d="M2280,-226.92C2280,-225.1536 2280,-224 2280,-224 2280,-224 1374.3848,-224 1374.3848,-224 1374.3848,-224 1374.3848,-208.1505 1374.3848,-208.1505"/>
<polygon fill="#000000" stroke="#000000" points="1377.8849,-208.1505 1374.3848,-198.1505 1370.8849,-208.1506 1377.8849,-208.1505"/>
</g>
<!-- PercentTypeGreenScoreAndPoiService -->
<g id="node26" class="node">
<title>PercentTypeGreenScoreAndPoiService</title>
<ellipse fill="#fdb462" stroke="#000000" cx="2718" cy="-245" rx="163.7444" ry="18"/>
<text text-anchor="middle" x="2718" y="-240.8" font-family="Times,serif" font-size="14.00" fill="#000000">PercentTypeGreenScoreAndPoiService</text>
</g>
<!-- PercentTypeGreenScoreAndPoiService&#45;&gt;PercentTypeGreenScoreAndPoiModule -->
<g id="edge27" class="edge">
<title>PercentTypeGreenScoreAndPoiService&#45;&gt;PercentTypeGreenScoreAndPoiModule</title>
<path fill="none" stroke="#000000" d="M2718,-226.8314C2718,-222.9541 2718,-220 2718,-220 2718,-220 1658.8612,-220 1658.8612,-220 1658.8612,-220 1658.8612,-208.1274 1658.8612,-208.1274"/>
<polygon fill="#000000" stroke="#000000" points="1662.3613,-208.1274 1658.8612,-198.1274 1655.3613,-208.1275 1662.3613,-208.1274"/>
</g>
<!-- PoiService -->
<g id="node28" class="node">
<title>PoiService</title>
<ellipse fill="#fdb462" stroke="#000000" cx="413" cy="-321" rx="52.745" ry="18"/>
<text text-anchor="middle" x="413" y="-316.8" font-family="Times,serif" font-size="14.00" fill="#000000">PoiService</text>
</g>
<!-- PoiService&#45;&gt;PoiModule -->
<g id="edge34" class="edge">
<title>PoiService&#45;&gt;PoiModule</title>
<path fill="none" stroke="#000000" d="M413,-302.8495C413,-290.7292 413,-277 413,-277 413,-277 1606.5331,-277 1606.5331,-277 1606.5331,-277 1606.5331,-273.2434 1606.5331,-273.2434"/>
<polygon fill="#000000" stroke="#000000" points="1610.0332,-273.2434 1606.5331,-263.2434 1603.0332,-273.2434 1610.0332,-273.2434"/>
</g>
<!-- RoleService -->
<g id="node30" class="node">
<title>RoleService</title>
<ellipse fill="#fdb462" stroke="#000000" cx="3246" cy="-245" rx="58.4628" ry="18"/>
<text text-anchor="middle" x="3246" y="-240.8" font-family="Times,serif" font-size="14.00" fill="#000000">RoleService</text>
</g>
<!-- RoleService&#45;&gt;RoleModule -->
<g id="edge36" class="edge">
<title>RoleService&#45;&gt;RoleModule</title>
<path fill="none" stroke="#000000" d="M3246,-227C3246,-218 3246,-209 3246,-209 3246,-209 1721.4024,-209 1721.4024,-209 1721.4024,-209 1721.4024,-207.9201 1721.4024,-207.9201"/>
<polygon fill="#000000" stroke="#000000" points="1724.9025,-208.2014 1721.4024,-198.2015 1717.9025,-208.2015 1724.9025,-208.2014"/>
</g>
<!-- StatsService -->
<g id="node31" class="node">
<title>StatsService</title>
<ellipse fill="#fdb462" stroke="#000000" cx="5041" cy="-245" rx="58.5405" ry="18"/>
<text text-anchor="middle" x="5041" y="-240.8" font-family="Times,serif" font-size="14.00" fill="#000000">StatsService</text>
</g>
<!-- StatsService&#45;&gt;StatsModule -->
<g id="edge43" class="edge">
<title>StatsService&#45;&gt;StatsModule</title>
<path fill="none" stroke="#000000" d="M5041,-263.1686C5041,-267.0459 5041,-270 5041,-270 5041,-270 1831.6946,-270 1831.6946,-270 1831.6946,-270 1831.6946,-292.8757 1831.6946,-292.8757"/>
<polygon fill="#000000" stroke="#000000" points="1828.1947,-292.8757 1831.6946,-302.8757 1835.1947,-292.8757 1828.1947,-292.8757"/>
</g>
<!-- TagsService -->
<g id="node33" class="node">
<title>TagsService</title>
<ellipse fill="#fdb462" stroke="#000000" cx="3515" cy="-245" rx="58.5251" ry="18"/>
<text text-anchor="middle" x="3515" y="-240.8" font-family="Times,serif" font-size="14.00" fill="#000000">TagsService</text>
</g>
<!-- TagsService&#45;&gt;TagsModule -->
<g id="edge45" class="edge">
<title>TagsService&#45;&gt;TagsModule</title>
<path fill="none" stroke="#000000" d="M3515,-226.8701C3515,-216.6855 3515,-206 3515,-206 3515,-206 1861.3836,-206 1861.3836,-206 1861.3836,-206 1861.3836,-205.2058 1861.3836,-205.2058"/>
<polygon fill="#000000" stroke="#000000" points="1864.8837,-208.0578 1861.3836,-198.0579 1857.8837,-208.0579 1864.8837,-208.0578"/>
</g>
<!-- TypeGreenScoreService -->
<g id="node35" class="node">
<title>TypeGreenScoreService</title>
<ellipse fill="#fdb462" stroke="#000000" cx="3831" cy="-245" rx="105.3161" ry="18"/>
<text text-anchor="middle" x="3831" y="-240.8" font-family="Times,serif" font-size="14.00" fill="#000000">TypeGreenScoreService</text>
</g>
<!-- TypeGreenScoreService&#45;&gt;TypeGreenScoreModule -->
<g id="edge47" class="edge">
<title>TypeGreenScoreService&#45;&gt;TypeGreenScoreModule</title>
<path fill="none" stroke="#000000" d="M3831,-226.5146C3831,-214.8601 3831,-202 3831,-202 3831,-202 1988.4386,-202 1988.4386,-202 1988.4386,-202 1988.4386,-201.6168 1988.4386,-201.6168"/>
<polygon fill="#000000" stroke="#000000" points="1991.9389,-208.1678 1988.4386,-198.1679 1984.9389,-208.168 1991.9389,-208.1678"/>
</g>
<!-- TypeService -->
<g id="node37" class="node">
<title>TypeService</title>
<ellipse fill="#fdb462" stroke="#000000" cx="4216" cy="-245" rx="59.6704" ry="18"/>
<text text-anchor="middle" x="4216" y="-240.8" font-family="Times,serif" font-size="14.00" fill="#000000">TypeService</text>
</g>
<!-- TypeService&#45;&gt;TypeModule -->
<g id="edge49" class="edge">
<title>TypeService&#45;&gt;TypeModule</title>
<path fill="none" stroke="#000000" d="M4216,-226.9775C4216,-209.6266 4216,-186 4216,-186 4216,-186 2166.4305,-186 2166.4305,-186"/>
<polygon fill="#000000" stroke="#000000" points="2166.4305,-182.5001 2156.4305,-186 2166.4304,-189.5001 2166.4305,-182.5001"/>
</g>
<!-- UserAppService -->
<g id="node38" class="node">
<title>UserAppService</title>
<ellipse fill="#fdb462" stroke="#000000" cx="1247" cy="-104" rx="74.6976" ry="18"/>
<text text-anchor="middle" x="1247" y="-99.8" font-family="Times,serif" font-size="14.00" fill="#000000">UserAppService</text>
</g>
<!-- UserAppService&#45;&gt;UserAppModule -->
<g id="edge50" class="edge">
<title>UserAppService&#45;&gt;UserAppModule</title>
<path fill="none" stroke="#000000" d="M1221.0964,-121.2456C1221.0964,-121.2456 1221.0964,-151.7629 1221.0964,-151.7629"/>
<polygon fill="#000000" stroke="#000000" points="1217.5965,-151.7628 1221.0964,-161.7629 1224.5965,-151.7629 1217.5965,-151.7628"/>
</g>
<!-- UserService -->
<g id="node40" class="node">
<title>UserService</title>
<ellipse fill="#fdb462" stroke="#000000" cx="668" cy="-321" rx="58.4415" ry="18"/>
<text text-anchor="middle" x="668" y="-316.8" font-family="Times,serif" font-size="14.00" fill="#000000">UserService</text>
</g>
<!-- UserService&#45;&gt;UserModule -->
<g id="edge53" class="edge">
<title>UserService&#45;&gt;UserModule</title>
<path fill="none" stroke="#000000" d="M668,-302.9672C668,-296.1474 668,-290 668,-290 668,-290 1704.9123,-290 1704.9123,-290 1704.9123,-290 1704.9123,-273.0439 1704.9123,-273.0439"/>
<polygon fill="#000000" stroke="#000000" points="1708.4124,-273.0439 1704.9123,-263.0439 1701.4124,-273.044 1708.4124,-273.0439"/>
</g>
</g>
</svg>
